<?xml version="1.0" encoding="utf-8"?>
<!-- Generator: Adobe Illustrator 23.0.2, SVG Export Plug-In . SVG Version: 6.00 Build 0)  -->
<svg version="1.1" id="Layer_1" xmlns="http://www.w3.org/2000/svg" xmlns:xlink="http://www.w3.org/1999/xlink" x="0px" y="0px"
	 viewBox="0 0 225 191" style="enable-background:new 0 0 225 191;" xml:space="preserve">
<style type="text/css">
	.st0{display:none;}
	.st1{display:inline;fill:#0B74DE;}
	.st2{display:inline;fill:#1180F0;}
	.st3{fill:#99CC33;}
	.st4{fill:#A6DD22;}
</style>
<title>Card_Moon_Normal</title>
<g class="st0">
	<path class="st1" d="M178.1,93.3c0.1,36.7-14.7,72-40.9,97.7H-46.8V0h188.3C165.1,25.3,178.2,58.7,178.1,93.3z"/>
	<path class="st2" d="M-40.5,0L-40.5,0c0,0,0.4,0.3,0.4,0.2c0.1-0.1,0.2-0.2,0.3-0.2H-40.5z M137.8,112c-0.4-0.4-0.9-0.7-0.8-1.4
		c0-0.2-0.9-0.9-1-0.8c-0.6,0.3-0.8,1-1.7,0.3c-1.3-1-0.6,1-1.3,1c-0.1,0-0.3,0-0.3-0.1c-0.4-0.5-1.5-0.1-1.3-1.5
		c0.2-1-0.4-2-0.6-3.1c-0.1-0.6-0.1-1.3,0-1.9c0.3,0.4,0.6,0.9,0.9,1.4s0.8,1.3,1.4,0.7c0.6-0.6,1-1.4,1-2.2
		c-0.1-0.8-0.8-1.4-1.6-1.4c0,0-0.1,0-0.1,0c-0.3,0-0.5-0.2-0.7-0.4c0.4-1.3-0.9-0.6-1.3-1c-0.6-0.6-1.1-0.9-1.3,0.3
		c-0.7,0.1-1.3,0.1-2,0.1c-0.3,0.1-0.7,0.2-1,0.3c0.4,0.7-0.4,2.1,1.3,2c0.2,0,0.5,0.3,0.5,0.3c-0.3,0.7-0.4,1.3,0.6,1.5
		c0,1.7,0.1,3.4,0,5.1c0,0.5-0.3,1.2-0.6,1.3c-0.6,0.1-1.3-0.1-1.9-0.3c-0.3-0.1-0.6-0.8-0.7-0.8c-1.4,0.4-1-0.4-0.8-1.1
		s0.4-1.3-0.4-1.6c-0.6-0.2-1.5,0.5-1.7,1.2c0,0.3-0.1,0.5-0.2,0.8c-0.2-0.2-0.3-0.5-0.4-0.8c-0.1-0.5-0.1-1,0-1.4
		c0.1-1.1,0.3-2.2,0.3-3.3c0-0.9,0-0.9-0.9-0.4c-0.3,0.2-0.7,0.3-1.1,0.3c-1.3,0.1-2.5,0.8-3.1,2c-0.4,0.6-1,1.1-1.6,1.4
		c-1.3,0.7-2.7,3.1-2.1,4.3c0.9,1.8-0.3,1.1-1,1.2l-1.5,0.2l-1,0.1c0.1-0.3,0.2-0.7,0.3-1c0.1-0.2,0.3-0.4,0.4-0.6
		c0.7-1.3,1.4-2.7,2-4c0.2-0.5,0-0.8,0.8-0.5c0.6,0.2,1.8-0.6,2.3-1.3c0.6-0.8,0.3-2.2,1.5-2.9c0.1-0.1-0.1-1,0.7-1
		c0.1,0,0.2-0.4,0.3-0.6c0.2-0.6,0.3-1.2,0.6-1.8c0.5-1,1.1-1.9,1.5-2.9c0.1-0.4,0.1-0.9-0.1-1.3c-0.4,0.1-0.8,0.1-1.1,0.4
		c-1,0.8-1.9,1.7-2.8,2.6c-0.1,0.1-0.3,0.2-0.4,0.3c0-0.2-0.2-0.5-0.1-0.6c0.5-0.7,1-1.4,1.6-2c0.4-0.5,1-1,1-1.4
		c0-0.9-0.2-1.8-0.6-2.6c-0.1-0.3-0.7-0.5-1.2-0.7s-1.1-0.2-1.6-0.4c-0.3-0.1-0.4-0.4-0.6-0.6c0.3-0.1,0.6-0.1,0.9-0.2
		c0.3,0,0.7,0,1,0c0-0.6-0.1-1.2-0.2-1.8c-0.3,0-0.7,0-1,0.1c-0.2,0-0.5,0.1-0.7,0.2c0.1-0.3,0.1-0.7,0.3-0.8c1.3-0.6,1.3-2,2.1-2.9
		c0.9-0.8,1-2.2,0.3-3.2c-0.8-0.8-1.8-1.5-2.9-2c-0.1-0.1-0.5,0-0.7,0.1c-1.5,0.8-2.2,2.5-1.7,4.1c0.1,1.3,1,2.3,2.3,2.6
		c0.2,0,0.3,0.3,0.4,0.4c-0.2,0.1-0.4,0.2-0.6,0.3c-1.2-0.1-2.3-1-2.6-2.2c-0.3-1.3-0.8-2.6-1.5-3.8c-1.1-1.6-1.2-1.4-0.2-3.1
		c0.1-0.3,0.1-0.6,0-0.9c-0.1-0.2-0.7-0.4-0.9-0.3c-1.1,1-1.9,0.3-2.6-0.4c-0.3-0.3-0.6-0.7-0.8-1.2c0.4-0.3,0.9-0.6,1.3-0.8
		l1.1-0.7c-0.3-0.4-0.6-0.7-0.9-1.1c-1.1-0.9-2.8-0.3-4-1.4c-0.1-0.1-0.4,0-0.5,0.1c-0.3,1.3-1.3,0.3-1.9,0.6
		c-1,0.5-1.6-0.2-2.2-0.7c-1-0.8-1.6-0.6-1.9,0.7c-0.1,0.3-0.2,0.9-0.4,0.9c-1.3,0.3-1,0.8-0.2,1.4c0.2,0.1,0.3,0.4,0.4,0.6
		c-0.3,0-0.6,0-0.8,0.1c-0.6,0.3-1.1,0.6-1.7,0.9c0.2,0.4,0.5,0.8,0.7,1.2s0.5,0.4,0.6,0.7c0.2,0.6,0.4,1.2,0.5,1.8
		c0,0.1-0.8,0.5-0.9,0.4c-0.5-0.5-1-1-1.4-1.5c-0.1-0.1,0-0.3,0-0.4c-0.2-0.4-0.5-0.9-0.7-1.4c-0.5,0.4-1,0.7-1.5,1.2
		c-1.2,1.2-2.5,2.4-3.7,3.6c-0.1,0.1-0.2,0-0.4,0.1c-1.6,0.5-3.3,0-4.4-1.1c-1.5-1.4-3.6-1-5.3-1.8c-0.5-0.3-1.3,0.1-2,0.3
		c-1.6,0.4-3.4,0.4-4.6,1.9c-0.3,0.3-0.9,0.3-1.4,0.5s-0.8,0.3-0.8,0.5c0.1,0.4,0.2,0.7,0.5,0.9c0.2,0.2,0.5,0.4,0.8,0.5
		c1.1,0.6,2.3,1.1,2.4,2.4c0,1.2-0.2,2.4-0.6,3.5c-0.1,0.2-0.6,0.4-0.9,0.5c-0.8,0.2-1.7,0.2-1.6,1.4c0,0.1-0.5,0.4-0.7,0.3
		c-1-0.3-1.9-0.7-2.8-1.2c-0.7-0.4-1.1-0.4-1.6,0.1c-1,1.3-3.2,2-2.6,4.3c0,0.1,0,0.3-0.1,0.3c-1.7,0.6-0.5,1.1-0.1,1.8
		c0.2,0.3,0.2,0.9,0,1c-1.1,0.6-2.3,1.1-3.4,1.7c-0.2,0.1-0.3,0.6-0.3,0.9c-0.1,0.8-0.1,1.5-1.2,1.7c-1.3,0.2-1.6,1-1.4,2.2
		c0.1,0.4,0.1,0.8,0.2,1.2c0.1,1.6,0.1,1.7-1.4,1.4c-0.7-0.1-0.9,0-0.9,0.7c0,0.3,0,0.7-0.2,1c0,0.1-0.5,0-0.8,0c0.2-1-1-2.2-0.1-3
		c1.2-1.1,0.8-1.9-0.1-2.9c-0.2-0.3-0.4-0.6-0.5-1c-0.8-1.7-1.3-1.8-2.7-0.6c-0.2,0.1-0.4,0.3-0.6,0.4c-0.1-0.3-0.1-0.5-0.1-0.8
		c0.1-0.3,0.4-0.9,0.3-1c-0.9-0.7-0.3-1.4,0-2.2c0.1-0.3,0.4-0.8,0.2-1c-0.5-1.1-1.1-2.2-1.8-3.3c-0.3-0.4-1.2-0.4-1.8-0.6
		c-0.1,0.4-0.2,0.7-0.2,1.1c-0.2,0.5-0.2,1.1-0.3,1.6c0,0.8-0.4,1.6-1,2.2c-1.1,1.2-2.2,0-3.2,0.5c-0.1-0.2-0.3-0.4-0.2-0.5
		c0.8-1.6,0.8-3.6-0.2-5.1c-0.4-0.4-0.4-1,0-1.4c0.1-0.1,0.3-0.2,0.5-0.3c0.3-0.1,0.6-0.4,0.8-0.7c0.1-0.4,0.2-0.8,0.2-1.2
		c-0.3,0.2-0.7,0.4-1,0.6c-0.3,0.3-0.7,0.5-1,0.7c-0.1,0-0.5-0.3-0.5-0.4c0.6-1.9,1.7-3.6,1-5.7c0-0.2,0.2-0.4,0.3-0.6
		c1.1-1.5,0.8-3.6-0.7-4.7c0,0,0,0,0,0c-1.2-1-2.9-1.7-3.1-3.5c0-0.1-0.3-0.2-0.4-0.3c-0.1,0.2-0.1,0.3-0.2,0.5
		c-0.1,0.4-0.2,1-0.4,1.1c-2.6,0.9-4.2,0-4.7-2.7c0-0.2,0-0.5,0-0.7c0-0.2-0.1-0.5-0.2-0.7c-0.2,0.1-0.4,0.3-0.5,0.4
		c-0.5,0.9-0.2,2.4-1.8,2.5c0.2,1.4-1.1,1.4-1.8,1.9c-1.1,0.8-1.7,2.3-0.9,3.3c0.4,0.4,0.4,1.1,0,1.5c0,0-0.1,0.1-0.1,0.1
		c-0.3,0.3-0.4,0.7-0.7,1s-0.8,0.8-1.2,0.8c-1.1-0.3-2.1,0.4-2.4,1.4c-0.3,0.6-1.1,0.9-1.8,0.7c-0.2,0-0.3,0.1-0.5,0.2
		c-0.4,0.5-0.7,0.8-1.3,0.2c-0.4-0.2-0.8-0.1-1.2,0.1c-1,1.1-2.3,1.2-3.7,1.4c-0.3,0-0.6-0.1-0.9-0.2c0.2-0.2,0.3-0.5,0.5-0.6
		c1-0.5,1.3-1,0.1-1.6c-0.1-0.1-0.2-0.6-0.1-0.8c0.6-1.2,3.3-2.3,4.7-2c0.3,0,0.6,0.1,0.8,0.1c0-0.3-0.1-0.6-0.3-0.8
		c-0.3-0.3-0.7-0.6-1.1-0.8c-0.8-0.5-1.6-1.1-2.3-1.8c-1-1.2-1.2-1.9-0.8-2.8c0-0.1,0.1-0.2,0.1-0.2c0.3-0.4,0.7-0.8,1.1-1.1
		c0.2-0.2,0.4-0.4,0.6-0.6c0.4-0.6,0.8-1.1-0.3-1.4s-1.2-0.6-0.2-1.2c0.4-0.3,0.8-0.8,1.2-1.1c0.4-0.1,0.7-0.6,0.6-1
		c0-0.1-0.1-0.3-0.2-0.4c-0.4-0.6-0.9-1.1-1.4-1.6c-0.4-0.3-0.9-0.6-1.5-0.8c-1.1-0.4-0.5-1.4-0.8-2.1c-0.4-0.9-1.8,0.1-2.1-1.1
		c-0.2-0.7-0.7-1.4-0.7-2.1c0-1.9-1.2-2.5-2.7-3c-0.6-0.1-1.3-0.2-1.9-0.3C5,59.4,5.2,59.2,5.3,59c1.1-1,1.1-1.4-0.1-2.2
		c-1.1-0.4-2.4-0.3-3.4,0.3c-0.6,0.4-1.2,0.8-1.8,1.1c-0.3,0.1-0.7,0-1,0c0.2-0.3,0.4-0.6,0.6-0.7c1.1-0.2,2-1.2,2-2.3
		c0.1-0.9,0.9-1.5,2-1.6c1.1-0.1,2.2-0.5,3.1-1c0.6-0.4,1.4-0.4,2,0c0.4,0.2,0.7,0.5,1.1,0.7c0.6,0.2,1.4,0.4,0.8-0.8
		c0-0.1,0.1-0.5,0.3-0.5c1-0.4,1.5,0.3,2.2,0.9c0.3,0.3,0.9,0.2,1.4,0.3c0-0.5,0.1-1.1-0.1-1.3c-1.2-1,0.5-1.7,0.1-2.6
		c0.1,0,0.3-0.1,0.4-0.1c0.6,0.6,1,0.4,1.3-0.2s-0.2-0.8-0.8-0.9c-0.2,0-0.3-0.3-0.4-0.4c0.2-0.1,0.3-0.3,0.5-0.3
		c0.4,0,0.7,0,1.1,0.2c1.1,0.6,1.1-0.1,1.1-0.8c0-0.8,0-1.6,0.1-2.4c0.2-0.8,0.4-1.6,0.8-2.4c0.1-0.4,0.3-0.7,0.6-0.9
		c0.7-0.3,1.6-1.3,1.5-2c0-0.2-0.1-0.4-0.2-0.7c-0.2,0.2-0.4,0.3-0.5,0.5c-0.4,1.3-1.5,1.1-2.4,1.3c-0.2,0-0.4-0.2-0.6-0.3
		c0.1-0.2,0.3-0.4,0.4-0.5c0.1-0.1,0.2-0.1,0.3-0.2c2.4-1.5,2.3-3.9-0.1-5.2c-0.2-0.1-0.3-0.1-0.5-0.2c-1.2-0.6,0.5-1,0.2-1.6
		c-0.1-0.2,0.5-0.7,0.8-1c0.2,0.2,0.5,0.4,0.5,0.7c0,0.5-0.1,1-0.1,1.4c0,0.1,0.2,0.3,0.3,0.4c0.4-0.5,0.8-1,1.1-1.6
		s-0.3-0.5-0.5-0.8c-0.3-0.5-0.8-1.3-0.6-1.6c0.8-1.2,0.1-1.9-0.6-2.7c-0.3-0.3-0.1-1.2,0.1-1.6s0.9-0.4,1.4-0.6l-1.4-0.8
		c-0.1-0.1-0.2-0.1-0.3-0.2c-0.2-0.2-0.3-0.3-0.5-0.5c0.2-0.1,0.4-0.2,0.6-0.2c0.6,0,1,0,1-0.9c0.1-0.7,0.5-1.3,1-1.7
		c0.6-0.3,1.3-0.6,2-0.7c-0.1,0.5-0.2,1-0.3,1.5c-0.1,0.4-0.3,0.9-0.2,1c0.4,0.2,0.9,0.4,1.3,0.4c0.3-0.1,0.6-0.2,0.9-0.3
		c0.6,1.3,2.1,1,2.9,1.8c0.8,0.8,1.7,0.5,2.7,0.2c1-0.4,2-0.5,3-0.3c0.7,0.1,1.4,0.9,1.1-0.6c0-0.1,0.1-0.2,0.2-0.3
		c1-0.4,0.6-0.6,0-1.1c-1.2-0.9-1.2-1,0.2-1.6c0.2,0,0.5-0.2,0.7-0.3c0.6-0.5,1-1.2,1.3-1.9c0.2-0.9-0.9-0.9-1.4-1.4
		s-1.3-1.2-0.1-2.1c0.4-0.5,0.5-1.1,0.4-1.6c-0.4-2.4,0.4-3.6,2.7-4c0.4-0.1,0.8-0.3,1.2-0.5c0.7-0.3,1-0.6,0.2-1.1
		c-0.6-0.4-0.4-0.8,0-1.2s3.6-1.1,3.8-0.6c0.4,1,0.8,0.4,1.3,0.2c1.5-0.6,3.1-1.1,4.6-1.8c0.7-0.2,1.4-0.6,2-1.1
		c0.8-0.9,1.3-1.5,2.3-0.2C53,3,53.3,3,53.5,3.1c0-0.2,0.2-0.5,0.1-0.6c-0.7-0.8-0.2-0.7,0.4-0.9c0.7-0.2,1.3-0.8,1.6-1.5h-91.7
		l-0.9,0.5c-0.1-0.2-0.1-0.3-0.2-0.5h-2c0.2,0.2,0.3,0.7,0.6,0.9c0.7,0.3,0.6,0.7,0.2,1.3C-40,4.3-41,6.8-41.5,9.5
		c-0.2,0.9-0.5,1.8-0.9,2.6c-0.2,0.3-0.6,0.5-0.9,0.8c0-0.3,0-0.7-0.1-1c0.1,0,0.1,0,0.2-0.1c-0.4-0.9-0.7-1.9-1.1-2.7
		c-0.4-0.9-0.8-1.7,0.3-2.5c0.6-0.5,0.7-1.5,0.2-2.1c-0.1-0.1-0.2-0.2-0.3-0.3c-0.2-0.1-0.3-0.3-0.4-0.5c-0.2-0.8,1-2.9,1.8-3.1
		c0.3-0.1,0.7-0.3,1-0.5h-5.2v18.3c0.9-0.5,2.1-0.7,3-1.3c0.1-0.1,0.4,0.2,0.7,0.4c-0.5,0.6-0.8,1.3-1.2,1.4
		c-0.8,0.2-0.9,0.6-1.1,1.2c-0.2,0.6-0.7,1.1-1.4,1.3v152.4l0.3,0.4c1,1.6,2.2,3.1,3.4,4.5c0.8,0.8,1.9,1.4,3,1.6
		c1.6,0.1,3.2,0.1,4.8-0.1c1.4-0.1,2.7-0.4,3-2.1c0-0.2,0.3-0.3,0.5-0.4c0.2,0.2,0.3,0.5,0.4,0.8c0,0.1-0.2,0.3-0.3,0.4
		c-0.6,0.8-0.5,1.4,0.6,1.5c0.8,0.1,1.6,0.1,1.2,1.3c0,0.1,0.1,0.3,0.2,0.4c0.6,0.4,1.2,0.7,1.9,0.9c0.7,0.2,1.3,0.4,1,1.1
		c-0.3,0.6-0.7,1-1.3,1.3c-0.5,0.2-1.1,0.1-1.6,0.2c-0.3,0.1-0.6,0.4-0.8,0.7c0.2,0.2,0.5,0.4,0.8,0.6c1.6,0.8,3.1-0.3,4.6-0.2
		c0-0.3,0.2-0.8,0-1c-0.6-1-0.6-1.6,0.6-1.9c0.3-0.1,0.5-0.4,0.7-0.5s0.7-0.4,0.9-0.3s0.3,0.6,0.4,0.9c0.1,0.3,0,1,0.3,1.1
		c1.1,0.8,0.3,1.1-0.3,1.5c-0.4,0.3-0.7,0.7-1.1,1.1l1.3,0.6c0.2,0.1,0.5,0.2,0.7,0.3c0.1,0.1,0.2,0.3,0.3,0.4
		c-0.1,0-0.2,0.1-0.3,0.1c-0.9-0.3-0.7,0.6-1.1,0.9c-0.3,0.4-0.4,0.7-0.3,0.9h127.6c0-0.1,0.1-0.1,0.1-0.2c0.9-1.5,3-1.4,3.7-3.2
		c0.4-1,1.4-1.7,1.9-2.6c0.2-0.4-0.2-1.5,0-1.6c1.2-0.7,0.3-1.5,0.1-2.2c-0.1-0.6-0.8-1-1.4-0.9c-0.2,0.1-0.5,0.2-0.6,0.4
		c-1.9,1.7-4.8,1.7-6.8,0c-0.4-0.4-0.6-0.8,0.2-1c0.7-0.2,1.3-0.7,2-0.8c0.7-0.2,1.4-1.1,2.4-0.4c0.4,0.1,0.7,0.1,1.1-0.1
		c0.3-0.2,0.4-0.6,0.6-1c-0.3-0.2-0.7-0.2-1-0.3c-0.5,0-0.9,0.3-1.4,0.4c-0.3,0-0.6-0.1-0.7-0.4c0-0.3,0-0.6,0.2-0.8
		c0.2-0.3,0.6-0.7,0.8-0.7c1,0.2,1.3-0.3,1.5-1.1c0-0.1,0.2-0.3,0.3-0.4c0,0.2,0,0.3,0.1,0.5c0.2,0.4,0.5,0.9,0.7,1.3
		c0.2-0.2,0.5-0.3,0.7-0.5c0.4-0.3,0.9-0.6,1.3-0.9c0.1-0.1-0.4-0.9-0.7-1.3l-0.4-0.5l0,0c-0.3-0.3-0.6-0.7-0.9-1.1
		c-0.6-0.8-1-1.8-1.6-2.6c-0.3-0.4-0.7-0.6-1.1-0.6c-1,0-0.6-0.4-0.3-0.9s0.8-1,0.8-1.4c-0.1-1-0.3-2.5-0.8-2.8
		c-1.2-0.5-0.5-2-1.6-2.3c-0.2-0.1-0.5-0.3-0.7-0.2c-0.6,0.1-0.9,0-1.1-0.8c-0.2-0.7-1-1-1.7-0.8c-0.1,0-0.2,0.1-0.3,0.2
		c-0.3,0.3-2.2,0.1-0.7,1.4c0.1,0.1-0.1,0.5-0.3,0.6c-0.7,0-1.3,0-2-0.2c-0.3,0-0.6,0-0.9,0l-1.2-0.1c0.1-0.5,0.2-1.3,0.4-1.4
		c1.5-0.3,1.2-1.6,1.6-2.5s0.8-1.6,1.8-1.5c0.9,0.1,1.1-0.1,0.8-1c-0.1-0.2,0-0.5,0.1-0.7c1-0.9,0.8-2.1,0.8-3.3
		c0-0.3,0.6-0.9,1-1.1s1.1,0.4,1.1,0.6c0.2,1.6,0.9,0.9,1.5,0.4c0.2-0.1,0.5-0.4,0.6-0.4c1.6,0.6,2-0.7,2.4-1.6
		c0.6-1.4,2.2-1.4,2.9-2.4c0.1-0.1,0.4-0.1,0.5,0c0.9,0.4,1.8,0.9,2.6,1.4c0.2,0.1,0.2,0.5,0.2,0.8c-1.2,0.3-0.3,1-0.1,1.2
		c1.5,0.9,1,2.3,1.1,3.5c0,0.5,0.4,1.3,0.8,1.4c1.8,0.3,3.7,1.2,5.4-0.3c0.3-0.2,0.7-0.2,1,0c0.6,0.2,1.2,0.6,1.7,1.1
		c0.7,0.7,0.8,0.5,1.3-0.2c0.7-0.9,1.5-1.6,2.4-2.3c0.5-0.5,1.2-0.8,0.9-1.8c-0.1-0.4,0.4-0.9,0.7-1.4c0.3,0.3,0.7,0.5,1.1,0.7
		c0.4,0.1,1,0.1,1.2-0.2c1-1.1,1.9-2.2,2.6-3.4c0.5-1.2,0.9-2.4,1.3-3.6c0,0-0.4-0.3-0.4-0.3c-1,0.9-1.4-0.3-1.9-0.7
		c-0.8-0.6-0.2-1,0.2-1.5s0.5-1.1,0.8-1.6c0.7-1.3,1.5-2.5,2.5-3.6c1.3-1.3,1.3-1.8-0.3-2.5c-0.1-0.1-0.2-0.4-0.3-0.6
		c1.8,0.3,0.5-0.9,0.7-1.4c0.3-1-0.1-0.8-0.7-0.5c-0.9,0.6-1.7,1.2-2.6,1.8c-0.2,0.1-0.4,0.1-0.6,0.1c0-0.2,0-0.4,0.1-0.5
		c0.6-0.9,0.9-1.8-0.1-2.6c-0.1-0.1-0.1-0.3-0.1-0.5c0.4-1.4,0.2-2.4-0.9-2.5c-1.4-0.2-1.8-1.2-2.4-2c-0.2-0.2-0.4-0.4-0.6-0.7
		c0,0.3,0,0.5,0,0.8c0,0.7,0,1.1-0.9,0.9c-0.3-0.1-0.9,0.5-0.9,0.7c0,1.2-0.9,1.4-1.7,1.7c-0.4,0.1-0.8,0.1-1.2,0
		c0.1-0.4,0.1-0.9,0.3-1.3c0-0.2,0.3-0.2,0.4-0.4c0.7-0.8,0.5-1.4-0.5-1.4s-1.2-0.3-1.1-1.2c0.1-0.5,0.1-0.5,1.2-0.5
		c0.1,0,0.3-0.2,0.4-0.3c0.3-0.3,0.5-0.6,0.7-0.8s0.4-0.6,0.6-0.8c-0.3,0-0.7,0-1,0.1c-1.1,0.6-1.2-0.2-1.1-0.9
		c0.2-0.6,0.4-1.1,0.7-1.7c0.1-0.3,0.1-0.6,0.1-0.9c-0.3,0.1-0.7,0-0.8,0.2c-1,1-2,2.1-3,3.2c-0.1,0.1,0.1,0.4,0.1,0.7
		c0.2,0.9-0.3,1.8-1.2,2c-0.4,0.1-0.8,0-1.2-0.2c-0.2-0.1-0.3-0.2-0.4-0.3c0.2,0,0.3-0.1,0.5-0.1c0.5-0.1,1.2-0.6,0.6-0.9
		c-1.1-0.6-0.9-1-0.5-1.9c0.1-0.3-0.4-0.9-0.6-1.4c-0.1-0.2-0.2-0.5-0.3-0.8c1.3,0.1,1-1.1,1.4-1.8c0.2-0.2,0.5-0.2,0.7-0.2
		c1.1,1,1.1-0.1,1.4-0.7c0.2-0.7,0.4-1.4,0.8-2c1.1-1.4,2.5-1,3,0.7c0.2,0.5,0.2,1.1,0.4,1.6c0.4,1.4,1,1.8,2.6,1.9
		c1.5,0.2,3,0.1,4.3-0.6c0.7-0.4,1.2,0.1,1.1,0.9c0,0.3-0.2,0.7-0.3,1.1c-0.1,0.3-0.1,0.7-0.1,1c0.3-0.2,0.5-0.4,0.8-0.6
		s0.5-0.7,0.7-0.7c1.9,0,2.3-1.6,2.9-2.8c0.2-0.5,0.4-1,0.8-1.4C138.5,113.7,138.7,112.8,137.8,112z M32.7,3.5
		c0.3-0.4,0.7-0.7,1-1.1c0.2-0.3,0.4-0.6,0.5-0.9c0,0.3,0,0.7,0.1,0.9c-0.5,1-0.1,1.5,0.8,1.7c0.4,0.1,0.8,0.3,1.2,0.5
		c0.3,0.2,0.7,0.3,1,0.4c-0.4,0.3-0.8,0.8-1.3,0.8c-0.9,0.1-1.7,0-2.5-0.2C32.2,5.4,31.9,4.4,32.7,3.5z M11.3,44.3
		c-0.5,0.2-1.1-0.1-1.2-0.7c0-0.1-0.1-0.3,0-0.5c0.1-0.5,0.7-1.3,1.1-1.3c0.4,0,1,0.7,1.9,1.3C12.4,43.6,11.9,44,11.3,44.3z
		 M5.3,6.3c0.8-0.3,1.5-0.8,2.4,0.3C8,7.1,9.4,6.9,10.2,6.7c0.8-0.1,1.4-0.7,2.1,0c0.2,0.2,0.7-0.8,0.9,0.1s-0.4,0.9-1.1,0.8h-0.1
		c-0.7-0.1-1.4-0.2-2.1-0.2c-0.7,0-1.5-0.1-1.7,1C8.2,9.1,7.7,9.2,7.1,9.1C6.7,9,6.4,9,6,9.2c-1.2,1.1-1.2-0.7-1.8-0.9
		C3.8,8.2,4.7,6.5,5.3,6.3L5.3,6.3z M-43,108.5c-0.4,0.1-0.9,0.2-1.3,0.2c0.1,0.6,0.3,1.2,0.5,1.8c0.2,0.3,0.4,0.7,0.7,0.9l-0.9,0.3
		c-2.1-0.1-2.6-1.3-1.5-3.1c0.7-1.2,1.7-1.6,2.7-1.2c0.2,0.2,0.4,0.4,0.6,0.6C-42.5,108.3-42.7,108.4-43,108.5z M-41.9,95.9
		l-3.4,0.9c-0.4-0.1-0.7-0.1-1.1-0.3c-0.1,0-0.2-0.3-0.2-0.4s0.2-0.2,0.3-0.2c0.8,0.3,0.9,0.1,0.8-0.7c0-0.3,0.3-0.6,0.5-0.9
		c0.2,0.1,0.6,0.2,0.7,0.4c0.4,0.6,0.8,0.6,1.4,0.3c0.3-0.1,0.7-0.1,1-0.1c0.2,0,0.4,0.3,0.5,0.5S-41.8,95.9-41.9,95.9z M-32,104.8
		c0,0.3-0.3,0.6-0.5,0.9c-0.1-0.3-0.2-0.5-0.4-0.8c-0.6-0.9,0.1-2.3-1-3.1c0-0.4,0.2-0.7,0.5-1c0.4-0.2,0.8-0.4,1.2-0.5l0.2,0.9
		C-32,102.5-32,103.7-32,104.8z M-30.2,96c-0.3,0.4-0.3,1.1-0.6,1.4c-0.3,0.3-1.6-0.2-1.6,1.1c-0.2,0-0.4,0-0.5-0.1
		c-0.9-0.7-1.7-1.3-2.5-2c-0.2-0.3-0.4-0.6-0.6-0.9c0.3-0.1,0.5-0.2,0.8-0.3c0.7,0.2,1.5,0,2-0.6c0.3-0.3,1.1-0.2,1.6-0.1
		c0.4,0.2,0.9,0.4,1.2,0.7c0.4,0.2,0.7,0.3,1.1,0.4C-29.6,95.7-30,95.8-30.2,96z M-10.8,72.6c0.1-0.2,0.1-0.4,0.3-0.5
		c0.5-0.4-0.7-1.4,0.3-1.4s2.2,0.1,2.6,1.4c0.2,0.5,0.5,1,0.7,1.5c-0.5,0.7-1.1,1.4-1.8,2c-0.3,0.2-1.1-0.2-1.5-0.6
		C-11.1,74.5-11.3,73.4-10.8,72.6z M-19,58.7c0.4-0.5,1-1.2,1.6-0.4c0.5,0.5,1.7,0.5,1.2,1.8c0.4,1.5-1.2,1.8-1.9,2.8
		c-0.3-0.1-0.6-0.2-0.9-0.5c-0.4-0.6-0.7-1.3-0.8-2.1C-19.7,59.7-19.5,59.1-19,58.7z M-1.1,110.2c0,0.5-0.2,1.1-0.3,1.6
		c-0.1,0.3-0.2,0.6-0.4,0.9c-0.4-0.2-0.9-0.5-1.2-0.8c-0.2-0.2,0-0.6,0-0.9c-0.2-1.3-0.8-1.8-2.2-1.9c-0.7-0.1-1.4-0.4-2-0.7
		c-0.2-0.2-0.2-0.4-0.2-0.6c0.2-1-0.1-1.5-1.1-1.5c-0.4,0-0.7,0-1.1,0.1c-2.2,0.3-3.1-0.2-4.3-2.1c-0.4-0.7-0.9-1.3-1.4-1.9
		c-0.1-0.1-0.3-0.2-0.5-0.1c-0.1,0-0.2,0.3-0.1,0.4c0.3,1.1,0.7,2.2,1.1,3.3c0.1,0.4,0.2,0.7,0.3,1.1c-0.6,0-1.2,0-1.8-0.2
		c-0.4-0.2-0.5-0.8-0.8-1.2c-1-1.4-1.9-1.4-3.3-0.4c-0.1,0.1-0.3,0.2-0.4,0.2c-0.1-0.2-0.2-0.3-0.2-0.5c0.2-0.6,0.4-1.1,0.6-1.6
		c0.2-0.4,0.5-0.8,0.7-1.2s0.1-0.8-0.6-0.7c-0.9,0.1-3.2-1.9-3.3-2.7c0-0.2,0.2-0.4,0.4-0.5s0.5,0,0.5,0c0-0.6-0.4-1.2,0.6-1.8
		c1-0.6-0.5-1.2-0.9-1.7c-0.1-0.2-0.3-0.3-0.4-0.5l0,0c0.1,0.4,0.3,1,0.1,1.3c-0.4,0.9-1,1.7-1.8,2.4c-0.2,0.2-1.2-0.5-1.8-0.9
		c-0.1-0.1,0-0.7,0.2-0.9c1-1,1-1-0.2-1.5c-0.3-0.1-0.7-0.6-0.6-0.9c0.2-0.9,0.6-1.7,1-2.5c0.2-0.4,0.8-0.6,1.1-0.9
		c0.2,0.4,0.4,0.7,0.6,1.1c0.4,0.9,0.8,1.8,1.1,2.6c0,0,0-0.1,0-0.1l0.1,0.1c0.7-0.3,1.4-0.6,2.1-0.8c0.1,0.2,0.2,0.3,0.3,0.5
		c0.1,0.4,0.1,0.8,0.2,1.1c0.6-0.2,1.1-0.5,1.7-0.9c0.2-0.2,0.2-0.7,0.4-1c0.2-0.1,0.4-0.2,0.6-0.1c1.2,0.7,2.6,0.8,3.9,0.4
		c0.6-0.3,0.6,0,0.6,0.4c0,0.7-0.1,1.4-0.3,2.1c-0.5,0.9,0,1.5,0.3,2.2s0.7,0.7,1.1,0.2c0.2-0.2,0.4-0.3,0.6-0.5
		c0.1,0.3,0.1,0.6,0,0.8c-0.5,1.3,0.7,1.8,1.2,2.7c0,0.1,0.6-0.2,0.9-0.3l0,0c0,0,0,0,0,0c1.3-1.6,3-1.8,4.8-1.6
		c0.8,0.2,1.4,1,1.2,1.9c0,0.2-0.1,0.4-0.3,0.6c-0.6,0.8-1.4,1.4-2.3,1.7c-0.8,0.3-0.6-0.7-0.5-1.2s0.5-1,0.4-1.1
		c-0.6-0.5-1-0.1-1.5,0.4c-0.5,0.4-1.1,0.6-1.2-0.5c0-0.1-0.4-0.1-0.6-0.2h0c0,0.5,0.5,1.2-0.7,1.4c-0.6,0.1-0.6,0.9,0.1,1.4
		c1.7,1,3.4,2,5.1,3c0.3,0.2,0.6,0.4,0.8,0.3c1.5-0.4,2.1,1.1,3.2,1.5C-1.2,109-1.1,109.8-1.1,110.2z M1.2,62.4
		c-1-0.1-1.4-0.6-0.8-1.4c0.4-0.5,1-0.9,1.6-1.3c0,0,0.3,0.4,0.5,0.6c0.1,0.1,0.2,0.1,0.3,0.2c0.3-1.2,1.7,0,2.1-1
		C5,60.1,5.4,60.7,5.2,61c-0.5,0.7-1.1,1.3-1.7,1.9c-0.1,0.1-0.3,0-0.5-0.1C2.4,62.7,1.8,62.5,1.2,62.4z M6.5,164.9
		c-0.1,0.1-0.2,0.3-0.3,0.4c-1.2-1-1.1,1.5-2.1,0.7c-0.2-0.2-0.4-0.5-0.5-0.8c-0.6-1-0.6-1,0.6-1.4c0.4-0.1,0.8-0.3,1.1-0.4
		C6.3,163.5,6.8,164.2,6.5,164.9z M99.3,111c0.6-1.9,0.9-2,2.8-1.9c0.8,0.1,2-0.5,1.6,1.1c0,0,0.4,0.1,0.6,0.2
		c0.2,0.1,0.3,0.3,0.3,0.3c-0.5,0.8-1,1.6-1.5,2.4c-0.2,0.5-0.5,1-0.8,1.4c-0.6,0.7-0.9,1.2-2.1,0.2C99,113.7,98.7,112.2,99.3,111z
		 M75.6,88c0.7-0.3,1.4-0.4,2.2-0.4c0.4,0.2,0.6,0.7,0.4,1.1c-0.1,0.2-0.2,0.3-0.4,0.4c-0.7,0.4-1.5,0.6-2.3,0.8
		c-0.2,0-0.4-0.5-0.8-1C75,88.4,75.2,88,75.6,88L75.6,88z M17.2,92.8c0.2-0.1,0.1-0.7,0.1-1c-0.1-0.6-0.3-1.2-0.3-1.8
		c0-0.2,0.5-0.6,0.6-0.6c1.1,0.7,1.5,0,2-0.8c0.2-0.3,0.8-0.4,1.2-0.5c0.1,0.1,0.2,0.3,0.3,0.4c-0.1,0.1-0.2,0.1-0.3,0.2
		c0.1,0.1,0.1,0.4,0.2,0.4c0.7,0.3,1.4,0.6,2.1,0.9c0.3-0.8-0.1-1.6-0.8-2c0,0-0.1-0.1-0.1-0.1c0-0.2,0-0.4,0-0.7
		c1.5-0.1,0.6-2,1.7-2.3c0.2,0,0.5,0.3,0.7,0.5s0.3,0.8,0.6,1c0.5,0.4,0.3,0.6,0,1c-0.4,0.6-0.7,1.3-0.7,2c0.1,0.9-0.3,1.8-1,2.3
		c-0.6,0.4-0.6,1.6-1.6,1.8c0.1,0.2,0.1,0.5,0.2,0.5c1.2,0.2,0.5,0.9,0.3,1.3c-0.3,0.8-0.8,0.5-1.3,0.2c-0.3-0.2-0.6-0.3-1-0.4
		c-1,0-2-0.5-2.8-1.2C16.8,93.6,16.1,93.3,17.2,92.8z M7.9,120.4c0.2-0.4,0.5-0.7,0.8-1c0.5-0.4,1.2-0.7,1.8-1.1
		c0.2,0.3,0.5,0.6,0.4,0.8c-0.4,1.5-1.9,2.2-3,3.1c-0.1,0.1-0.6-0.4-1-0.7C7.4,121,7.7,120.7,7.9,120.4z M30.4,177.9
		c0,0,0-0.1,0-0.1c-0.1,0-0.3,0-0.3,0l-1.5-0.9c0.6-0.4,1.2-0.7,1.8-1.1c0.1,0,0.2,0.1,0.3,0.1l2.2,1.4
		C32,177.5,31.2,177.7,30.4,177.9z M34.7,155.8c-0.5,0.4-1,0.9-1.5,1.3c-0.7,0.4-0.9,1.2-0.7,1.9c0.2,0.7-0.1,1.1-0.8,0.9
		c-0.9-0.4-2,0-2.5,0.9c-0.1,0.2-0.2,0.5-0.2,0.7c-0.1,0.3-0.1,0.7-0.2,1c-0.4-0.3-1.1-0.6-1.1-0.8c0-1.6-2-1.6-2.2-2.9
		c-0.2,0.1-0.4,0.1-0.5,0.2c-0.6,1.6-1.1,3.1-1.7,4.7c-0.1,0.2-0.3,0.3-0.6,0.4c-0.1,0-0.3-0.2-0.4-0.3c1.3-1.2-0.5-1.1-0.8-1.6
		c-1.2-1.8-3.2-3-3.4-5.5c-0.1-1.3-1.4-1-2.2-1c-0.3,0-0.7,0.4-1,0.4s-0.6-0.3-0.9-0.5c0.2-0.1,0.5-0.3,0.7-0.4c2-0.4,2-0.4,1.2-2.2
		c-0.1-0.3-0.1-0.7-0.1-1c0.2,0.1,0.5,0.2,0.8,0.2c0.3,0,0.9-0.1,0.9-0.2c0.1-0.4,0-0.8-0.2-1.1c-0.6-0.8-1.8-0.7-3,0.1
		c-0.4,0.2-0.8,0.4-1.3,0.6c-0.2,0-0.5-0.3-0.7-0.5c0.2-0.2,0.4-0.5,0.6-0.5c1.1,0.1,2.1-0.6,2.4-1.7c0.2-1.3,0.8-2.5,1.8-3.3
		c0.1-0.1,0-0.5,0-0.8c-0.3,0-0.5,0.1-0.8,0.2c-0.3,0.2-0.5,0.6-0.8,0.8c-0.1,0.1-0.7-0.3-0.6-0.3c0.3-1-0.1-2.3,1.4-2.7
		c0.3-0.1,0.8-1,0.7-1.2c-0.4-0.6-0.8-1.5-1.9-1c-0.4,0.2-1.1,1.1-1.2,0.1c0-0.6-1.5-1.7,0.3-2.1c0.4-0.1,0.7-0.8,0.8-1.3
		c0.1-0.2-0.6-0.8-0.6-0.8c-1.1,0.7-1.9-0.6-2.9-0.4c-0.1,0-0.3-0.3-0.4-0.4c0.2-0.1,0.4-0.4,0.5-0.4c0.5,0.1,1.1,0.3,1.6,0.4
		c1.2,0.2,1.4,0,1.2-1.2c-0.1-0.5-0.6-1.2,0.3-1.6c0.1,0,0.1-0.1,0.2-0.2c-0.2-0.1-0.5-0.2-0.5-0.3c-0.1-0.7-1.5-1.5,0.1-2
		c0.1,0,0.3-0.6,0.2-0.8c-0.4-0.6-0.8-1.5-1.4-1.8c-0.9-0.2-1.8-0.3-2.7-0.2c-0.1,0-0.2,0.1-0.2,0.2c0.1,0.1,0.3,0.2,0.4,0.3
		c0.1,0.1,0.3,0.2,0.4,0.2c-0.1,0.1-0.3,0.1-0.4,0.2c-1,0.1-2,0-2.5-1.1c-0.1-0.1-0.1-0.2-0.1-0.3c-0.4-0.5-1.2-1-1.1-1.5
		s0.9-0.9,1.2-1.5s0.5-1.2,1.1-0.2c0.4,0.6,0.9,0.7,0.9-0.3c0-0.1,0.1-0.1,0.1-0.1c1.4,0.9,1.9-0.4,2.7-1c0.1-0.1,0.6,0.2,0.6,0.3
		c0,0.5,0,1,0,1.5l1.7-0.2l0,0l0,0c-0.1-0.3-0.3-0.5-0.4-0.8c-0.6-0.8-0.3-1.4,0.1-2.2c0.5-1.1,1.6,0,2-0.6c0.4-0.6,0.7-1.3,0.9-2
		c0-0.1,0.8,0,0.9,0.2c0.3,0.6,0.5,1.3,0.5,2c0,0.4-0.5,0.8-0.8,1.1l0,0l0,0l0,0c0.1,0.1,0.3,0.1,0.3,0.1c-0.3,1.3,0.5,1.6,1.6,1.9
		c1,0.3,1,0.3,0.9-0.7c-0.2-1.1-0.2-2.2,0-3.2c0.3-1.1,0.8-2.2,1.3-3.3c0,0,0.4,0,0.4,0.1c0.3,1.7,0.6,3.3,0.9,5
		c0,0.3-0.1,0.8-0.2,0.8c-1.1,0.2-0.8,1.2-1.2,1.8c-0.8,1.7-0.3,3.7,1.2,4.8c0.2,0.1,0.5,0.1,0.8,0.1c0-0.2-0.1-0.4-0.1-0.7
		c-1.1-2.2-1.1-2.2,0.5-3.9c0.4-0.5,0.8-1,1.2-1.5c0.1,0.7,0.2,1.3,0.3,2c0.2,1.2,1,1.8,2.4,2c0.5,0.1,1.3,0.4,1.4,0.7
		c0.2,0.7-0.4,0.9-1.1,1.2c-0.4,0.1-0.8,0.6-1.2,1c0.3,0.4,0.6,0.9,1,1c1.9,0.7,2.7,2.3,3.4,4c0.3,0.7,0.7,1.3,1.6,1.1
		c0.4-0.1,0.8,0.2,1.2,0.2c0.3,0,0.6-0.1,0.8-0.3c-0.1-0.9,0.6-0.8,0.9-0.5s1.7-0.7,1.1,0.8c0,0.1,0.2,0.3,0.3,0.4
		c0.7,0.4,2.7-0.4,2.9-1.2c0.2-1.3,0.5-2.6,1-3.8c0.5-1,1.3-1.7,2.2-2.3c0.9-0.5,1.4-0.8,0.7-1.9c-0.3-0.7-0.3-1.5-0.2-2.2
		c0.1-0.8,1.1-1.4,0.3-2.3c0-0.2,0.1-0.3,0.3-0.4c0.2-0.1,0.5-0.1,0.7,0.1c0.2,0.1,0.2,0.4,0.3,0.6s0.3,0.7,0.5,1
		c0.4-0.3,0.8-0.7,1.1-1.1c0.1-0.4,0-0.8-0.3-1c-1.2-0.6-0.5-1,0.2-1.3c1-0.4,2.1-1.1,3.3-0.1c0.3,0.2,0.9,0,1.4,0.1
		c0.5,0.2,1.1,0.4,1.6,0.7c-0.3,0.3-0.6,0.7-1,1s-0.8,0.4-0.8,0.6c0.2,1.4-0.6,1.9-1.6,2.5c-0.6,0.3-0.8,1.2-1.1,1.9
		c-0.3,0.7-0.3,1.1-1,1.6c-0.4,0.3-0.3,1.5-0.5,2.3c0,0,0.1,0.1,0.1,0.1c0.8-0.1,1.6-0.1,2.3,0c0.8,0.1,1.6,0.7,1.6-0.8
		c0.2-0.2,0.5-0.2,0.8-0.2c0.4,0.1,0.7,0.5,1,0.7c0.6,0.3,0.7,0.6,0.3,1.1c-0.2,0.3-0.6,0.8-0.5,1s0.7,0.5,1,0.6
		c0.2,0.1,0.5,0.2,0.8,0.3c-0.3,0.2-0.7,0.3-1,0.3c-0.3,0-0.6-0.1-0.9-0.3c-0.8-0.3-1.2-0.1-1.1,0.8s-0.1,1.6-1.3,1.7
		c-0.4,0-0.8,0.7-1.3,1c-0.3,0.1-0.7,0.2-1,0.2c0.1-0.4,0.1-1,0.3-1.1c0.7-0.3,1.3-0.5,2-0.7c0.2-0.1,0.4-0.3,0.5-0.5
		c-0.2-0.1-0.5-0.1-0.7-0.1c-1.2,0.2-2.3,0.6-3.5-0.1c-0.9-0.5-1.6,0.3-1.3,1.4c0.3,0.6,0.2,1.3-0.3,1.8c-0.4,0.4-0.6,0.9-0.8,1.4
		c0.5,0.2,1,0.4,1.4,0.6c0.2,0.1,0.5,0.1,0.7,0.2c-0.7-0.5-0.5-1.1-0.1-1.6c0.2-0.2,0.7,0,1.1,0.1c1.4,0.6,3,0.6,4.5,0.1
		c0.3-0.1,0.7-0.1,1,0c-0.2,0.2-0.5,0.4-0.7,0.7c-0.7,0.6-2.2,0.3-2.4,1.7c-0.2,0.1-0.4,0.1-0.6,0c-0.5-0.2-1-0.5-1.5-0.7
		c1.4,1.9,1.3,2-1,2.5c-0.5,0.1-1.1,0.9-1.4,1.4c-0.2,0.6-0.2,1.2-0.1,1.8c0.3,1.8,0.7,3.6,1.2,5.4c0.2,0.6,0,0.6-0.5,0.5
		s-0.7-0.3-0.9-0.2c-0.3,0.3-0.5,0.6-0.7,1l0.9,0.5l0.6,0.2c-0.1,0.2-0.2,0.4-0.4,0.5c-1.3,0.5-1.7,1.3-0.9,2.6
		c0.2,0.3,0,0.8-0.1,1.1c-0.4-0.1-0.9-0.1-1.1-0.4c-0.7-0.8-0.9-1.9-0.5-2.9c0.5-1.5-0.1-2.2-1.6-2c-0.4,0.1-1,0.2-1.1,0
		c-0.3-0.5-0.4-1-0.3-1.6c0.3-0.7,0.7-1.3,1.2-1.8c0,0,0.3,0.1,0.4,0.2c0.3,0.1,0.7,0.2,1,0.3c0.2-0.5,0.4-1,0.4-1.6
		c-0.3-0.1-0.5-0.2-0.8-0.3c-0.2,0-0.5,0-0.7,0c0.1-1.9-0.5-0.9-1-0.2c-0.2,0.2-0.6,0.4-0.8,0.4c-1.1-0.5-2.3-1.1-3.4-1.7
		c-0.3-0.2-0.6-0.4-0.9-0.7c-0.1,0.5-0.1,1-0.1,1.5c0.1,0.3,0.5,0.5,0.7,0.8c0.6,0.9,0.3,1.2-0.8,1.5c-0.2,0.2-0.3,0.5-0.3,0.9
		c0.8,1.4,1.7,2.7,2.6,4c0.3,0.4,0.5,0.8,0.7,1.3c0.1,0.2,0,0.5-0.1,0.8c-0.1-0.2-0.4-0.4-0.4-0.6c-0.1-1-1.6-0.3-1.7-1.4
		c0-0.9-0.3-1.7-0.7-2.4c-0.4-0.5-1-0.9-1.6-1.2c-0.2-0.1-0.5,0.1-0.7,0.3c0.1,0.2,0.1,0.4,0.3,0.6
		C36.2,153.4,36.1,154.7,34.7,155.8L34.7,155.8z M61,167.4c-0.2,0.3-0.6,0.4-0.9,0.4c-0.6-0.2-1.2-0.4-1.7-0.6
		c-0.6-0.3-0.9-0.5-1.3,0.5c-0.5,1.2-1,2.6-2.8,2.7c-0.2,0-0.4,0.9-0.6,1.3c0.3,0,0.6,0,0.9,0c0.6-0.2,1.3,0.1,1.5,0.7
		c0,0.1,0.1,0.2,0.1,0.3c0,0.3-0.7,0.9-1.1,0.9c-1,0.1-1.1,0.5-0.9,1.4c0,0.4-0.1,0.7-0.3,1c-0.7,0.5-1.2,1.3-1.3,2.2
		c-0.1,1.3-0.8,1.5-2,0.8c-1.6-0.9-2-0.6-2.3,1.2c0,0.2,0,0.4-0.1,0.6c-0.1,0.1-0.2,0.3-0.4,0.4c-0.1-0.2-0.3-0.3-0.3-0.5
		c0-0.7,0.2-1.3-1-1.1c-0.4,0.1-1.1-0.5-1.4-1c-0.4-0.7-0.8-0.6-1.5-0.8c-1.3-0.3-2.7,0.2-3.5,1.3c-0.2,0.2-0.8,0.2-1.2,0.2
		c0-0.3,0-0.7,0.1-1c0.1-0.3,0.2-0.7,0.2-1.1c-0.3-2-0.3-2.1,1.4-2.4c0.2-0.1,0.4-0.1,0.6-0.2c-0.2-0.1-0.3-0.4-0.5-0.4
		c-1-0.5-1.9-0.9-2.9-1.4c-0.1,0.1-0.1,0.2-0.2,0.3c-0.1,0-0.3,0.1-0.4,0c-0.4-0.2-0.7-0.4-1.1-0.6c0.3,0,0.7-0.1,1-0.1l0.8-0.2
		c-0.2-0.2-0.3-0.3-0.5-0.5c-0.2-0.1-0.5-0.2-0.7-0.3c-0.5-0.5-0.8-1,0.2-1.3c0.6-0.2,1.2-0.6,1.8-0.8s1.2-0.5,1-1.4
		c0-0.2,0.3-0.6,0.4-0.6c1.7,0.2,2.9-1.2,4.5-1.6c0.2-0.2,0.2-0.5,0.1-0.8c-0.5-0.7-0.7-1.1,0.5-1c0.2,0,0.3,0,0.4-0.1
		c0.4-0.5,1.1-0.6,1.7-0.5c0.7,0.2,0.8,0.6,0.7,1.3c-0.2,1,0.4,1,1.2,1s1.8,0.1,2.7,0.1c0.4,0,0.8,0,1.2-0.2
		c0.6-0.4,0.9-0.4,1.4,0.1c0.3,0.2,0.7,0.3,1.1,0.2c1-0.3,1.9-0.4,2.9-0.6c1.3-0.3,1.6,0.6,2.2,1.1C61.2,166.6,61.2,167,61,167.4
		L61,167.4z M66.3,125c0,0-0.1,0.4-0.3,0.5c-0.3,0.1-0.6,0-0.8-0.2c-0.5-0.9-0.8-0.4-1.1,0.1c-0.2,0.4-0.4,0.8-0.7,1.1
		c-0.4,0.2-0.7,0.3-1.1,0.3c-0.1-0.3-0.2-0.7-0.2-1c0-0.8,0.1-1.5,0.3-2.3c0.1-0.3,0.1-1.2,0.8-0.3c0.3,0.3,1.2,0.2,1.9,0.3
		C65.8,123.7,66.5,123.8,66.3,125L66.3,125z M69.1,119.8c-0.2,0.1-0.4,0.1-0.6,0c-1.4-1-2.8,0-4.3-0.1c-0.3,0-0.6,0.2-0.7,0.5
		c-0.6,1.4-1.8,1.5-3,1.7c-0.2,0-0.5,0-0.7,0c0.2-0.2,0.3-0.4,0.5-0.6c0.1-0.1,0.1-0.4,0.1-0.4s-0.5-0.3-0.7-0.3
		c-0.9,0.2-1.8,0.6-2.6,0.8c-0.2,0-0.5-0.2-0.7-0.2c0.6-0.2-0.5-1.3,0.7-1.2c0.4,0.1,0.7,0.1,1.1,0c0.4-0.2,0.8-0.4,1.2-0.6
		c-0.3-0.4-0.6-0.7-0.9-1c-0.3-0.1-0.5,0-0.8,0.2c-0.6,0.7-1.4,1.3-2.3,0.7c-0.6-0.4-1.7,0.7-1.9-0.6c-0.1-0.5-0.1-1.3,0.2-1.6
		c0.5-0.5,1.2-0.8,1.9-0.7c0.9,0.2,0.2,0.8,0.1,1.3c-0.1,0.2-0.1,0.4-0.1,0.7c0.2,0,0.4,0.1,0.5,0c1-0.7,2-1.4,3-2.1
		c0.2-0.1,0.1-0.6,0.2-0.9c-0.3,0-0.6,0-0.9,0c-0.2,0-0.3,0.1-0.5,0.3c-0.6,0.6-1,0.8-1.4-0.3c-0.3-0.6-0.7-1.2-1.2-1.7
		c0.2-0.9,1.5-3.1,2.1-3.2c0.3,0,0.8,0.3,0.8,0.5c-0.1,1.4,0.8,0.9,1.4,0.8c0.4-0.1,0.8-0.2,1.3-0.2c0.7,0.1,0.7-0.3,0.7-0.9
		c0.1-1.3,1.2-2.3,2.5-2.4c0.6,0,1.2,0,1.8,0c1.9,0,3.7-1.1,4.5-2.9c0-0.3-0.1-0.6-0.3-0.8c-0.1-0.1-0.5-0.1-0.7-0.1
		c0.3-0.1,0.5-0.3,0.8-0.4c0.4-0.2,0.9-0.4,1.3-0.6c0.7-0.3,0.8-0.5,0-0.7c0-0.2,0-0.6,0.2-0.7c1-0.5,2.1-0.9,3.2-1.3
		c0.5-0.2,0.9-0.4,1.3-0.6c0.5-0.3,1-1.1,1,0.4c0,0.9,1.2,1,2,1.2c0.4,0.1,0.8,0.4,1.2,0.6c-0.2,0.4-0.5,0.8-0.9,1.1
		c-0.9,0.6-1.9,1-2.8,1.5c-0.2,0.1-0.4,0.6-0.4,0.7c0.7,1.3-0.3,1.7-1.2,2s-1.6,1.2-2.8,1.2c-0.5,0-1.1,1.4-1.6,2.1
		c0.2,0.1,0.3,0.2,0.5,0.2c0.6,0,1,0.4,1,1c0,0.2,0,0.4-0.1,0.5c-0.9,1.2-0.7,3.2-2.8,3.4c-0.4,0-0.9,0.6-1.2,1
		c-0.5,0.6-0.8,1.2,0.5,1.3c0.3,0,0.6,0.5,0.8,0.8C69.4,119.4,69.3,119.6,69.1,119.8L69.1,119.8z M83.8,137.1
		c-0.1,0.4-0.3,0.8-0.5,1.2c-0.3,0.7-0.7,1-1.6,0.6c-1.3-0.5-1.3-0.4-1.3,1.1c0.2,2.1-1.4,3.9-3.4,4c-0.1,0-0.2,0-0.3,0
		c-0.7,0-1.5,0-1.4-1.2c0-0.4-0.4-0.9-0.7-1.2s-0.9-0.5-0.9-0.7c0.1-0.5,0.4-1,0.7-1.4c0.2-0.2,0.3-0.4,0.6-0.6c-0.3,0-0.6,0-0.9,0
		c-1.4,0.2-2.8,0.5-4.1-0.3c-0.2-0.2-0.5-0.4-0.7-0.6l0.8-0.2c0.3,0,0.5,0,0.8,0c0.3,0.1,0.6,0.1,0.8,0.1c0.5-0.1,1-0.2,1.4-0.4
		c-0.1-0.5-0.2-0.9-0.4-1.4c-0.1-0.2-0.2-0.4-0.3-0.6c0.2,0,0.4,0,0.7,0.1c3,0.9,6.3,0.9,9.3,0c0.5-0.1,1-0.1,1.5,0
		C83.9,136.2,83.9,136.7,83.8,137.1z M102.4,144.9c-0.7,0.3-1.3,0.8-2,1.1c-0.3,0.2-0.7,0.2-1.1,0.1c-1.4-0.7-1.5-1-0.5-2.3
		c1.3-1.6,1.5-1.7,3.2-0.7c0.4,0.3,0.7,0.8,1.3,1.4C103.1,144.6,102.7,144.8,102.4,144.9L102.4,144.9z M100.2,134.1
		c1.1-0.1,1.7,0.4,1.7,1.4s-0.9,2.1-1.6,1.8c-0.7-0.3-1.3-0.9-1.7-1.6C98.3,135.1,99.3,134.1,100.2,134.1L100.2,134.1z M114.4,130.6
		c-0.3,0.1-0.5,0.3-0.7,0.4c-0.5,0.6-0.9,1.4-1.9,0.9c-0.4,0-0.7,0.2-0.9,0.4c-0.3,0.9-0.6,1.6-1.8,1.3c0,0-0.2,0.2-0.2,0.2
		c0.3,1.5-0.9,0.6-1.3,0.9c-1,0.6-1.6,0.6-1.8-0.9c0-0.3-0.6-0.6-1-0.8s-0.9-0.3-1.3-0.6c-1.3-0.8-1.2-1,0.1-1.7
		c0.4-0.2,0.8-0.7,0.8-1c0-0.5-0.3-0.9-0.7-1.1c-0.5-0.1-1,0-1.5,0.3c-0.4,0.1-0.6,0.5-0.9,0.8c-0.1-0.4-0.2-0.9-0.3-1.3
		c0.1,0,0.3-0.1,0.4-0.1c-0.2-0.6-0.4-1.3-0.7-2c-0.6-1.3-0.5-1.5,0.8-2c0.7-0.3,1.4-0.7,2-1.1c0.1-0.1,0.1-0.4,0.1-0.7
		c-0.2,0.1-0.5,0-0.6,0.2c-1,1.2-2,0.9-3,0c-0.4-0.4-0.5-0.4-0.7,0.1s-0.5,1.4-0.8,2c-0.3,0.8-0.5,1.8-1.9,1.3
		c-0.2-0.1-0.7,0.4-1,0.6s-0.6,0.6-0.9,0.8c-0.5,0.2-0.9,0.5-1.4,0.6l0.8-1.4c0.1-0.1,0.3-0.3,0.3-0.4c-0.1-0.9-2.8-3.1-3.7-3
		c-0.2,0.1-0.4,0.3-0.4,0.6c0.1,0.4,0.3,0.8,0.5,1.1c0.5,0.6,0.9,1.1,0.2,1.7c-0.3,0.2-0.7,0.4-1.1,0.5c-0.3-0.6-0.8-1.3-0.7-1.7
		c0.4-1.8-0.8-2.2-1.9-2.9c-0.7-0.5-1.2-1.1-1.7-1.7c-0.1-0.1,0.5-1,0.6-1c1.6,0.7,2.6-0.7,4-1c0.7-0.1,1.3-0.3,2-0.5
		c0.7-0.1,1.3-0.3,1.9-0.6c0.8-0.4,0.9-0.3,1.1,0.4c0.3,0.9,0.8,1.6,1.9,1c0.2-0.1,0.4-0.1,0.7-0.1c-0.1,0.3-0.1,0.6-0.2,0.8
		c0,0.1-0.1,0.1-0.1,0.2c-0.3,0.4-1.2,0.8-0.4,1.3s1.4-0.2,1.5-0.9c0.3-1.2,0.8-1,1.9-1c1.4,0,3.4,0.9,4.5-0.9
		c0.4-0.6,0.5-0.2,0.7,0.2c0.4,0.8,0.9,1.6,1.4,2.3c0.8,1.1,0.5,1.9-0.8,2.3c-1,0.3-2.1,0.7-3.1,1.1c-0.1,0-0.2,0.5-0.1,0.7
		c0.1,0.3,0.3,0.6,0.5,0.9c0.8,1.6,1.4,1.8,2.9,0.8c0.1-0.1,0.3-0.3,0.4-0.3c0.6,0,1.1,0,1.7,0c-0.2-0.5-0.5-1.1-0.4-1.6
		c0.1-0.9,0.9-0.3,1.3-0.3c0.3,0,0.7,0,1,0c-0.2,0.3-0.4,0.5-0.6,0.8c-0.5,0.7-0.2,1.3,0.6,1.2s1,0.3,1.3,0.8c0.6,1,1.6,1.8,2.7,2
		c0.2,0,0.4,0.3,0.6,0.4L114.4,130.6z M115.3,125.7c-0.1,1-0.2,2-0.3,3c0,0.1-0.2,0.2-0.2,0.2c-0.5-0.4-0.9-0.8-1.3-1.4
		c-0.1-0.4,0-0.9,0.3-1.2c0.6-0.5,0.7-0.6,0.1-0.8c-1.3-0.4-0.5-1-0.3-1.5c0.2-0.3,0.5-0.5,0.9-0.5c0.1,0,0.4,0.5,0.5,0.7
		c0.2,0.5,0.4,1,0.6,1.5L115.3,125.7z M-41.2,190.9c-0.6-2.6-3.1-2.8-4.9-3.9c-0.5-0.3-0.8-0.1-0.6,0.6c0.1,0.3,0.2,0.6,0.3,0.9
		c0.2,0.7,0,0.8-0.5,0.8v1.9h5.7C-41.1,191-41.1,190.9-41.2,190.9z"/>
	<path class="st2" d="M20.1,78.3c0.1-0.2,0.2-0.6,0.4-0.7c0.3,0,0.6,0,0.8,0.2c0.9,0.6,0.8,1.8-0.1,2.9c-0.4,0.4-0.7,0.5-0.3,1.2
		s-0.6,1.1-1.3,1.1c-0.8,0-1.6-0.2-2.2-0.7c-0.8-0.8-1.8-1.4-2.8-1.9c-0.6-0.5-1.1-1.1-1.4-1.9c-0.2-0.5-0.3-1-0.3-1.5
		c0.3,0.3,0.5,0.7,0.9,0.8c0.7,0.2,1,1.5,2,0.8c0.2,0.3,0.4,0.6,0.7,0.8c0.4,0.2,0.7,0.4,1.1,0.6c0.2-0.3,0.3-0.6,0.4-0.9
		c0.3-1.1,0.5-1.2,1.4-0.4l0.8,0.7l0.2-1L20.1,78.3z"/>
	<path class="st2" d="M109.1,176.1c0.1-1.6,0.1-3.2,0.2-4.9c0-0.7,0.3-1.1,1-0.6s0.9,0.3,1-0.4c0.1-0.3,0.3-0.6,0.6-0.8
		c0.3-0.1,0.6-0.2,0.8-0.2c0,0.3,0,0.6-0.1,0.8c-0.4,0.6-0.8,1,0.4,1.1c0.3,0,0.7,1.2,0.6,1.9c0,0.8-0.6,1.4-1.4,1.4c0,0,0,0,0,0
		c-0.5,0.1-1.1,0.4-1.4,0.8c-0.5,0.4-0.8,0.9-1.2,1.4c-0.2,0.2-0.4,0.3-0.6,0.4l-0.3-0.8L109.1,176.1z"/>
	<path class="st2" d="M147.3,125.1l-1.4,3.8c-0.1,0.3-0.4,0.7-0.4,1c0.1,0.8-0.1,1.2-0.9,1.3c-0.7,0.1-1.3-0.4-1.4-1c0,0,0,0,0-0.1
		c-0.2-0.8-0.3-1.5-0.5-2.3c-0.2-0.8,0.5-1,1-1.2c0.8-0.3,1.8-0.2,1.7-1.6c0-0.3,0.7-0.6,1-0.9L147.3,125.1z"/>
	<path class="st2" d="M163.5,133.5c-1.1,1.1-2,2-3,2.9c-0.3,0-0.7-0.1-0.9-0.3c-0.1-0.4-0.3-1.1,0-1.3c0.4-0.4,0.7-0.5,0.3-1.1
		s-0.2-1,0.4-1.4s0.4-1.4,1.2-0.9C162.2,132,162.9,132.7,163.5,133.5z"/>
	<path class="st2" d="M111.5,0.8c-0.1,0.2-0.2,0.4-0.3,0.6c-0.1-0.2-0.2-0.5-0.3-0.7s-0.2-0.5-0.4-0.7h0.8
		C111.4,0.2,111.5,0.5,111.5,0.8z"/>
	<path class="st2" d="M112,164.6c0.2,0.3,0.3,0.6,0.3,0.9c0,0.4-0.4,0.7-0.4,1c0,0.5,0,1.1,0,1.6c-0.6-0.3-1.1-0.6-1.7-0.9
		c-0.4-0.4-0.9-0.9-1.2-1.3c0.6-0.3,1.1-0.7,1.7-0.9C111.2,164.8,111.6,164.7,112,164.6z"/>
	<path class="st2" d="M42.1,141.1c-0.6,0.2-1.3,0.7-1.5,0.6c-1.4-1.3-3.2-1.3-4.9-1.6c-0.8-0.1-1-0.6-0.7-1.1
		c0.3-0.5,0.9-0.8,1.4-1.2c0.1,0.3,0.2,0.5,0.3,0.7c0.3,0.4,0.6,0.9,1,1.1c0.2,0.1,0.9-0.4,1-0.7c0.2-0.6,0.3-0.7,0.8-0.3
		s1.2,1,1.8,1.5C41.6,140.4,41.9,140.7,42.1,141.1z"/>
	<path class="st2" d="M21.1,149.9c0.5-0.4,1-0.7,1.5-1.1c0.3-0.2,0.6-0.3,0.9-0.4c0.1,0.3,0.1,0.7,0.1,1c-0.5,1.2-1.1,2.4-1.7,3.6
		c-0.2,0.2-0.4,0.2-0.6,0.2c-0.3-0.2-0.7-0.7-0.7-0.7c0.6-0.7-0.1-0.9-0.4-1.4c-0.3-0.3-0.2-0.9-0.2-1.4c0.3-0.1,0.6-0.1,0.9-0.1
		L21.1,149.9z"/>
	<path class="st2" d="M15.8,123.7c0.5-0.2,0.9-0.7,1.3,0.1c0.2,0.3,0.5,0.5,0.8,0.7c0.1-0.4,0.2-0.8,0.2-1.3c-0.2-0.9,0-1.6,1-1.8
		c-0.7,1.1-0.1,1.9,0.4,2.8c0.1,0.4,0.2,0.8,0.2,1.2c-0.6-0.5-0.8,1.6-1.5,0.2c-0.1-0.2-0.7,0-1-0.1
		C16.4,125.5,15.7,124.6,15.8,123.7z"/>
</g>
<g>
	<path class="st3" d="M178.1,93.3c0.1,36.7-14.7,72-40.9,97.7H-46.8V0h188.3C165.1,25.3,178.2,58.7,178.1,93.3z"/>
	<path class="st4" d="M-40.5,0L-40.5,0c0,0,0.4,0.3,0.4,0.2c0.1-0.1,0.2-0.2,0.3-0.2H-40.5z M137.8,112c-0.4-0.4-0.9-0.7-0.8-1.4
		c0-0.2-0.9-0.9-1-0.8c-0.6,0.3-0.8,1-1.7,0.3c-1.3-1-0.6,1-1.3,1c-0.1,0-0.3,0-0.3-0.1c-0.4-0.5-1.5-0.1-1.3-1.5
		c0.2-1-0.4-2-0.6-3.1c-0.1-0.6-0.1-1.3,0-1.9c0.3,0.4,0.6,0.9,0.9,1.4s0.8,1.3,1.4,0.7c0.6-0.6,1-1.4,1-2.2
		c-0.1-0.8-0.8-1.4-1.6-1.4c0,0-0.1,0-0.1,0c-0.3,0-0.5-0.2-0.7-0.4c0.4-1.3-0.9-0.6-1.3-1c-0.6-0.6-1.1-0.9-1.3,0.3
		c-0.7,0.1-1.3,0.1-2,0.1c-0.3,0.1-0.7,0.2-1,0.3c0.4,0.7-0.4,2.1,1.3,2c0.2,0,0.5,0.3,0.5,0.3c-0.3,0.7-0.4,1.3,0.6,1.5
		c0,1.7,0.1,3.4,0,5.1c0,0.5-0.3,1.2-0.6,1.3c-0.6,0.1-1.3-0.1-1.9-0.3c-0.3-0.1-0.6-0.8-0.7-0.8c-1.4,0.4-1-0.4-0.8-1.1
		s0.4-1.3-0.4-1.6c-0.6-0.2-1.5,0.5-1.7,1.2c0,0.3-0.1,0.5-0.2,0.8c-0.2-0.2-0.3-0.5-0.4-0.8c-0.1-0.5-0.1-1,0-1.4
		c0.1-1.1,0.3-2.2,0.3-3.3c0-0.9,0-0.9-0.9-0.4c-0.3,0.2-0.7,0.3-1.1,0.3c-1.3,0.1-2.5,0.8-3.1,2c-0.4,0.6-1,1.1-1.6,1.4
		c-1.3,0.7-2.7,3.1-2.1,4.3c0.9,1.8-0.3,1.1-1,1.2l-1.5,0.2l-1,0.1c0.1-0.3,0.2-0.7,0.3-1c0.1-0.2,0.3-0.4,0.4-0.6
		c0.7-1.3,1.4-2.7,2-4c0.2-0.5,0-0.8,0.8-0.5c0.6,0.2,1.8-0.6,2.3-1.3c0.6-0.8,0.3-2.2,1.5-2.9c0.1-0.1-0.1-1,0.7-1
		c0.1,0,0.2-0.4,0.3-0.6c0.2-0.6,0.3-1.2,0.6-1.8c0.5-1,1.1-1.9,1.5-2.9c0.1-0.4,0.1-0.9-0.1-1.3c-0.4,0.1-0.8,0.1-1.1,0.4
		c-1,0.8-1.9,1.7-2.8,2.6c-0.1,0.1-0.3,0.2-0.4,0.3c0-0.2-0.2-0.5-0.1-0.6c0.5-0.7,1-1.4,1.6-2c0.4-0.5,1-1,1-1.4
		c0-0.9-0.2-1.8-0.6-2.6c-0.1-0.3-0.7-0.5-1.2-0.7s-1.1-0.2-1.6-0.4c-0.3-0.1-0.4-0.4-0.6-0.6c0.3-0.1,0.6-0.1,0.9-0.2
		c0.3,0,0.7,0,1,0c0-0.6-0.1-1.2-0.2-1.8c-0.3,0-0.7,0-1,0.1c-0.2,0-0.5,0.1-0.7,0.2c0.1-0.3,0.1-0.7,0.3-0.8c1.3-0.6,1.3-2,2.1-2.9
		c0.9-0.8,1-2.2,0.3-3.2c-0.8-0.8-1.8-1.5-2.9-2c-0.1-0.1-0.5,0-0.7,0.1c-1.5,0.8-2.2,2.5-1.7,4.1c0.1,1.3,1,2.3,2.3,2.6
		c0.2,0,0.3,0.3,0.4,0.4c-0.2,0.1-0.4,0.2-0.6,0.3c-1.2-0.1-2.3-1-2.6-2.2c-0.3-1.3-0.8-2.6-1.5-3.8c-1.1-1.6-1.2-1.4-0.2-3.1
		c0.1-0.3,0.1-0.6,0-0.9c-0.1-0.2-0.7-0.4-0.9-0.3c-1.1,1-1.9,0.3-2.6-0.4c-0.3-0.3-0.6-0.7-0.8-1.2c0.4-0.3,0.9-0.6,1.3-0.8
		l1.1-0.7c-0.3-0.4-0.6-0.7-0.9-1.1c-1.1-0.9-2.8-0.3-4-1.4c-0.1-0.1-0.4,0-0.5,0.1c-0.3,1.3-1.3,0.3-1.9,0.6
		c-1,0.5-1.6-0.2-2.2-0.7c-1-0.8-1.6-0.6-1.9,0.7c-0.1,0.3-0.2,0.9-0.4,0.9c-1.3,0.3-1,0.8-0.2,1.4c0.2,0.1,0.3,0.4,0.4,0.6
		c-0.3,0-0.6,0-0.8,0.1c-0.6,0.3-1.1,0.6-1.7,0.9c0.2,0.4,0.5,0.8,0.7,1.2s0.5,0.4,0.6,0.7c0.2,0.6,0.4,1.2,0.5,1.8
		c0,0.1-0.8,0.5-0.9,0.4c-0.5-0.5-1-1-1.4-1.5c-0.1-0.1,0-0.3,0-0.4c-0.2-0.4-0.5-0.9-0.7-1.4c-0.5,0.4-1,0.7-1.5,1.2
		c-1.3,1.2-2.5,2.4-3.7,3.6c-0.1,0.1-0.2,0-0.4,0.1c-1.6,0.5-3.3,0-4.4-1.1c-1.5-1.4-3.6-1-5.3-1.8c-0.5-0.3-1.3,0.1-2,0.3
		c-1.6,0.4-3.4,0.4-4.6,1.9c-0.3,0.3-0.9,0.3-1.4,0.5s-0.8,0.3-0.8,0.5c0.1,0.4,0.2,0.7,0.5,0.9c0.2,0.2,0.5,0.4,0.8,0.5
		c1.1,0.6,2.3,1.1,2.4,2.4c0,1.2-0.2,2.4-0.6,3.5c-0.1,0.2-0.6,0.4-0.9,0.5c-0.8,0.2-1.7,0.2-1.6,1.4c0,0.1-0.5,0.4-0.7,0.3
		c-1-0.3-1.9-0.7-2.8-1.2c-0.7-0.4-1.1-0.4-1.6,0.1c-1,1.3-3.2,2-2.6,4.3c0,0.1,0,0.3-0.1,0.3c-1.7,0.6-0.5,1.1-0.1,1.8
		c0.2,0.3,0.2,0.9,0,1c-1.1,0.6-2.3,1.1-3.4,1.7c-0.2,0.1-0.3,0.6-0.3,0.9c-0.1,0.8-0.1,1.5-1.2,1.7c-1.3,0.2-1.6,1-1.4,2.2
		c0.1,0.4,0.1,0.8,0.2,1.2c0.1,1.6,0.1,1.7-1.4,1.4c-0.7-0.1-0.9,0-0.9,0.7c0,0.3,0,0.7-0.2,1c0,0.1-0.5,0-0.8,0c0.2-1-1-2.2-0.1-3
		c1.2-1.1,0.8-1.9-0.1-2.9c-0.2-0.3-0.4-0.6-0.5-1c-0.8-1.7-1.3-1.8-2.7-0.6c-0.2,0.1-0.4,0.3-0.6,0.4c-0.1-0.3-0.1-0.5-0.1-0.8
		c0.1-0.3,0.4-0.9,0.3-1c-0.9-0.7-0.3-1.4,0-2.2c0.1-0.3,0.4-0.8,0.2-1c-0.5-1.1-1.1-2.2-1.8-3.3c-0.3-0.4-1.2-0.4-1.8-0.6
		c-0.1,0.4-0.2,0.7-0.2,1.1c-0.2,0.5-0.2,1.1-0.3,1.6c0,0.8-0.4,1.6-1,2.2c-1.1,1.2-2.2,0-3.2,0.5c-0.1-0.2-0.3-0.4-0.2-0.5
		c0.8-1.6,0.8-3.6-0.2-5.1c-0.4-0.4-0.4-1,0-1.4c0.1-0.1,0.3-0.2,0.5-0.3c0.3-0.1,0.6-0.4,0.8-0.7c0.1-0.4,0.2-0.8,0.2-1.2
		c-0.3,0.2-0.7,0.4-1,0.6c-0.3,0.3-0.7,0.5-1,0.7c-0.1,0-0.5-0.3-0.5-0.4c0.6-1.9,1.7-3.6,1-5.7c0-0.2,0.2-0.4,0.3-0.6
		c1.1-1.5,0.8-3.6-0.7-4.7c0,0,0,0,0,0c-1.2-1-2.9-1.7-3.1-3.5c0-0.1-0.3-0.2-0.4-0.3c-0.1,0.2-0.1,0.3-0.2,0.5
		c-0.1,0.4-0.2,1-0.4,1.1c-2.6,0.9-4.2,0-4.7-2.7c0-0.2,0-0.5,0-0.7c0-0.2-0.1-0.5-0.2-0.7c-0.2,0.1-0.4,0.3-0.5,0.4
		c-0.5,0.9-0.2,2.4-1.8,2.5c0.2,1.4-1.1,1.4-1.8,1.9c-1.1,0.8-1.7,2.3-0.9,3.3c0.4,0.4,0.4,1.1,0,1.5c0,0-0.1,0.1-0.1,0.1
		c-0.3,0.3-0.4,0.7-0.7,1s-0.8,0.8-1.2,0.8c-1.1-0.3-2.1,0.4-2.4,1.4c-0.3,0.6-1.1,0.9-1.8,0.7c-0.2,0-0.3,0.1-0.5,0.2
		c-0.4,0.5-0.7,0.8-1.3,0.2c-0.4-0.2-0.8-0.1-1.2,0.1c-1,1.1-2.3,1.2-3.7,1.4c-0.3,0-0.6-0.1-0.9-0.2c0.2-0.2,0.3-0.5,0.5-0.6
		c1-0.5,1.3-1,0.1-1.6c-0.1-0.1-0.2-0.6-0.1-0.8c0.6-1.2,3.3-2.3,4.7-2c0.3,0,0.6,0.1,0.8,0.1c0-0.3-0.1-0.6-0.3-0.8
		c-0.3-0.3-0.7-0.6-1.1-0.8c-0.8-0.5-1.6-1.1-2.3-1.8c-1-1.2-1.2-1.9-0.8-2.8c0-0.1,0.1-0.2,0.1-0.2c0.3-0.4,0.7-0.8,1.1-1.1
		c0.2-0.2,0.4-0.4,0.6-0.6c0.4-0.6,0.8-1.1-0.3-1.4s-1.2-0.6-0.2-1.2c0.4-0.3,0.8-0.8,1.2-1.1c0.4-0.1,0.7-0.6,0.6-1
		c0-0.1-0.1-0.3-0.2-0.4c-0.4-0.6-0.9-1.1-1.4-1.6c-0.4-0.3-0.9-0.6-1.5-0.8c-1.1-0.4-0.5-1.4-0.8-2.1c-0.4-0.9-1.8,0.1-2.1-1.1
		c-0.2-0.7-0.7-1.4-0.7-2.1c0-1.9-1.2-2.5-2.7-3c-0.6-0.1-1.3-0.2-1.9-0.3C5,59.4,5.2,59.2,5.3,59c1.1-1,1.1-1.4-0.1-2.2
		c-1.1-0.4-2.4-0.3-3.4,0.3c-0.6,0.4-1.2,0.8-1.8,1.1c-0.3,0.1-0.7,0-1,0c0.2-0.3,0.4-0.6,0.6-0.7c1.1-0.2,2-1.2,2-2.3
		c0.1-0.9,0.9-1.5,2-1.6c1.1-0.1,2.2-0.5,3.1-1c0.6-0.4,1.4-0.4,2,0c0.4,0.2,0.7,0.5,1.1,0.7c0.6,0.2,1.4,0.4,0.8-0.8
		c0-0.1,0.1-0.5,0.3-0.5c1-0.4,1.5,0.3,2.2,0.9c0.3,0.3,0.9,0.2,1.4,0.3c0-0.5,0.1-1.1-0.1-1.3c-1.2-1,0.5-1.7,0.1-2.6
		c0.1,0,0.3-0.1,0.4-0.1c0.6,0.6,1,0.4,1.3-0.2s-0.2-0.8-0.8-0.9c-0.2,0-0.3-0.3-0.4-0.4c0.2-0.1,0.3-0.3,0.5-0.3
		c0.4,0,0.7,0,1.1,0.2c1.1,0.6,1.1-0.1,1.1-0.8c0-0.8,0-1.6,0.1-2.4c0.2-0.8,0.4-1.6,0.8-2.4c0.1-0.4,0.3-0.7,0.6-0.9
		c0.7-0.3,1.6-1.3,1.5-2c0-0.2-0.1-0.4-0.2-0.7c-0.2,0.2-0.4,0.3-0.5,0.5c-0.4,1.3-1.5,1.1-2.4,1.3c-0.2,0-0.4-0.2-0.6-0.3
		c0.1-0.2,0.3-0.4,0.4-0.5c0.1-0.1,0.2-0.1,0.3-0.2c2.4-1.5,2.3-3.9-0.1-5.2c-0.2-0.1-0.3-0.1-0.5-0.2c-1.2-0.6,0.5-1,0.2-1.6
		c-0.1-0.2,0.5-0.7,0.8-1c0.2,0.2,0.5,0.4,0.5,0.7c0,0.5-0.1,1-0.1,1.4c0,0.1,0.2,0.3,0.3,0.4c0.4-0.5,0.8-1,1.1-1.6
		s-0.3-0.5-0.5-0.8c-0.3-0.5-0.8-1.3-0.6-1.6c0.8-1.2,0.1-1.9-0.6-2.7c-0.3-0.3-0.1-1.2,0.1-1.6s0.9-0.4,1.4-0.6l-1.4-0.8
		c-0.1-0.1-0.2-0.1-0.3-0.2c-0.2-0.2-0.3-0.3-0.5-0.5c0.2-0.1,0.4-0.2,0.6-0.2c0.6,0,1,0,1-0.9c0.1-0.7,0.5-1.3,1-1.7
		c0.6-0.3,1.3-0.6,2-0.7c-0.1,0.5-0.2,1-0.3,1.5c-0.1,0.4-0.3,0.9-0.2,1c0.4,0.2,0.9,0.4,1.3,0.4c0.3-0.1,0.6-0.2,0.9-0.3
		c0.6,1.3,2.1,1,2.9,1.8c0.8,0.8,1.7,0.5,2.7,0.2c1-0.4,2-0.5,3-0.3c0.7,0.1,1.4,0.9,1.1-0.6c0-0.1,0.1-0.2,0.2-0.3
		c1-0.4,0.6-0.6,0-1.1c-1.2-0.9-1.2-1,0.2-1.6c0.2,0,0.5-0.2,0.7-0.3c0.6-0.5,1-1.2,1.3-1.9c0.2-0.9-0.9-0.9-1.4-1.4
		s-1.3-1.2-0.1-2.1c0.4-0.5,0.5-1.1,0.4-1.6c-0.4-2.4,0.4-3.6,2.7-4c0.4-0.1,0.8-0.3,1.2-0.5c0.7-0.3,1-0.6,0.2-1.1
		c-0.6-0.4-0.4-0.8,0-1.2s3.6-1.1,3.8-0.6c0.4,1,0.8,0.4,1.3,0.2c1.5-0.6,3.1-1.1,4.6-1.8c0.7-0.2,1.4-0.6,2-1.1
		c0.8-0.9,1.3-1.5,2.3-0.2C53,3,53.3,3,53.5,3.1c0-0.2,0.2-0.5,0.1-0.6c-0.7-0.8-0.2-0.7,0.4-1c0.7-0.2,1.3-0.8,1.6-1.5h-91.7
		l-0.9,0.5c-0.1-0.2-0.1-0.3-0.1-0.5h-2c0.2,0.2,0.3,0.7,0.6,0.9c0.7,0.3,0.6,0.7,0.2,1.3C-40,4.3-41,6.8-41.5,9.5
		c-0.2,0.9-0.5,1.8-0.9,2.6c-0.2,0.3-0.6,0.5-0.9,0.8c0-0.3,0-0.7-0.1-1c0.1,0,0.1,0,0.2-0.1c-0.4-0.9-0.7-1.9-1.1-2.7
		c-0.4-0.9-0.8-1.7,0.3-2.5c0.6-0.5,0.7-1.5,0.2-2.1c-0.1-0.1-0.2-0.2-0.3-0.3c-0.2-0.1-0.3-0.3-0.4-0.5c-0.2-0.8,1-2.9,1.8-3.1
		c0.3-0.1,0.7-0.3,1-0.5h-5.2v18.3c0.9-0.5,2.1-0.7,3-1.3c0.1-0.1,0.4,0.2,0.7,0.4c-0.5,0.6-0.8,1.3-1.2,1.4
		c-0.8,0.2-0.9,0.6-1.1,1.2c-0.2,0.6-0.7,1.1-1.4,1.3v152.4l0.3,0.4c1,1.6,2.2,3.1,3.4,4.5c0.8,0.8,1.9,1.4,3,1.6
		c1.6,0.1,3.2,0.1,4.8-0.1c1.4-0.1,2.7-0.4,3-2.1c0-0.2,0.3-0.3,0.5-0.4c0.2,0.2,0.3,0.5,0.4,0.8c0,0.1-0.2,0.3-0.3,0.4
		c-0.6,0.8-0.5,1.4,0.6,1.5c0.8,0.1,1.6,0.1,1.2,1.3c0,0.1,0.1,0.3,0.2,0.4c0.6,0.4,1.2,0.7,1.9,0.9c0.7,0.2,1.3,0.4,1,1.1
		c-0.3,0.6-0.7,1-1.3,1.3c-0.5,0.2-1.1,0.1-1.6,0.2c-0.3,0.1-0.6,0.4-0.8,0.7c0.2,0.2,0.5,0.4,0.8,0.6c1.6,0.8,3.1-0.3,4.6-0.2
		c0-0.3,0.2-0.8,0-1c-0.6-1-0.6-1.6,0.6-1.9c0.3-0.1,0.5-0.4,0.7-0.5s0.7-0.4,0.9-0.3s0.3,0.6,0.4,0.9s0,1,0.3,1.1
		c1.1,0.8,0.3,1.1-0.3,1.5c-0.4,0.3-0.7,0.7-1.1,1.1l1.3,0.6c0.2,0.1,0.5,0.2,0.7,0.3c0.1,0.1,0.2,0.3,0.3,0.4
		c-0.1,0-0.2,0.1-0.3,0.1c-0.9-0.3-0.7,0.6-1.1,0.9s-0.4,0.7-0.3,0.9h127.6c0-0.1,0.1-0.1,0.1-0.2c0.9-1.5,3-1.4,3.7-3.2
		c0.4-1,1.4-1.7,1.9-2.6c0.2-0.4-0.2-1.5,0-1.6c1.2-0.7,0.3-1.5,0.1-2.2c-0.1-0.6-0.8-1-1.4-0.9c-0.2,0.1-0.5,0.2-0.6,0.4
		c-1.9,1.7-4.8,1.7-6.8,0c-0.4-0.4-0.6-0.8,0.2-1c0.7-0.2,1.3-0.7,2-0.8c0.7-0.2,1.4-1.1,2.4-0.4c0.4,0.1,0.7,0.1,1.1-0.1
		c0.3-0.2,0.4-0.6,0.6-1c-0.3-0.2-0.7-0.2-1-0.3c-0.5,0-0.9,0.3-1.4,0.4c-0.3,0-0.6-0.1-0.7-0.4c0-0.3,0-0.6,0.2-0.8
		c0.2-0.3,0.6-0.7,0.8-0.7c1,0.2,1.3-0.3,1.5-1.1c0-0.1,0.2-0.3,0.3-0.4c0,0.2,0,0.3,0.1,0.5c0.2,0.4,0.5,0.9,0.7,1.3
		c0.2-0.2,0.5-0.3,0.7-0.5c0.4-0.3,0.9-0.6,1.3-0.9c0.1-0.1-0.4-0.9-0.7-1.3l-0.4-0.5l0,0c-0.3-0.3-0.6-0.7-0.9-1.1
		c-0.6-0.8-1-1.8-1.6-2.6c-0.3-0.4-0.7-0.6-1.1-0.6c-1,0-0.6-0.4-0.3-0.9s0.8-1,0.8-1.4c-0.1-1-0.3-2.5-0.8-2.8
		c-1.2-0.5-0.5-2-1.6-2.3c-0.2-0.1-0.5-0.3-0.7-0.2c-0.6,0.1-0.9,0-1.1-0.8c-0.2-0.7-1-1-1.7-0.8c-0.1,0-0.2,0.1-0.3,0.2
		c-0.3,0.3-2.2,0.1-0.7,1.4c0.1,0.1-0.1,0.5-0.3,0.6c-0.7,0-1.3,0-2-0.2c-0.3,0-0.6,0-0.9,0l-1.2-0.1c0.1-0.5,0.2-1.3,0.4-1.4
		c1.5-0.3,1.2-1.6,1.6-2.5s0.8-1.6,1.8-1.5c0.9,0.1,1.1-0.1,0.8-1c-0.1-0.2,0-0.5,0.1-0.7c1-0.9,0.8-2.1,0.8-3.3
		c0-0.3,0.6-0.9,1-1.1s1.1,0.4,1.1,0.6c0.2,1.6,0.9,0.9,1.5,0.4c0.2-0.1,0.5-0.4,0.6-0.4c1.6,0.6,2-0.7,2.4-1.6
		c0.6-1.4,2.2-1.4,2.9-2.4c0.1-0.1,0.4-0.1,0.5,0c0.9,0.4,1.8,0.9,2.6,1.4c0.2,0.1,0.2,0.5,0.2,0.8c-1.2,0.3-0.3,1-0.1,1.2
		c1.5,0.9,1,2.3,1.1,3.5c0,0.5,0.4,1.3,0.8,1.4c1.8,0.3,3.7,1.2,5.4-0.3c0.3-0.2,0.7-0.2,1,0c0.6,0.2,1.2,0.6,1.7,1.1
		c0.7,0.7,0.8,0.5,1.3-0.2c0.7-0.9,1.5-1.6,2.4-2.3c0.5-0.5,1.2-0.8,0.9-1.8c-0.1-0.4,0.4-0.9,0.7-1.4c0.3,0.3,0.7,0.5,1.1,0.7
		c0.4,0.1,1,0.1,1.2-0.2c1-1.1,1.9-2.2,2.6-3.4c0.5-1.2,0.9-2.4,1.3-3.6c0,0-0.4-0.3-0.4-0.3c-1,0.9-1.4-0.3-1.9-0.7
		c-0.8-0.6-0.2-1,0.2-1.5s0.5-1.1,0.8-1.6c0.7-1.3,1.5-2.5,2.5-3.6c1.3-1.3,1.3-1.8-0.3-2.5c-0.1-0.1-0.2-0.4-0.3-0.6
		c1.8,0.3,0.5-0.9,0.7-1.4c0.3-1-0.1-0.8-0.7-0.5c-0.9,0.6-1.7,1.2-2.6,1.8c-0.2,0.1-0.4,0.1-0.6,0.1c0-0.2,0-0.4,0.1-0.5
		c0.6-0.9,0.9-1.8-0.1-2.6c-0.1-0.1-0.1-0.3-0.1-0.5c0.4-1.4,0.2-2.4-0.9-2.5c-1.4-0.2-1.8-1.2-2.4-2c-0.2-0.2-0.4-0.4-0.6-0.7
		c0,0.3,0,0.5,0,0.8c0,0.7,0,1.1-0.9,0.9c-0.3-0.1-0.9,0.5-0.9,0.7c0,1.2-0.9,1.4-1.7,1.7c-0.4,0.1-0.8,0.1-1.2,0
		c0.1-0.4,0.1-0.9,0.3-1.3c0-0.2,0.3-0.2,0.4-0.4c0.7-0.8,0.5-1.4-0.5-1.4s-1.2-0.3-1.1-1.2c0.1-0.5,0.1-0.5,1.2-0.5
		c0.1,0,0.3-0.2,0.4-0.3c0.3-0.3,0.5-0.6,0.7-0.8s0.4-0.6,0.6-0.8c-0.3,0-0.7,0-1,0.1c-1.1,0.6-1.2-0.2-1.1-0.9
		c0.2-0.6,0.4-1.1,0.7-1.7c0.1-0.3,0.1-0.6,0.1-0.9c-0.3,0.1-0.7,0-0.8,0.2c-1,1-2,2.1-3,3.2c-0.1,0.1,0.1,0.4,0.1,0.7
		c0.2,0.9-0.3,1.8-1.2,2c-0.4,0.1-0.8,0-1.2-0.2c-0.2-0.1-0.3-0.2-0.4-0.3c0.2,0,0.3-0.1,0.5-0.1c0.5-0.1,1.2-0.6,0.6-0.9
		c-1.1-0.6-0.9-1-0.5-1.9c0.1-0.3-0.4-0.9-0.6-1.4c-0.1-0.2-0.2-0.5-0.3-0.8c1.3,0.1,1-1.1,1.4-1.8c0.2-0.2,0.5-0.2,0.7-0.2
		c1.1,1,1.1-0.1,1.4-0.7c0.2-0.7,0.4-1.4,0.8-2c1.1-1.4,2.5-1,3,0.7c0.2,0.5,0.2,1.1,0.4,1.6c0.4,1.4,1,1.8,2.6,1.9
		c1.5,0.2,3,0.1,4.3-0.6c0.7-0.4,1.2,0.1,1.1,0.9c0,0.3-0.2,0.7-0.3,1.1c-0.1,0.3-0.1,0.7-0.1,1c0.3-0.2,0.5-0.4,0.8-0.6
		s0.5-0.7,0.7-0.7c1.9,0,2.3-1.6,2.9-2.8c0.2-0.5,0.4-1,0.8-1.4C138.5,113.7,138.7,112.8,137.8,112z M32.7,3.5
		c0.3-0.4,0.7-0.7,1-1.1c0.2-0.3,0.4-0.6,0.5-0.9c0,0.3,0,0.7,0.1,0.9c-0.5,1-0.1,1.5,0.8,1.7c0.4,0.1,0.8,0.3,1.2,0.5
		c0.3,0.2,0.7,0.3,1,0.4c-0.4,0.3-0.8,0.8-1.3,0.8c-0.9,0.1-1.7,0-2.5-0.2C32.2,5.4,31.9,4.4,32.7,3.5z M11.3,44.3
		c-0.5,0.2-1.1-0.1-1.2-0.7c0-0.1-0.1-0.3,0-0.5c0.1-0.5,0.7-1.3,1.1-1.3c0.4,0,1,0.7,1.9,1.3C12.4,43.6,11.9,44,11.3,44.3z
		 M5.3,6.3c0.8-0.3,1.5-0.8,2.4,0.3C8,7.1,9.4,6.9,10.2,6.7c0.8-0.1,1.4-0.7,2.1,0c0.2,0.2,0.7-0.8,0.9,0.1s-0.4,0.9-1.1,0.8h-0.1
		c-0.7-0.1-1.4-0.2-2.1-0.2c-0.7,0-1.5-0.1-1.7,1C8.2,9.1,7.7,9.2,7.1,9.1C6.7,9,6.4,9,6,9.2c-1.2,1.1-1.2-0.7-1.8-0.9
		C3.8,8.2,4.7,6.5,5.3,6.3L5.3,6.3z M-43,108.5c-0.4,0.1-0.9,0.2-1.3,0.2c0.1,0.6,0.3,1.2,0.5,1.8c0.2,0.3,0.4,0.7,0.7,0.9l-0.9,0.3
		c-2.1-0.1-2.6-1.3-1.5-3.1c0.7-1.2,1.7-1.6,2.7-1.2c0.2,0.2,0.4,0.4,0.6,0.6C-42.5,108.3-42.7,108.4-43,108.5z M-41.9,95.9
		l-3.4,0.9c-0.4-0.1-0.7-0.1-1.1-0.3c-0.1,0-0.2-0.3-0.2-0.4s0.2-0.2,0.3-0.2c0.8,0.3,0.9,0.1,0.8-0.7c0-0.3,0.3-0.6,0.5-0.9
		c0.2,0.1,0.6,0.2,0.7,0.4c0.4,0.6,0.8,0.6,1.4,0.3c0.3-0.1,0.7-0.1,1-0.1c0.2,0,0.4,0.3,0.5,0.5S-41.8,95.9-41.9,95.9z M-32,104.8
		c0,0.3-0.3,0.6-0.5,0.9c-0.1-0.3-0.2-0.5-0.4-0.8c-0.6-0.9,0.1-2.3-1-3.1c0-0.4,0.2-0.7,0.5-1c0.4-0.2,0.8-0.4,1.2-0.5l0.2,0.9
		C-32,102.5-32,103.7-32,104.8z M-30.2,96c-0.3,0.4-0.3,1.1-0.6,1.4c-0.3,0.3-1.6-0.2-1.6,1.1c-0.2,0-0.4,0-0.5-0.1
		c-0.9-0.7-1.7-1.3-2.5-2c-0.2-0.3-0.4-0.6-0.6-0.9c0.3-0.1,0.5-0.2,0.8-0.3c0.7,0.2,1.5,0,2-0.6c0.3-0.3,1.1-0.2,1.6-0.1
		c0.4,0.2,0.9,0.4,1.2,0.7c0.4,0.2,0.7,0.3,1.1,0.4C-29.6,95.7-30,95.8-30.2,96z M-10.8,72.6c0.1-0.2,0.1-0.4,0.3-0.5
		c0.5-0.4-0.7-1.4,0.3-1.4s2.2,0.1,2.6,1.4c0.2,0.5,0.5,1,0.7,1.5c-0.5,0.7-1.1,1.4-1.8,2c-0.3,0.2-1.1-0.2-1.5-0.6
		C-11.1,74.5-11.3,73.4-10.8,72.6z M-19,58.7c0.4-0.5,1-1.2,1.6-0.4c0.5,0.5,1.7,0.5,1.2,1.8c0.4,1.5-1.2,1.8-1.9,2.8
		c-0.3-0.1-0.6-0.2-0.9-0.5c-0.4-0.6-0.7-1.3-0.8-2.1C-19.7,59.7-19.5,59.1-19,58.7z M-1.1,110.2c0,0.5-0.2,1.1-0.3,1.6
		c-0.1,0.3-0.2,0.6-0.4,0.9c-0.4-0.2-0.9-0.5-1.2-0.8c-0.2-0.2,0-0.6,0-0.9c-0.2-1.3-0.8-1.8-2.2-1.9c-0.7-0.1-1.4-0.4-2-0.7
		c-0.2-0.2-0.2-0.4-0.2-0.6c0.2-1-0.1-1.5-1.1-1.5c-0.4,0-0.7,0-1.1,0.1c-2.2,0.3-3.1-0.2-4.3-2.1c-0.4-0.7-0.9-1.3-1.4-1.9
		c-0.1-0.1-0.3-0.2-0.5-0.1c-0.1,0-0.2,0.3-0.1,0.4c0.3,1.1,0.7,2.2,1.1,3.3c0.1,0.4,0.2,0.7,0.3,1.1c-0.6,0-1.2,0-1.8-0.2
		c-0.4-0.2-0.5-0.8-0.8-1.2c-1-1.4-1.9-1.4-3.3-0.4c-0.1,0.1-0.3,0.2-0.4,0.2c-0.1-0.2-0.2-0.3-0.2-0.5c0.2-0.6,0.4-1.1,0.6-1.6
		c0.2-0.4,0.5-0.8,0.7-1.2s0.1-0.8-0.6-0.7c-0.9,0.1-3.2-1.9-3.3-2.7c0-0.2,0.2-0.4,0.4-0.5s0.5,0,0.5,0c0-0.6-0.4-1.2,0.6-1.8
		c1-0.6-0.5-1.2-0.9-1.7c-0.1-0.2-0.3-0.3-0.4-0.5l0,0c0.1,0.4,0.3,1,0.1,1.3c-0.4,0.9-1,1.7-1.8,2.4c-0.2,0.2-1.2-0.5-1.8-0.9
		c-0.1-0.1,0-0.7,0.2-0.9c1-1,1-1-0.2-1.5c-0.3-0.1-0.7-0.6-0.6-0.9c0.2-0.9,0.6-1.7,1-2.5c0.2-0.4,0.8-0.6,1.1-0.9
		c0.2,0.4,0.4,0.7,0.6,1.1c0.4,0.9,0.8,1.8,1.1,2.6c0,0,0-0.1,0-0.1l0.1,0.1c0.7-0.3,1.4-0.6,2.1-0.8c0.1,0.2,0.2,0.3,0.3,0.5
		c0.1,0.4,0.1,0.8,0.2,1.1c0.6-0.2,1.1-0.5,1.7-0.9c0.2-0.2,0.2-0.7,0.4-1c0.2-0.1,0.4-0.2,0.6-0.1c1.2,0.7,2.6,0.8,3.9,0.4
		c0.6-0.3,0.6,0,0.6,0.4c0,0.7-0.1,1.4-0.3,2.1c-0.5,0.9,0,1.5,0.3,2.2s0.7,0.7,1.1,0.2c0.2-0.2,0.4-0.3,0.6-0.5
		c0.1,0.3,0.1,0.6,0,0.8c-0.5,1.3,0.7,1.8,1.2,2.7c0,0.1,0.6-0.2,0.9-0.3l0,0c0,0,0,0,0,0c1.3-1.6,3-1.8,4.8-1.6
		c0.8,0.2,1.4,1,1.2,1.9c0,0.2-0.1,0.4-0.3,0.6c-0.6,0.8-1.4,1.4-2.3,1.7c-0.8,0.3-0.6-0.7-0.5-1.2s0.5-1,0.4-1.1
		c-0.6-0.5-1-0.1-1.5,0.4c-0.5,0.4-1.1,0.6-1.2-0.5c0-0.1-0.4-0.1-0.6-0.2h0c0,0.5,0.5,1.2-0.7,1.4c-0.6,0.1-0.6,0.9,0.1,1.4
		c1.7,1,3.4,2,5.1,3c0.3,0.2,0.6,0.4,0.8,0.3c1.5-0.4,2.1,1.1,3.2,1.5C-1.2,109-1.1,109.8-1.1,110.2z M1.2,62.4
		c-1-0.1-1.4-0.6-0.8-1.4c0.4-0.5,1-0.9,1.6-1.3c0,0,0.3,0.4,0.5,0.6c0.1,0.1,0.2,0.1,0.3,0.2c0.3-1.2,1.7,0,2.1-1
		C5,60.1,5.4,60.7,5.2,61c-0.5,0.7-1.1,1.3-1.7,1.9c-0.1,0.1-0.3,0-0.5-0.1C2.4,62.7,1.8,62.5,1.2,62.4z M6.5,164.9
		c-0.1,0.1-0.2,0.3-0.3,0.4c-1.2-1-1.1,1.5-2.1,0.7c-0.2-0.2-0.4-0.5-0.5-0.8c-0.6-1-0.6-1,0.6-1.4c0.4-0.1,0.8-0.3,1.1-0.4
		C6.3,163.5,6.8,164.2,6.5,164.9z M99.3,111c0.6-1.9,0.9-2,2.8-1.9c0.8,0.1,2-0.5,1.6,1.1c0,0,0.4,0.1,0.6,0.2
		c0.2,0.1,0.3,0.3,0.3,0.3c-0.5,0.8-1,1.6-1.5,2.4c-0.2,0.5-0.5,1-0.8,1.4c-0.6,0.7-0.9,1.2-2.1,0.2C99,113.7,98.7,112.2,99.3,111z
		 M75.6,88c0.7-0.3,1.4-0.4,2.2-0.4c0.4,0.2,0.6,0.7,0.4,1.1c-0.1,0.2-0.2,0.3-0.4,0.4c-0.7,0.4-1.5,0.6-2.3,0.8
		c-0.2,0-0.4-0.5-0.8-1C75,88.4,75.2,88,75.6,88L75.6,88z M17.2,92.8c0.2-0.1,0.1-0.7,0.1-1c-0.1-0.6-0.3-1.2-0.3-1.8
		c0-0.2,0.5-0.6,0.6-0.6c1.1,0.7,1.5,0,2-0.8c0.2-0.3,0.8-0.4,1.2-0.5c0.1,0.1,0.2,0.3,0.3,0.4c-0.1,0.1-0.2,0.1-0.3,0.2
		c0.1,0.1,0.1,0.4,0.2,0.4c0.7,0.3,1.4,0.6,2.1,0.9c0.3-0.8-0.1-1.6-0.8-2c0,0-0.1-0.1-0.1-0.1c0-0.2,0-0.4,0-0.7
		c1.5-0.1,0.6-2,1.7-2.3c0.2,0,0.5,0.3,0.7,0.5s0.3,0.8,0.6,1c0.5,0.4,0.3,0.6,0,1c-0.4,0.6-0.7,1.3-0.7,2c0.1,0.9-0.3,1.8-1,2.3
		c-0.6,0.4-0.6,1.6-1.6,1.8c0.1,0.2,0.1,0.5,0.2,0.5c1.2,0.2,0.5,0.9,0.3,1.3c-0.3,0.8-0.8,0.5-1.3,0.2c-0.3-0.2-0.6-0.3-1-0.4
		c-1,0-2-0.5-2.8-1.2C16.8,93.6,16.1,93.3,17.2,92.8z M7.9,120.4c0.2-0.4,0.5-0.7,0.8-1c0.5-0.4,1.2-0.7,1.8-1.1
		c0.2,0.3,0.5,0.6,0.4,0.8c-0.4,1.5-1.9,2.2-3,3.1c-0.1,0.1-0.6-0.4-1-0.7C7.4,121,7.7,120.7,7.9,120.4z M30.4,177.9
		c0,0,0-0.1,0-0.1c-0.1,0-0.3,0-0.3,0l-1.5-0.9c0.6-0.4,1.2-0.7,1.8-1.1c0.1,0,0.2,0.1,0.3,0.1l2.2,1.4
		C32,177.5,31.2,177.7,30.4,177.9z M34.7,155.8c-0.5,0.4-1,0.9-1.5,1.3c-0.7,0.4-0.9,1.2-0.7,1.9c0.2,0.7-0.1,1.1-0.8,0.9
		c-0.9-0.4-2,0-2.5,0.9c-0.1,0.2-0.2,0.5-0.2,0.7c-0.1,0.3-0.1,0.7-0.2,1c-0.4-0.3-1.1-0.6-1.1-0.8c0-1.6-2-1.6-2.2-2.9
		c-0.2,0.1-0.4,0.1-0.5,0.2c-0.6,1.6-1.1,3.1-1.7,4.7c-0.1,0.2-0.3,0.3-0.6,0.4c-0.1,0-0.3-0.2-0.4-0.3c1.3-1.2-0.5-1.1-0.8-1.6
		c-1.2-1.8-3.2-3-3.4-5.5c-0.1-1.3-1.4-1-2.2-1c-0.3,0-0.7,0.4-1,0.4s-0.6-0.3-0.9-0.5c0.2-0.1,0.5-0.3,0.7-0.4c2-0.4,2-0.4,1.2-2.2
		c-0.1-0.3-0.1-0.7-0.1-1c0.2,0.1,0.5,0.2,0.8,0.2c0.3,0,0.9-0.1,0.9-0.2c0.1-0.4,0-0.8-0.2-1.1c-0.6-0.8-1.8-0.7-3,0.1
		c-0.4,0.2-0.8,0.4-1.3,0.6c-0.2,0-0.5-0.3-0.7-0.5c0.2-0.2,0.4-0.5,0.6-0.5c1.1,0.1,2.1-0.6,2.4-1.7c0.2-1.3,0.8-2.5,1.8-3.3
		c0.1-0.1,0-0.5,0-0.8c-0.3,0-0.5,0.1-0.8,0.2c-0.3,0.2-0.5,0.6-0.8,0.8c-0.1,0.1-0.7-0.3-0.6-0.3c0.3-1-0.1-2.3,1.4-2.7
		c0.3-0.1,0.8-1,0.7-1.2c-0.4-0.6-0.8-1.5-1.9-1c-0.4,0.2-1.1,1.1-1.2,0.1c0-0.6-1.5-1.7,0.3-2.1c0.4-0.1,0.7-0.8,0.8-1.3
		c0.1-0.2-0.6-0.8-0.6-0.8c-1.1,0.7-1.9-0.6-2.9-0.4c-0.1,0-0.3-0.3-0.4-0.4c0.2-0.1,0.4-0.4,0.5-0.4c0.5,0.1,1.1,0.3,1.6,0.4
		c1.2,0.2,1.4,0,1.2-1.2c-0.1-0.5-0.6-1.2,0.3-1.6c0.1,0,0.1-0.1,0.2-0.2c-0.2-0.1-0.5-0.2-0.5-0.3c-0.1-0.7-1.5-1.5,0.1-2
		c0.1,0,0.3-0.6,0.2-0.8c-0.4-0.6-0.8-1.5-1.4-1.8c-0.9-0.2-1.8-0.3-2.7-0.2c-0.1,0-0.2,0.1-0.2,0.2c0.1,0.1,0.3,0.2,0.4,0.3
		c0.1,0.1,0.3,0.2,0.4,0.2c-0.1,0.1-0.3,0.1-0.4,0.2c-1,0.1-2,0-2.5-1.1c-0.1-0.1-0.1-0.2-0.1-0.3c-0.4-0.5-1.2-1-1.1-1.5
		s0.9-0.9,1.2-1.5s0.5-1.2,1.1-0.2c0.4,0.6,0.9,0.7,0.9-0.3c0-0.1,0.1-0.1,0.1-0.1c1.4,0.9,1.9-0.4,2.7-1c0.1-0.1,0.6,0.2,0.6,0.3
		c0,0.5,0,1,0,1.5l1.7-0.2l0,0l0,0c-0.1-0.3-0.3-0.5-0.4-0.8c-0.6-0.8-0.3-1.4,0.1-2.2c0.5-1.1,1.6,0,2-0.6c0.4-0.6,0.7-1.3,0.9-2
		c0-0.1,0.8,0,0.9,0.2c0.3,0.6,0.5,1.3,0.5,2c0,0.4-0.5,0.8-0.8,1.1l0,0l0,0l0,0c0.1,0.1,0.3,0.1,0.3,0.1c-0.3,1.3,0.5,1.6,1.6,1.9
		c1,0.3,1,0.3,0.9-0.7c-0.2-1.1-0.2-2.2,0-3.2c0.3-1.1,0.8-2.2,1.3-3.3c0,0,0.4,0,0.4,0.1c0.3,1.7,0.6,3.3,0.9,5
		c0,0.3-0.1,0.8-0.2,0.8c-1.1,0.2-0.8,1.2-1.2,1.8c-0.8,1.7-0.3,3.7,1.2,4.8c0.2,0.1,0.5,0.1,0.8,0.1c0-0.2-0.1-0.4-0.1-0.7
		c-1.1-2.2-1.1-2.2,0.5-3.9c0.4-0.5,0.8-1,1.2-1.5c0.1,0.7,0.2,1.3,0.3,2c0.2,1.2,1,1.8,2.4,2c0.5,0.1,1.3,0.4,1.4,0.7
		c0.2,0.7-0.4,0.9-1.1,1.2c-0.4,0.1-0.8,0.6-1.2,1c0.3,0.4,0.6,0.9,1,1c1.9,0.7,2.7,2.3,3.4,4c0.3,0.7,0.7,1.3,1.6,1.1
		c0.4-0.1,0.8,0.2,1.2,0.2c0.3,0,0.6-0.1,0.8-0.3c-0.1-0.9,0.6-0.8,0.9-0.5s1.7-0.7,1.1,0.8c0,0.1,0.2,0.3,0.3,0.4
		c0.7,0.4,2.7-0.4,2.9-1.2c0.2-1.3,0.5-2.6,1-3.8c0.5-1,1.3-1.7,2.2-2.3c0.9-0.5,1.4-0.8,0.7-1.9c-0.3-0.7-0.3-1.5-0.2-2.2
		c0.1-0.8,1.1-1.4,0.3-2.3c0-0.2,0.1-0.3,0.3-0.4c0.2-0.1,0.5-0.1,0.7,0.1c0.2,0.1,0.2,0.4,0.3,0.6s0.3,0.7,0.5,1
		c0.4-0.3,0.8-0.7,1.1-1.1c0.1-0.4,0-0.8-0.3-1c-1.2-0.6-0.5-1,0.2-1.3c1-0.4,2.1-1.1,3.3-0.1c0.3,0.2,0.9,0,1.4,0.1
		c0.5,0.2,1.1,0.4,1.6,0.7c-0.3,0.3-0.6,0.7-1,1s-0.8,0.4-0.8,0.6c0.2,1.4-0.6,1.9-1.6,2.5c-0.6,0.3-0.8,1.2-1.1,1.9
		c-0.3,0.7-0.3,1.1-1,1.6c-0.4,0.3-0.3,1.5-0.5,2.3c0,0,0.1,0.1,0.1,0.1c0.8-0.1,1.6-0.1,2.3,0c0.8,0.1,1.6,0.7,1.6-0.8
		c0.2-0.2,0.5-0.2,0.8-0.2c0.4,0.1,0.7,0.5,1,0.7c0.6,0.3,0.7,0.6,0.3,1.1c-0.2,0.3-0.6,0.8-0.5,1s0.7,0.5,1,0.6
		c0.2,0.1,0.5,0.2,0.8,0.3c-0.3,0.2-0.7,0.3-1,0.3c-0.3,0-0.6-0.1-0.9-0.3c-0.8-0.3-1.2-0.1-1.1,0.8s-0.1,1.6-1.3,1.7
		c-0.4,0-0.8,0.7-1.3,1c-0.3,0.1-0.7,0.2-1,0.2c0.1-0.4,0.1-1,0.3-1.1c0.7-0.3,1.3-0.5,2-0.7c0.2-0.1,0.4-0.3,0.5-0.5
		c-0.2-0.1-0.5-0.1-0.7-0.1c-1.2,0.2-2.3,0.6-3.5-0.1c-0.9-0.5-1.6,0.3-1.3,1.4c0.3,0.6,0.2,1.3-0.3,1.8c-0.4,0.4-0.6,0.9-0.8,1.4
		c0.5,0.2,1,0.4,1.4,0.6c0.2,0.1,0.5,0.1,0.7,0.2c-0.7-0.5-0.5-1.1-0.1-1.6c0.2-0.2,0.7,0,1.1,0.1c1.4,0.6,3,0.6,4.5,0.1
		c0.3-0.1,0.7-0.1,1,0c-0.2,0.2-0.5,0.4-0.7,0.7c-0.7,0.6-2.2,0.3-2.4,1.7c-0.2,0.1-0.4,0.1-0.6,0c-0.5-0.2-1-0.5-1.5-0.7
		c1.4,1.9,1.3,2-1,2.5c-0.5,0.1-1.1,0.9-1.4,1.4c-0.2,0.6-0.2,1.2-0.1,1.8c0.3,1.8,0.7,3.6,1.2,5.4c0.2,0.6,0,0.6-0.5,0.5
		s-0.7-0.3-0.9-0.2c-0.3,0.3-0.5,0.6-0.7,1l0.9,0.5l0.6,0.2c-0.1,0.2-0.2,0.4-0.4,0.5c-1.3,0.5-1.7,1.3-0.9,2.6
		c0.2,0.3,0,0.8-0.1,1.1c-0.4-0.1-0.9-0.1-1.1-0.4c-0.7-0.8-0.9-1.9-0.5-2.9c0.5-1.5-0.1-2.2-1.6-2c-0.4,0.1-1,0.2-1.1,0
		c-0.3-0.5-0.4-1-0.3-1.6c0.3-0.7,0.7-1.3,1.2-1.8c0,0,0.3,0.1,0.4,0.2c0.3,0.1,0.7,0.2,1,0.3c0.2-0.5,0.4-1,0.4-1.6
		c-0.3-0.1-0.5-0.2-0.8-0.3c-0.2,0-0.5,0-0.7,0c0.1-1.9-0.5-0.9-1-0.2c-0.2,0.2-0.6,0.4-0.8,0.4c-1.1-0.5-2.3-1.1-3.4-1.7
		c-0.3-0.2-0.6-0.4-0.9-0.7c-0.1,0.5-0.1,1-0.1,1.5c0.1,0.3,0.5,0.5,0.7,0.8c0.6,0.9,0.3,1.2-0.8,1.5c-0.2,0.2-0.3,0.5-0.3,0.9
		c0.8,1.4,1.7,2.7,2.6,4c0.3,0.4,0.5,0.8,0.7,1.3c0.1,0.2,0,0.5-0.1,0.8c-0.1-0.2-0.4-0.4-0.4-0.6c-0.1-1-1.6-0.3-1.7-1.4
		c0-0.9-0.3-1.7-0.7-2.4c-0.4-0.5-1-0.9-1.6-1.2c-0.1-0.1-0.5,0.1-0.7,0.3c0.1,0.2,0.1,0.4,0.3,0.6
		C36.2,153.4,36.1,154.7,34.7,155.8L34.7,155.8z M61,167.4c-0.2,0.3-0.6,0.4-0.9,0.4c-0.6-0.2-1.2-0.4-1.7-0.6
		c-0.6-0.3-0.9-0.5-1.3,0.5c-0.5,1.2-1,2.6-2.8,2.7c-0.2,0-0.4,0.9-0.6,1.3c0.3,0,0.6,0,0.9,0c0.6-0.2,1.3,0.1,1.5,0.7
		c0,0.1,0.1,0.2,0.1,0.3c0,0.3-0.7,0.9-1.1,0.9c-1,0.1-1.1,0.5-0.9,1.4c0,0.4-0.1,0.7-0.3,1c-0.7,0.5-1.2,1.3-1.3,2.2
		c-0.1,1.3-0.8,1.5-2,0.8c-1.6-0.9-2-0.6-2.3,1.2c0,0.2,0,0.4-0.1,0.6c-0.1,0.1-0.2,0.3-0.4,0.4c-0.1-0.2-0.3-0.3-0.3-0.5
		c0-0.7,0.2-1.3-1-1.1c-0.4,0.1-1.1-0.5-1.4-1c-0.4-0.7-0.8-0.6-1.5-0.8c-1.3-0.3-2.7,0.2-3.5,1.3c-0.2,0.2-0.8,0.2-1.2,0.2
		c0-0.3,0-0.7,0.1-1c0.1-0.3,0.2-0.7,0.2-1.1c-0.3-2-0.3-2.1,1.4-2.4c0.2-0.1,0.4-0.1,0.6-0.2c-0.2-0.1-0.3-0.4-0.5-0.4
		c-1-0.5-1.9-0.9-2.9-1.4c-0.1,0.1-0.1,0.2-0.2,0.3c-0.1,0-0.3,0.1-0.4,0c-0.4-0.2-0.7-0.4-1.1-0.6c0.3,0,0.7-0.1,1-0.1l0.8-0.2
		c-0.2-0.2-0.3-0.3-0.5-0.5c-0.2-0.1-0.5-0.2-0.7-0.3c-0.5-0.5-0.8-1,0.2-1.3c0.6-0.2,1.2-0.6,1.8-0.8s1.2-0.5,1-1.4
		c0-0.2,0.3-0.6,0.4-0.6c1.7,0.2,2.9-1.2,4.5-1.6c0.2-0.2,0.2-0.5,0.1-0.8c-0.5-0.7-0.7-1.1,0.5-1c0.2,0,0.3,0,0.4-0.1
		c0.4-0.5,1.1-0.6,1.7-0.5c0.7,0.2,0.8,0.6,0.7,1.3c-0.2,1,0.4,1,1.2,1s1.8,0.1,2.7,0.1c0.4,0,0.8,0,1.2-0.2
		c0.6-0.4,0.9-0.4,1.4,0.1c0.3,0.2,0.7,0.3,1.1,0.2c1-0.3,1.9-0.4,2.9-0.6c1.3-0.3,1.6,0.6,2.2,1.1C61.2,166.6,61.2,167,61,167.4
		L61,167.4z M66.3,125c0,0-0.1,0.4-0.3,0.5c-0.3,0.1-0.6,0-0.8-0.2c-0.5-0.9-0.8-0.4-1.1,0.1c-0.2,0.4-0.4,0.8-0.7,1.1
		c-0.4,0.2-0.7,0.3-1.1,0.3c-0.1-0.3-0.2-0.7-0.2-1c0-0.8,0.1-1.5,0.3-2.3c0.1-0.3,0.1-1.2,0.8-0.3c0.3,0.3,1.2,0.2,1.9,0.3
		C65.8,123.7,66.5,123.8,66.3,125L66.3,125z M69.1,119.8c-0.2,0.1-0.4,0.1-0.6,0c-1.4-1-2.8,0-4.3-0.1c-0.3,0-0.6,0.2-0.7,0.5
		c-0.6,1.4-1.8,1.5-3,1.7c-0.2,0-0.5,0-0.7,0c0.2-0.2,0.3-0.4,0.5-0.6c0.1-0.1,0.1-0.4,0.1-0.4s-0.5-0.3-0.7-0.3
		c-0.9,0.2-1.8,0.6-2.6,0.8c-0.2,0-0.5-0.2-0.7-0.2c0.6-0.2-0.5-1.3,0.7-1.2c0.4,0.1,0.7,0.1,1.1,0c0.4-0.2,0.8-0.4,1.2-0.6
		c-0.3-0.4-0.6-0.7-0.9-1c-0.3-0.1-0.5,0-0.8,0.2c-0.6,0.7-1.4,1.3-2.3,0.7c-0.6-0.4-1.7,0.7-1.9-0.6c-0.1-0.5-0.1-1.3,0.2-1.6
		c0.5-0.5,1.2-0.8,1.9-0.7c0.9,0.2,0.2,0.8,0.1,1.3c-0.1,0.2-0.1,0.4-0.1,0.7c0.2,0,0.4,0.1,0.5,0c1-0.7,2-1.4,3-2.1
		c0.2-0.1,0.1-0.6,0.2-0.9c-0.3,0-0.6,0-0.9,0c-0.2,0-0.3,0.1-0.5,0.3c-0.6,0.6-1,0.8-1.4-0.3c-0.3-0.6-0.7-1.2-1.2-1.7
		c0.2-0.9,1.5-3.1,2.1-3.2c0.3,0,0.8,0.3,0.8,0.5c-0.1,1.4,0.8,0.9,1.4,0.8c0.4-0.1,0.8-0.2,1.3-0.2c0.8,0.1,0.7-0.3,0.7-0.9
		c0.1-1.3,1.2-2.3,2.5-2.4c0.6,0,1.2,0,1.8,0c1.9,0,3.7-1.1,4.5-2.9c0-0.3-0.1-0.6-0.3-0.8c-0.1-0.1-0.5-0.1-0.7-0.1
		c0.3-0.1,0.5-0.3,0.8-0.4c0.4-0.2,0.9-0.4,1.3-0.6c0.7-0.3,0.8-0.5,0-0.7c0-0.2,0-0.6,0.2-0.7c1-0.5,2.1-0.9,3.2-1.3
		c0.5-0.2,0.9-0.4,1.3-0.6c0.5-0.3,1-1.1,1,0.4c0,0.9,1.2,1,2,1.2c0.4,0.1,0.8,0.4,1.2,0.6c-0.2,0.4-0.5,0.8-0.9,1.1
		c-0.9,0.6-1.9,1-2.8,1.5c-0.2,0.1-0.4,0.6-0.4,0.7c0.7,1.3-0.3,1.7-1.2,2s-1.6,1.2-2.8,1.2c-0.5,0-1.1,1.4-1.6,2.1
		c0.2,0.1,0.3,0.2,0.5,0.2c0.6,0,1,0.4,1,1c0,0.2,0,0.4-0.1,0.5c-0.9,1.2-0.7,3.2-2.8,3.4c-0.4,0-0.9,0.6-1.2,1
		c-0.5,0.6-0.8,1.2,0.5,1.3c0.3,0,0.6,0.5,0.8,0.8C69.4,119.4,69.3,119.6,69.1,119.8L69.1,119.8z M83.8,137.1
		c-0.1,0.4-0.3,0.8-0.5,1.2c-0.3,0.7-0.7,1-1.6,0.6c-1.3-0.5-1.3-0.4-1.3,1.1c0.2,2.1-1.4,3.9-3.4,4c-0.1,0-0.2,0-0.3,0
		c-0.7,0-1.5,0-1.4-1.2c0-0.4-0.4-0.9-0.7-1.2s-0.9-0.5-0.9-0.7c0.1-0.5,0.4-1,0.7-1.4c0.2-0.2,0.3-0.4,0.6-0.6c-0.3,0-0.6,0-0.9,0
		c-1.4,0.2-2.8,0.5-4.1-0.3c-0.2-0.2-0.5-0.4-0.7-0.6l0.8-0.2c0.3,0,0.5,0,0.8,0c0.3,0.1,0.6,0.1,0.8,0.1c0.5-0.1,1-0.2,1.4-0.4
		c-0.1-0.5-0.2-0.9-0.4-1.4c-0.1-0.2-0.2-0.4-0.3-0.6c0.2,0,0.4,0,0.7,0.1c3,0.9,6.3,0.9,9.3,0c0.5-0.1,1-0.1,1.5,0
		C83.9,136.2,83.9,136.7,83.8,137.1z M102.4,144.9c-0.7,0.3-1.3,0.8-2,1.1c-0.3,0.2-0.7,0.2-1.1,0.1c-1.4-0.7-1.5-1-0.5-2.3
		c1.3-1.6,1.5-1.7,3.2-0.7c0.4,0.3,0.7,0.8,1.3,1.4C103.1,144.6,102.7,144.8,102.4,144.9L102.4,144.9z M100.2,134.1
		c1.1-0.1,1.7,0.4,1.7,1.4s-0.9,2.1-1.6,1.8c-0.7-0.3-1.3-0.9-1.7-1.6C98.3,135.1,99.3,134.1,100.2,134.1L100.2,134.1z M114.4,130.6
		c-0.3,0.1-0.5,0.3-0.7,0.4c-0.5,0.6-0.9,1.4-1.9,0.9c-0.4,0-0.7,0.2-0.9,0.4c-0.3,0.9-0.6,1.6-1.8,1.3c0,0-0.2,0.2-0.2,0.2
		c0.3,1.5-0.9,0.6-1.3,0.9c-1,0.6-1.6,0.6-1.8-0.9c0-0.3-0.6-0.6-1-0.8s-0.9-0.3-1.3-0.6c-1.3-0.8-1.2-1,0.1-1.7
		c0.4-0.2,0.8-0.7,0.8-1c0-0.5-0.3-0.9-0.7-1.1c-0.5-0.1-1,0-1.5,0.3c-0.4,0.1-0.6,0.5-0.9,0.8c-0.1-0.4-0.2-0.9-0.3-1.3
		c0.1,0,0.3-0.1,0.4-0.1c-0.2-0.7-0.4-1.3-0.7-2c-0.6-1.3-0.5-1.5,0.8-2c0.7-0.3,1.4-0.7,2-1.1c0.1-0.1,0.1-0.4,0.1-0.7
		c-0.2,0.1-0.5,0-0.6,0.2c-1,1.2-2,0.9-3,0c-0.4-0.4-0.5-0.4-0.7,0.1s-0.5,1.4-0.8,2c-0.3,0.8-0.5,1.8-1.9,1.3
		c-0.2-0.1-0.7,0.4-1,0.6s-0.6,0.6-0.9,0.8c-0.5,0.2-0.9,0.5-1.4,0.6l0.8-1.4c0.1-0.1,0.3-0.3,0.3-0.4c-0.1-0.9-2.8-3.1-3.7-3
		c-0.2,0.1-0.4,0.3-0.4,0.6c0.1,0.4,0.3,0.8,0.5,1.1c0.5,0.6,0.9,1.1,0.2,1.7c-0.3,0.2-0.7,0.4-1.1,0.5c-0.3-0.6-0.8-1.3-0.7-1.7
		c0.4-1.8-0.8-2.2-1.9-2.9c-0.7-0.5-1.2-1.1-1.7-1.7c-0.1-0.1,0.5-1,0.6-1c1.6,0.7,2.6-0.7,4-1c0.7-0.1,1.3-0.3,2-0.5
		c0.7-0.1,1.3-0.3,1.9-0.6c0.8-0.4,0.9-0.3,1.1,0.4c0.3,0.9,0.8,1.6,1.9,1c0.2-0.1,0.4-0.1,0.7-0.1c-0.1,0.3-0.1,0.6-0.2,0.8
		c0,0.1-0.1,0.1-0.1,0.2c-0.3,0.4-1.2,0.8-0.4,1.3s1.4-0.2,1.5-0.9c0.3-1.2,0.8-1,1.9-1c1.4,0,3.4,0.9,4.5-0.9
		c0.4-0.6,0.5-0.2,0.7,0.2c0.4,0.8,0.9,1.6,1.4,2.3c0.8,1.1,0.5,1.9-0.8,2.3c-1,0.3-2.1,0.7-3.1,1.1c-0.1,0-0.2,0.5-0.1,0.7
		c0.1,0.3,0.3,0.6,0.5,0.9c0.8,1.6,1.4,1.8,2.9,0.8c0.1-0.1,0.3-0.3,0.4-0.3c0.6,0,1.1,0,1.7,0c-0.2-0.5-0.5-1.1-0.4-1.6
		c0.1-0.9,0.9-0.3,1.3-0.3c0.3,0,0.7,0,1,0c-0.2,0.3-0.4,0.5-0.6,0.8c-0.5,0.7-0.2,1.3,0.6,1.2s1,0.3,1.3,0.8c0.6,1,1.6,1.8,2.7,2
		c0.2,0,0.4,0.3,0.6,0.4L114.4,130.6z M115.3,125.7c-0.1,1-0.2,2-0.3,3c0,0.1-0.2,0.2-0.2,0.2c-0.5-0.4-0.9-0.8-1.3-1.4
		c-0.1-0.4,0-0.9,0.3-1.2c0.6-0.5,0.7-0.6,0.1-0.8c-1.3-0.4-0.5-1-0.3-1.5c0.2-0.3,0.5-0.5,0.9-0.5c0.1,0,0.4,0.5,0.5,0.7
		c0.2,0.5,0.4,1,0.6,1.5L115.3,125.7z M-41.2,190.9c-0.6-2.6-3.1-2.8-4.9-3.9c-0.5-0.3-0.8-0.1-0.6,0.6c0.1,0.3,0.2,0.6,0.3,0.9
		c0.2,0.7,0,0.8-0.5,0.8v1.9h5.7C-41.1,191-41.1,190.9-41.2,190.9z"/>
	<path class="st4" d="M20.1,78.3c0.1-0.2,0.2-0.6,0.4-0.7c0.3,0,0.6,0,0.8,0.2c0.9,0.6,0.8,1.8-0.1,2.9c-0.4,0.4-0.7,0.5-0.3,1.2
		s-0.6,1.1-1.3,1.1c-0.8,0-1.6-0.2-2.2-0.7c-0.8-0.8-1.8-1.4-2.8-1.9c-0.6-0.5-1.1-1.1-1.4-1.9c-0.2-0.5-0.3-1-0.3-1.5
		c0.3,0.3,0.5,0.7,0.9,0.8c0.7,0.2,1,1.5,2,0.8c0.2,0.3,0.4,0.6,0.7,0.8c0.4,0.2,0.7,0.4,1.1,0.6c0.2-0.3,0.3-0.6,0.4-0.9
		c0.3-1.1,0.5-1.2,1.4-0.4l0.8,0.7l0.2-1L20.1,78.3z"/>
	<path class="st4" d="M109.1,176.1c0.1-1.6,0.1-3.2,0.2-4.9c0-0.7,0.3-1.1,1-0.6s0.9,0.3,1-0.4c0.1-0.3,0.3-0.6,0.6-0.8
		c0.3-0.1,0.6-0.2,0.8-0.2c0,0.3,0,0.6-0.1,0.8c-0.4,0.6-0.8,1,0.4,1.1c0.3,0,0.7,1.2,0.6,1.9c0,0.8-0.6,1.4-1.4,1.4c0,0,0,0,0,0
		c-0.5,0.1-1.1,0.4-1.4,0.8c-0.5,0.4-0.8,0.9-1.2,1.4c-0.2,0.2-0.4,0.3-0.6,0.4l-0.3-0.8L109.1,176.1z"/>
	<path class="st4" d="M147.3,125.1l-1.4,3.8c-0.1,0.3-0.4,0.7-0.4,1c0.1,0.8-0.1,1.2-0.9,1.3c-0.7,0.1-1.3-0.4-1.4-1c0,0,0,0,0-0.1
		c-0.2-0.8-0.3-1.5-0.5-2.3c-0.2-0.8,0.5-1,1-1.2c0.8-0.3,1.8-0.2,1.7-1.6c0-0.3,0.7-0.6,1-0.9L147.3,125.1z"/>
	<path class="st4" d="M163.5,133.5c-1.1,1.1-2,2-3,2.9c-0.3,0-0.7-0.1-0.9-0.3c-0.1-0.4-0.3-1.1,0-1.3c0.4-0.4,0.7-0.5,0.3-1.1
		s-0.2-1,0.4-1.4s0.4-1.4,1.2-0.9C162.2,132,162.9,132.7,163.5,133.5z"/>
	<path class="st4" d="M111.5,0.8c-0.1,0.2-0.2,0.4-0.3,0.6c-0.1-0.2-0.2-0.5-0.3-0.7s-0.2-0.5-0.4-0.7h0.8
		C111.4,0.2,111.5,0.5,111.5,0.8z"/>
	<path class="st4" d="M112,164.6c0.2,0.3,0.3,0.6,0.3,0.9c0,0.4-0.4,0.7-0.4,1c0,0.5,0,1.1,0,1.6c-0.6-0.3-1.1-0.6-1.7-0.9
		c-0.4-0.4-0.9-0.9-1.2-1.3c0.6-0.3,1.1-0.7,1.7-0.9C111.2,164.8,111.6,164.7,112,164.6z"/>
	<path class="st4" d="M42.1,141.1c-0.6,0.2-1.3,0.7-1.5,0.6c-1.4-1.3-3.2-1.3-4.9-1.6c-0.8-0.1-1-0.6-0.7-1.1
		c0.3-0.5,0.9-0.8,1.4-1.2c0.1,0.3,0.2,0.5,0.3,0.7c0.3,0.4,0.6,0.9,1,1.1c0.2,0.1,0.9-0.4,1-0.7c0.2-0.6,0.3-0.7,0.8-0.3
		s1.2,1,1.8,1.5C41.6,140.4,41.9,140.7,42.1,141.1z"/>
	<path class="st4" d="M21.1,149.9c0.5-0.4,1-0.7,1.5-1.1c0.3-0.2,0.6-0.3,0.9-0.4c0.1,0.3,0.1,0.7,0.1,1c-0.5,1.2-1.1,2.4-1.7,3.6
		c-0.2,0.2-0.4,0.2-0.6,0.2c-0.3-0.2-0.7-0.7-0.7-0.7c0.6-0.7-0.1-0.9-0.4-1.4c-0.3-0.3-0.2-0.9-0.2-1.4c0.3-0.1,0.6-0.1,0.9-0.1
		L21.1,149.9z"/>
	<path class="st4" d="M15.8,123.7c0.5-0.2,0.9-0.7,1.3,0.1c0.2,0.3,0.5,0.5,0.8,0.7c0.1-0.4,0.2-0.8,0.2-1.3c-0.2-0.9,0-1.6,1-1.8
		c-0.7,1.1-0.1,1.9,0.4,2.8c0.1,0.4,0.2,0.8,0.2,1.2c-0.6-0.5-0.8,1.6-1.5,0.2c-0.1-0.2-0.7,0-1-0.1
		C16.4,125.5,15.7,124.6,15.8,123.7z"/>
</g>
</svg>
