<svg xmlns="http://www.w3.org/2000/svg" viewBox="0 0 224.98 190.01">
    <defs>
      <style>.cls-1{fill:#333;opacity:0.3;}</style>
    </defs>
    <title>Asset 1</title>
    <g id="Layer_2" data-name="Layer 2">
        <g id="Layer_1-2" data-name="Layer 1">
            <path class="cls-1" d="M159.28,0l-.22.4-.15-.4Z"/>
            <path class="cls-1" d="M0,21.21v-3c.93-.54,2.08-.73,3-1.29.1-.06.38.18.73.36-.46.56-.77,1.3-1.22,1.39-.78.16-.93.6-1.14,1.19A2.08,2.08,0,0,1,0,21.21Z"/>
            <path class="cls-1" d="M3.89,108a11.7,11.7,0,0,1-1.34.22A16.19,16.19,0,0,0,3,110.05a4.23,4.23,0,0,0,.69.93l-.93.33C.66,111.21.23,110,1.3,108.16,2,107,3,106.51,4,107c.24.11.41.39.6.59A2.75,2.75,0,0,1,3.89,108Z"/>
            <path class="cls-1" d="M5,95.41c-1.21.34-2.42.66-3.44.93a6.54,6.54,0,0,1-1.1-.24c-.13,0-.19-.26-.24-.42s.2-.19.26-.16c.79.35.94.1.79-.69-.05-.25.29-.58.46-.87.24.13.58.21.71.42.39.6.77.6,1.35.26a1.62,1.62,0,0,1,1-.06c.18,0,.36.27.45.45S5.08,95.37,5,95.41Z"/>
            <path class="cls-1" d="M2.82,4.17a1.43,1.43,0,0,1-.43-.56C2.18,2.84,3.43.78,4.22.46a10.45,10.45,0,0,0,1-.46H7.58c.22.23.34.73.62.84.73.28.61.72.21,1.28A17.71,17.71,0,0,0,5.35,9.44,10.85,10.85,0,0,1,4.47,12c-.15.33-.57.54-.87.81,0-.33-.05-.66-.08-1l.2-.05c-.36-.91-.67-1.84-1.1-2.71S1.85,7.36,3,6.55A1.47,1.47,0,0,0,2.82,4.17Z"/>
            <path class="cls-1" d="M9.75.46C9.7.3,9.64.14,9.6,0h1.1C10.41.13,10.1.28,9.75.46Z"/>
            <path class="cls-1" d="M14.67,99.86l.17.87c0,1.23,0,2.37,0,3.52,0,.31-.31.6-.47.9a4.67,4.67,0,0,0-.35-.75c-.62-.92.11-2.29-1-3.06a1.73,1.73,0,0,1,.45-1A4.11,4.11,0,0,1,14.67,99.86Z"/>
            <path class="cls-1" d="M11.38,95.83a5.56,5.56,0,0,1-.62-.86,2.56,2.56,0,0,1,.83-.24,2,2,0,0,0,2-.61c.28-.29,1.07-.21,1.6-.11a5.33,5.33,0,0,1,1.25.65c.36.17.73.29,1.1.43-.29.12-.7.16-.85.38-.28.42-.3,1.07-.64,1.37s-1.64-.2-1.62,1c-.17,0-.37,0-.49-.09C13.05,97.15,12.2,96.51,11.38,95.83Z"/>
            <path class="cls-1" d="M23.21,93.7l.06.06-.05,0S23.21,93.73,23.21,93.7Z"/>
            <path class="cls-1" d="M22.07,91.17c.39.87.77,1.75,1.15,2.61.09.44.31,1,.14,1.29a8.29,8.29,0,0,1-1.69,2.42c-.17.16-1.19-.54-1.76-.91-.09-.06,0-.66.21-.85,1-1,1-1-.23-1.47-.29-.11-.66-.64-.6-.87a11,11,0,0,1,1-2.46c.22-.38.76-.58,1.15-.86C21.67,90.44,21.89,90.8,22.07,91.17Z"/>
            <path class="cls-1" d="M25.55,188.09c-.11,0-.24.15-.33.13-.92-.25-.73.56-1.06.93s-.39.67-.27.86H5.75a.64.64,0,0,1-.06-.16C5.09,187.3,2.62,187,.83,186c-.5-.3-.85-.1-.59.57.11.29.17.59.26.87.23.68,0,.84-.5.75V172.86l.25.38a33.79,33.79,0,0,0,3.43,4.52,5.58,5.58,0,0,0,3,1.58,24.77,24.77,0,0,0,4.79-.06c1.43-.07,2.73-.38,3-2.11,0-.15.33-.26.5-.39a3.79,3.79,0,0,1,.39.78c0,.11-.18.29-.29.44-.62.83-.5,1.35.61,1.46.77.08,1.6.1,1.18,1.29,0,.09.1.32.22.38a9.74,9.74,0,0,0,1.89.93c.68.18,1.29.43,1,1.14a2.84,2.84,0,0,1-1.32,1.26c-.46.24-1.1.09-1.63.24-.31.09-.56.43-.83.65a5.61,5.61,0,0,0,.8.58c1.59.75,3.09-.32,4.65-.23,0-.34.18-.76,0-1-.64-.95-.62-1.56.63-1.87.26-.06.45-.38.71-.51s.73-.39.92-.27.28.58.37.91.05.94.3,1.13c1.09.81.29,1.1-.31,1.54a8.82,8.82,0,0,0-1.07,1.13l1.33.57a4,4,0,0,1,.66.32A1.47,1.47,0,0,1,25.55,188.09Z"/>
            <path class="cls-1" d="M27.9,62.11A5.54,5.54,0,0,1,27.11,60a2.69,2.69,0,0,1,.69-1.67c.38-.47,1-1.16,1.65-.39.46.5,1.71.47,1.19,1.84.41,1.44-1.21,1.8-1.89,2.75A1.59,1.59,0,0,1,27.9,62.11Z"/>
            <path class="cls-1" d="M36.87,100.71h0s0,0,0,0l0,0Z"/>
            <path class="cls-1" d="M36.07,72.17c.09-.16.13-.36.26-.47.47-.41-.68-1.42.29-1.35s2.16.1,2.57,1.4a11.41,11.41,0,0,0,.75,1.45,10.73,10.73,0,0,1-1.79,2c-.27.19-1.14-.21-1.54-.56A1.81,1.81,0,0,1,36.07,72.17Z"/>
            <path class="cls-1" d="M37.48,100.88c0-.08-.36-.14-.59-.19,1.27-1.55,3-1.78,4.81-1.56a1.57,1.57,0,0,1,.91,2.45,4.72,4.72,0,0,1-2.3,1.67c-.85.25-.57-.68-.51-1.16s.47-1,.36-1.09c-.59-.52-1,0-1.48.36S37.55,101.92,37.48,100.88Z"/>
            <path class="cls-1" d="M45.74,109.65a7.23,7.23,0,0,1-.32,1.59,5.94,5.94,0,0,1-.36.91,6.5,6.5,0,0,1-1.23-.8c-.15-.16,0-.6,0-.89-.21-1.33-.79-1.75-2.18-1.92a7.41,7.41,0,0,1-2-.72.7.7,0,0,1-.21-.58c.16-1-.11-1.46-1.06-1.51a5.76,5.76,0,0,0-1.09.11c-2.23.32-3.12-.14-4.29-2.1a14.6,14.6,0,0,0-1.45-1.87.52.52,0,0,0-.49-.13c-.09,0-.19.32-.15.45.34,1.07.72,2.15,1.07,3.23.11.36.17.73.26,1.09a5.74,5.74,0,0,1-1.83-.15c-.36-.16-.47-.82-.76-1.2-1-1.34-1.86-1.43-3.27-.42a3.48,3.48,0,0,1-.43.22c-.07-.16-.22-.34-.18-.45a12,12,0,0,1,.62-1.64c.19-.42.52-.79.68-1.22s.15-.76-.6-.69c-.94.09-3.23-1.86-3.32-2.67,0-.16.18-.39.35-.49s.51,0,.51,0c.05-.64-.4-1.17.63-1.79s-.49-1.15-.9-1.72a4,4,0,0,0-.43-.49c.71-.28,1.43-.57,2.15-.81a1.4,1.4,0,0,1,.27.52c.1.37.15.75.22,1.12a9.49,9.49,0,0,0,1.68-.86c.23-.17.19-.68.36-1a.57.57,0,0,1,.57-.09,5,5,0,0,0,3.89.43c.59-.3.62,0,.58.41a5.17,5.17,0,0,1-.3,2.12c-.54.91,0,1.51.29,2.18s.66.68,1.14.16a3.83,3.83,0,0,1,.63-.47,2.42,2.42,0,0,1,0,.85c-.51,1.27.67,1.81,1.16,2.63.05.07.6-.16.93-.25-.05.52.52,1.21-.68,1.39-.62.09-.57,1,.14,1.36,1.72,1,3.43,2,5.15,3,.26.15.59.4.82.34,1.5-.39,2.07,1.14,3.2,1.52C45.69,108.41,45.75,109.2,45.74,109.65Z"/>
            <path class="cls-1" d="M49.89,62.48c-.63-.12-1.25-.3-1.88-.36-1-.09-1.36-.64-.85-1.43a5.57,5.57,0,0,1,1.6-1.24c.05,0,.35.41.55.61a2.63,2.63,0,0,0,.33.2c.27-1.18,1.67,0,2.06-.95.17.49.55,1.09.38,1.38a8.84,8.84,0,0,1-1.71,1.86C50.3,62.62,50.05,62.52,49.89,62.48Z"/>
            <path class="cls-1" d="M53.39,164a1.33,1.33,0,0,1-.33.36c-1.15-1-1.1,1.49-2.12.73a2.52,2.52,0,0,1-.52-.8c-.56-.95-.56-1,.63-1.36l1.1-.36C53.14,162.62,53.68,163.3,53.39,164Z"/>
            <path class="cls-1" d="M54.81,121.63c-.07.06-.56-.37-1-.69.48-.58.72-.88,1-1.17a6,6,0,0,1,.84-1,19.74,19.74,0,0,1,1.76-1.08c.15.27.47.57.42.79C57.36,120.06,55.91,120.7,54.81,121.63Z"/>
            <path class="cls-1" d="M57.94,41.64c.52,0,1,.68,1.86,1.31a7.64,7.64,0,0,1-1.69,1.1A1,1,0,0,1,56.83,43C56.9,42.44,57.56,41.63,57.94,41.64Z"/>
            <path class="cls-1" d="M51,8.22c-.31-.08.52-1.73,1.14-1.92.82-.25,1.55-.81,2.41.29.34.42,1.68.23,2.52.08s1.37-.72,2.13,0c.17.16.74-.81.9.08s-.44.88-1.06.81H59a16.43,16.43,0,0,0-2.06-.17c-.69,0-1.49-.07-1.66,1-.11.66-.61.79-1.25.66a1.45,1.45,0,0,0-1.06.08C51.65,10.2,51.72,8.42,51,8.22Z"/>
            <path class="cls-1" d="M64,92.33c.15-.07.13-.69.08-1-.08-.58-.3-1.16-.33-1.76,0-.2.54-.64.6-.6,1.07.71,1.47,0,2-.78.23-.31.79-.39,1.2-.54a2.42,2.42,0,0,1,.25.41l-.34.17c.07.15.11.38.22.43.7.32,1.42.59,2.13.87a1.62,1.62,0,0,0-.81-2s-.13-.09-.13-.13a3.17,3.17,0,0,1,0-.66c1.49-.09.64-2,1.74-2.27.17,0,.5.26.66.47s.32.78.6,1c.46.4.29.6,0,1a3.69,3.69,0,0,0-.69,2,2.42,2.42,0,0,1-1,2.28c-.56.45-.64,1.55-1.6,1.83.07.16.12.46.22.48,1.22.19.48.87.3,1.31-.32.77-.82.47-1.33.16a2.22,2.22,0,0,0-1-.37,4.15,4.15,0,0,1-2.79-1.18C63.69,93.07,62.94,92.78,64,92.33Z"/>
            <path class="cls-1" d="M77.49,175l2.2,1.37-2.4.58,0-.11c-.12,0-.26,0-.35,0-.52-.29-1-.59-1.53-.89.59-.35,1.18-.72,1.78-1.06C77.23,174.86,77.39,175,77.49,175Z"/>
            <path class="cls-1" d="M79.55,3.43c.31-.38.67-.71,1-1.1a7.26,7.26,0,0,0,.52-.9c0,.34,0,.68.06.91-.46,1-.13,1.48.81,1.67a7.06,7.06,0,0,1,1.16.53c.34.15.69.28,1,.42-.43.28-.85.76-1.3.8a8.75,8.75,0,0,1-2.55-.17C79.05,5.36,78.77,4.41,79.55,3.43Z"/>
            <path class="cls-1" d="M101.23,133.48a2.7,2.7,0,0,0,.87.26,3.59,3.59,0,0,0,1-.33,5.08,5.08,0,0,1-.77-.29c-.37-.19-.86-.34-1-.65s.29-.68.53-1c.44-.52.33-.82-.27-1.1-.37-.18-.66-.54-1-.68a1,1,0,0,0-.75.21c0,1.46-.83.91-1.62.77a13.93,13.93,0,0,0-2.33,0s-.1-.1-.1-.14c.14-.8,0-2.05.48-2.29.76-.42.76-1,1-1.54s.55-1.53,1.1-1.86c1-.63,1.86-1.13,1.64-2.51,0-.15.52-.35.76-.56s.66-.67,1-1a11.75,11.75,0,0,0-1.56-.66c-.44-.11-1.1.17-1.37-.06-1.15-1-2.21-.31-3.26.08-.65.25-1.4.64-.17,1.28a1,1,0,0,1,.33,1,5.32,5.32,0,0,1-1.08,1.15c-.15-.33-.31-.67-.46-1s-.14-.51-.31-.64a1,1,0,0,0-.66,0,.61.61,0,0,0-.28.38c.85.91-.14,1.54-.28,2.3a3.43,3.43,0,0,0,.15,2.21c.7,1.1.24,1.35-.67,1.89a5.83,5.83,0,0,0-2.22,2.27,20.13,20.13,0,0,0-1,3.79c-.21.78-2.21,1.6-2.88,1.18-.15-.09-.36-.33-.32-.42.58-1.47-.77-.49-1.11-.81s-1-.43-.88.51a1.6,1.6,0,0,1-.82.29c-.41,0-.85-.22-1.23-.15-1,.16-1.35-.4-1.64-1.12-.7-1.69-1.44-3.3-3.38-4-.39-.13-.64-.66-1-1,.39-.34.72-.83,1.17-1,.63-.23,1.32-.46,1.08-1.16-.12-.37-.91-.66-1.43-.73-1.49-.2-2.26-.75-2.45-2-.1-.64-.22-1.29-.33-1.94-.39.51-.74,1-1.17,1.52-1.55,1.72-1.56,1.71-.46,3.87a2.68,2.68,0,0,1,.12.65c-.27,0-.61,0-.8-.12a3.83,3.83,0,0,1-1.21-4.78c.34-.6,0-1.69,1.16-1.82.11,0,.25-.57.21-.84-.27-1.65-.58-3.3-.91-4.94,0-.06-.43-.12-.45-.08A16.1,16.1,0,0,0,68.77,119a10.23,10.23,0,0,0,0,3.22c.11,1,0,1-.91.67-1.11-.32-1.87-.57-1.62-1.89a1.89,1.89,0,0,0-.31-.11h0l0,0h0c.3-.38.78-.75.78-1.12a4.79,4.79,0,0,0-.53-2c-.08-.19-.89-.29-.93-.2a11.25,11.25,0,0,1-.9,2c-.45.52-1.54-.49-2.05.57-.36.74-.73,1.4-.1,2.16a4.24,4.24,0,0,1,.42.75s0,0,0,0h0l-1.75.17a9.15,9.15,0,0,0,0-1.48c0-.14-.56-.39-.64-.32-.79.63-1.29,1.92-2.68,1a.2.2,0,0,0-.1.13c0,1-.5.87-.9.28-.67-1-.78-.42-1.13.23s-1.18.94-1.23,1.45.73,1,1.12,1.47a2.52,2.52,0,0,1,.14.33c.52,1.07,1.49,1.15,2.5,1.09a1.26,1.26,0,0,0,.43-.19c-.15-.08-.31-.14-.45-.23s-.28-.21-.42-.32c.08-.07.16-.21.23-.21a8,8,0,0,1,2.71.24c.63.27,1,1.13,1.44,1.78.11.18,0,.76-.16.81-1.6.57-.22,1.35-.14,2,0,.1.3.16.46.24-.06.08-.1.21-.17.24-.92.36-.39,1-.31,1.55.2,1.2,0,1.41-1.22,1.23-.54-.07-1.06-.29-1.6-.36-.16,0-.36.25-.54.39.14.14.31.42.43.4,1-.14,1.78,1.07,2.86.4,0,0,.7.6.64.81-.12.5-.43,1.23-.79,1.32-1.86.43-.38,1.57-.33,2.11.1,1,.81.07,1.2-.08,1.07-.43,1.45.45,1.87,1,.12.17-.36,1.09-.69,1.17-1.55.41-1.09,1.75-1.41,2.72,0,.05.53.4.64.34.31-.17.49-.56.78-.76a2.23,2.23,0,0,1,.8-.17c0,.28.17.72,0,.83A5.31,5.31,0,0,0,62.37,148,2.36,2.36,0,0,1,60,149.67c-.21,0-.41.31-.62.48.24.17.52.5.72.47a4.27,4.27,0,0,0,1.25-.57c1.25-.75,2.45-.82,3-.06a1.61,1.61,0,0,1,.18,1.13c0,.12-.58.21-.89.22a2.89,2.89,0,0,1-.77-.22,3.54,3.54,0,0,0,.1,1c.75,1.8.77,1.79-1.21,2.19a3.17,3.17,0,0,0-.71.36c.29.17.58.47.87.48s.69-.37,1-.35c.86.07,2.1-.27,2.22,1,.22,2.44,2.25,3.64,3.4,5.44.29.47,2,.32.75,1.54.13.1.29.32.39.3a.84.84,0,0,0,.55-.36c.58-1.55,1.13-3.12,1.71-4.67,0-.1.31-.11.48-.17.22,1.34,2.26,1.29,2.23,2.9,0,.27.71.55,1.09.83,0-.34.09-.67.15-1a1.87,1.87,0,0,1,2.64-1.58c.79.29,1-.14.85-.84a1.51,1.51,0,0,1,.65-1.89c.55-.38,1-.9,1.52-1.31,1.4-1.09,1.44-2.39.09-3.61-.15-.14-.19-.4-.29-.6.25-.09.59-.33.74-.24a4.57,4.57,0,0,1,1.55,1.17,5.2,5.2,0,0,1,.92,2.25c.13,1.15,1.64.36,1.74,1.4,0,.22.27.41.41.61,0-.27.17-.58.08-.8a8.38,8.38,0,0,0-.74-1.25c-.86-1.33-1.74-2.64-2.55-4a1,1,0,0,1,.31-.85c1.11-.29,1.35-.65.78-1.51-.2-.31-.66-.51-.72-.8a5.39,5.39,0,0,1,.08-1.49,7.16,7.16,0,0,0,.9.66c1.11.59,2.22,1.16,3.36,1.67.18.08.61-.16.77-.37.54-.67,1.08-1.67,1,.23a3.45,3.45,0,0,1,.72,0,2.54,2.54,0,0,1,.82.28,5.53,5.53,0,0,1-.42,1.53,4.93,4.93,0,0,1-1-.26c-.15-.05-.41-.22-.43-.2a7.4,7.4,0,0,0-1.2,1.83,2.35,2.35,0,0,0,.3,1.58c.07.14.73,0,1.12,0,1.51-.19,2.13.52,1.62,2a2.62,2.62,0,0,0,.47,2.84c.23.25.72.28,1.09.41,0-.39.23-.86.07-1.13-.74-1.27-.41-2.06.91-2.58.17-.07.27-.33.4-.5-.2-.08-.4-.15-.59-.24s-.59-.32-.88-.47a3.5,3.5,0,0,1,.68-1c.17-.12.57.1.87.16s.65.13.47-.52c-.48-1.75-.85-3.53-1.19-5.32a3.05,3.05,0,0,1,.06-1.8c.26-.57.83-1.3,1.37-1.41,2.31-.45,2.43-.63,1-2.48.49.25,1,.53,1.47.73a1,1,0,0,0,.64,0c.2-1.42,1.63-1.06,2.37-1.68.25-.2.48-.43.72-.66a2.81,2.81,0,0,0-1,0,6.42,6.42,0,0,1-4.47-.08c-.35-.1-.9-.24-1.07-.07-.46.46-.63,1,.07,1.54a5.27,5.27,0,0,1-.71-.18c-.49-.18-1-.4-1.44-.6a5.42,5.42,0,0,1,.83-1.43c.62-.56.54-1.08.32-1.78-.34-1.06.38-1.88,1.26-1.37,1.24.71,2.34.37,3.52.14a2.24,2.24,0,0,1,.74.14c-.18.16-.33.37-.54.44a17.15,17.15,0,0,0-2.05.73c-.24.13-.22.71-.32,1.09a2.94,2.94,0,0,0,1-.15c.46-.27.83-.93,1.26-.95,1.24-.06,1.43-.74,1.32-1.71S100.46,133.24,101.23,133.48Zm-13.72,6.67c-1.41-1.27-3.21-1.3-4.91-1.55-.82-.12-1-.6-.73-1.07s.9-.78,1.37-1.15a3.22,3.22,0,0,0,.3.71c.3.4.59.9,1,1.08.2.09.87-.38,1-.72.22-.59.32-.7.82-.26s1.23,1,1.83,1.46a7.64,7.64,0,0,1,.78.95C88.35,139.85,87.67,140.28,87.51,140.15Z"/>
            <path class="cls-1" d="M107.79,165.55a1,1,0,0,1,.1,1,1.08,1.08,0,0,1-.91.38,8.39,8.39,0,0,1-1.71-.63c-.61-.25-.92-.44-1.31.49-.47,1.17-1,2.57-2.76,2.64-.21,0-.38.85-.56,1.31a3,3,0,0,0,.89,0,1.2,1.2,0,0,1,1.61,1c0,.26-.67.91-1.07.94-1,.07-1.14.52-.95,1.38a1.31,1.31,0,0,1-.32,1,3.16,3.16,0,0,0-1.33,2.22c-.08,1.28-.78,1.46-2,.81-1.57-.83-2-.61-2.32,1.17a2.33,2.33,0,0,1-.06.53c-.07.15-.24.25-.36.37-.11-.15-.33-.31-.32-.46,0-.72.17-1.32-1-1.1-.4.08-1.14-.51-1.39-1-.39-.71-.85-.63-1.52-.79A3.46,3.46,0,0,0,87,178.13c-.24.23-.78.16-1.18.23,0-.34,0-.69.1-1a4.07,4.07,0,0,0,.23-1c-.28-2-.28-2.05,1.45-2.42a6.6,6.6,0,0,0,.63-.2,3.1,3.1,0,0,0-.51-.45c-1-.48-1.91-.93-2.86-1.39-.06.11-.11.22-.16.33s-.27.08-.36,0c-.37-.2-.72-.43-1.07-.64.35,0,.7-.08,1-.14s.5-.11.75-.16a3.67,3.67,0,0,0-.5-.47c-.2-.14-.49-.16-.65-.32-.47-.5-.81-1,.2-1.32.63-.21,1.19-.62,1.82-.81s1.22-.5,1-1.4c0-.16.28-.6.41-.59,1.75.16,2.93-1.22,4.46-1.65.12,0,.24-.6.13-.74-.49-.68-.72-1.12.46-1a.58.58,0,0,0,.44-.08,1.79,1.79,0,0,1,1.73-.48c.68.2.8.63.67,1.27-.2,1,.43,1,1.21,1s1.77.12,2.66.14a1.93,1.93,0,0,0,1.16-.22c.58-.45.91-.34,1.39.15a1.29,1.29,0,0,0,1.09.17,19.49,19.49,0,0,1,2.91-.54C106.93,164.14,107.19,165,107.79,165.55Z"/>
            <path class="cls-1" d="M113.18,124.38s-.09.41-.3.53a.81.81,0,0,1-.76-.2c-.53-.9-.8-.38-1.1.14a3.72,3.72,0,0,1-.66,1.08,3,3,0,0,1-1.14.29,3.45,3.45,0,0,1-.21-1,14.26,14.26,0,0,1,.29-2.26c.07-.33.08-1.17.81-.26.29.35,1.22.18,1.86.25S113.36,123.15,113.18,124.38Z"/>
            <path class="cls-1" d="M121.36,88.37c.44-.4.69-.79,1-.91a4.31,4.31,0,0,1,2.16-.35.82.82,0,0,1,0,1.46,8.8,8.8,0,0,1-2.35.79C122,89.39,121.75,88.85,121.36,88.37Z"/>
            <path class="cls-1" d="M116,118.52a.73.73,0,0,1-.13.65.62.62,0,0,1-.58,0c-1.42-1-2.85,0-4.27-.06a.94.94,0,0,0-.72.48c-.57,1.39-1.85,1.45-3,1.68a3.29,3.29,0,0,1-.7,0,5.07,5.07,0,0,0,.48-.56c.08-.12.12-.4.06-.44s-.46-.29-.65-.24c-.89.23-1.75.55-2.64.77-.2,0-.46-.16-.69-.24.58-.18-.46-1.26.65-1.16a3.05,3.05,0,0,0,1.09,0,7.79,7.79,0,0,0,1.2-.65,7.72,7.72,0,0,0-.94-1,.83.83,0,0,0-.75.17c-.64.69-1.39,1.23-2.27.68-.64-.4-1.73.66-1.94-.62-.09-.52-.1-1.31.21-1.59a2.65,2.65,0,0,1,1.91-.73c.93.16.24.79.07,1.25a3.63,3.63,0,0,0-.1.66c.17,0,.38.06.5,0,1-.69,2-1.37,3-2.12.2-.15.13-.62.19-1a6.26,6.26,0,0,0-.87,0,1,1,0,0,0-.48.26c-.62.58-1,.77-1.36-.32a6.41,6.41,0,0,0-1.24-1.67c.21-.9,1.54-3.08,2.14-3.12.26,0,.78.34.77.49-.14,1.38.78.87,1.42.82a8.08,8.08,0,0,1,1.26-.21c.75.06.69-.27.69-.86a2.66,2.66,0,0,1,2.47-2.37c.6,0,1.2,0,1.81,0a4.91,4.91,0,0,0,4.48-2.85,1,1,0,0,0-.25-.8c-.14-.14-.49-.09-.74-.12.25-.14.5-.3.77-.42q.67-.3,1.35-.57c.72-.27.83-.49,0-.64,0-.24,0-.63.16-.69,1-.47,2.1-.86,3.16-1.29.45-.18.9-.36,1.33-.58s1-1.11,1,.42c0,.89,1.2,1,2,1.18a4.3,4.3,0,0,1,1.17.63c-.29.37-.5.84-.87,1.06-.9.56-1.89,1-2.81,1.51-.2.12-.45.53-.38.67.65,1.28-.35,1.72-1.15,2s-1.56,1.24-2.8,1.21c-.53,0-1.09,1.36-1.64,2.1a1.82,1.82,0,0,0,.5.22,1,1,0,0,1,.91,1.49c-.86,1.15-.67,3.19-2.79,3.38-.44,0-.88.64-1.23,1-.49.6-.85,1.2.46,1.26C115.48,117.73,115.81,118.19,116,118.52Z"/>
            <path class="cls-1" d="M130.84,135.08c-.07.44-.09.9-.2,1.34a7.44,7.44,0,0,1-.47,1.18c-.32.73-.73,1-1.58.62-1.29-.52-1.33-.43-1.29,1.11a3.74,3.74,0,0,1-3.67,4c-.68,0-1.53,0-1.36-1.19,0-.37-.42-.86-.73-1.21s-.93-.51-.9-.68a4.26,4.26,0,0,1,.66-1.42,3.2,3.2,0,0,1,.56-.54,8.42,8.42,0,0,0-.87,0c-1.38.17-2.78.51-4.09-.27a6.64,6.64,0,0,1-.71-.6c.28-.07.55-.15.83-.2a4.08,4.08,0,0,1,.8,0,2.72,2.72,0,0,0,.84.09,9,9,0,0,0,1.43-.34c-.12-.47-.23-.94-.38-1.4a2.84,2.84,0,0,0-.34-.58,3.71,3.71,0,0,1,.67.06,16.68,16.68,0,0,0,9.29-.05A5.47,5.47,0,0,1,130.84,135.08Z"/>
            <path class="cls-1" d="M145.43,135c-.32-.61.72-1.57,1.57-1.62,1.1,0,1.69.41,1.72,1.38s-.9,2.12-1.57,1.83A3.73,3.73,0,0,1,145.43,135Z"/>
            <path class="cls-1" d="M145.72,143c1.27-1.61,1.51-1.68,3.24-.67a7.94,7.94,0,0,1,1.3,1.44,9.49,9.49,0,0,0-1,.38c-.66.34-1.3.73-2,1a1.5,1.5,0,0,1-1.06.14C144.75,144.61,144.72,144.3,145.72,143Z"/>
            <path class="cls-1" d="M150.56,109.54s.41.11.61.21.3.28.27.32c-.49.8-1,1.59-1.51,2.38a9.27,9.27,0,0,1-.84,1.4c-.6.65-.93,1.16-2.08.16a3,3,0,0,1-.91-3.64c.58-1.85.91-2,2.82-1.93C149.68,108.57,150.91,107.92,150.56,109.54Z"/>
            <path class="cls-1" d="M142.53,126.29a11.86,11.86,0,0,1-.93.82,10.21,10.21,0,0,1-1.43.64c.26-.47.52-1,.79-1.42.08-.13.27-.27.25-.38-.13-.86-2.82-3.09-3.66-3a.74.74,0,0,0-.44.61,2.45,2.45,0,0,0,.53,1.13c.46.55.93,1.06.21,1.7a4.25,4.25,0,0,1-1.08.49c-.26-.58-.83-1.24-.71-1.73.42-1.78-.82-2.22-1.94-2.93a6.63,6.63,0,0,1-1.69-1.73c-.09-.13.53-1,.58-1,1.58.66,2.63-.73,4-1,.67-.12,1.33-.31,2-.49a10.56,10.56,0,0,0,1.91-.59c.8-.37.89-.35,1.15.39s.75,1.59,1.88,1a2.34,2.34,0,0,1,.66-.12c-.06.28-.11.56-.17.83,0,.06-.08.1-.11.15-.25.39-1.18.74-.43,1.24s1.36-.19,1.52-.86c.29-1.2.77-1,1.85-1,1.44,0,3.38.93,4.53-.93.37-.59.5-.17.69.18a19.85,19.85,0,0,0,1.38,2.31c.78,1.06.53,1.92-.75,2.33-1,.33-2.08.67-3.1,1-.12,0-.18.51-.12.74a4.94,4.94,0,0,0,.46.88c.78,1.6,1.44,1.78,2.91.76.15-.1.28-.32.43-.32.56,0,1.13,0,1.7,0-.16-.51-.52-1.07-.44-1.55.13-.91.86-.29,1.33-.31a8.87,8.87,0,0,1,1,0l-.57.77c-.54.73-.24,1.25.55,1.22s1,.28,1.33.84a3.74,3.74,0,0,0,2.74,1.94c.2,0,.38.27.56.41-.21.11-.43.22-.65.35a2.42,2.42,0,0,0-.69.45c-.49.64-.87,1.36-1.92.88a1,1,0,0,0-.89.44c-.26,1-.61,1.64-1.79,1.29,0,0-.23.18-.21.24.33,1.45-.85.59-1.29.84-1,.56-1.65.56-1.76-.83,0-.29-.59-.58-1-.79s-.93-.28-1.32-.54c-1.25-.82-1.21-1,.05-1.71.36-.21.79-.65.79-1a1.44,1.44,0,0,0-.69-1.14,2.39,2.39,0,0,0-1.49.28,3.62,3.62,0,0,0-.88.83c-.11-.44-.21-.87-.32-1.31l.37-.12c-.24-.65-.45-1.34-.74-2-.59-1.28-.48-1.51.84-2a12.75,12.75,0,0,0,2-1.06c.12-.08.08-.42.12-.64-.2.06-.47,0-.58.17-1,1.18-2,.91-3,0-.39-.36-.52-.41-.7.15s-.51,1.36-.78,2c-.33.85-.54,1.79-1.88,1.33C143.32,125.61,142.85,126,142.53,126.29Z"/>
            <path class="cls-1" d="M160.66,124.8c-1.25-.37-.46-1-.27-1.5a1.16,1.16,0,0,1,.87-.5c.13,0,.36.46.48.73.21.48.38,1,.57,1.5l-.23,0c-.1,1-.19,2-.3,2.93,0,.07-.2.19-.23.19a6.42,6.42,0,0,1-1.31-1.35,1.25,1.25,0,0,1,.28-1.2C161.14,125.09,161.25,125,160.66,124.8Z"/>
            <path class="cls-1" d="M59.77,76.28c.12.12.24.26.36.4a1.57,1.57,0,0,0-.17.21l-.09.15C59.84,76.79,59.82,76.53,59.77,76.28Z"/>
            <path class="cls-1" d="M188.35,0H158.22c.07.24.09.51.15.82-.1.17-.2.37-.31.57-.09-.22-.16-.46-.27-.68L157.42,0h-55a2.36,2.36,0,0,1-1.61,1.56c-.63.21-1.17.19-.44.95.09.09,0,.4-.09.61-.2-.09-.49-.11-.59-.26-.91-1.26-1.47-.69-2.25.21a5.23,5.23,0,0,1-2,1.08c-1.52.6-3.08,1.15-4.61,1.74-.5.19-.9.77-1.34-.23-.21-.48-3.33.12-3.81.61s-.6.8,0,1.17c.85.49.53.81-.15,1.06a9.13,9.13,0,0,1-1.23.37c-2.31.45-3.09,1.66-2.73,4a2,2,0,0,1-.44,1.64c-1.19.88-.31,1.63.18,2.09s1.61.48,1.37,1.4a5.81,5.81,0,0,1-1.4,1.87c-.14.17-.42.21-.65.3-1.34.54-1.4.67-.19,1.57.67.49,1,.69,0,1.12a.38.38,0,0,0-.15.32c.29,1.45-.34.73-1.07.6a6.36,6.36,0,0,0-3,.31c-1,.35-1.78.62-2.71-.18s-2.36-.44-2.92-1.75a3.37,3.37,0,0,1-.94.29,3.23,3.23,0,0,1-1.35-.39c-.09-.05.12-.61.19-.95.1-.5.19-1,.29-1.48a6.77,6.77,0,0,0-2,.64,2.47,2.47,0,0,0-1,1.67c0,.84-.38.84-1,.85a2.11,2.11,0,0,0-.65.23c.16.17.32.35.49.51a1.48,1.48,0,0,0,.3.21l1.44.82c-.48.2-1.16.27-1.39.62s-.38,1.3-.12,1.57c.77.82,1.43,1.43.64,2.66-.2.3.25,1.17.6,1.64.18.25,1,.1.53.77s-.75,1.07-1.13,1.6c-.12-.13-.34-.26-.34-.4,0-.48.15-1,.11-1.43,0-.23-.35-.43-.53-.65-.27.35-.85.82-.77,1,.29.64-1.36,1-.19,1.63.17.09.36.12.52.21,2.45,1.29,2.5,3.68.11,5.22-.1.07-.26.07-.33.16a3.42,3.42,0,0,0-.4.52c.2.11.41.34.58.32.94-.14,2,0,2.41-1.27.05-.18.33-.3.5-.45a3.58,3.58,0,0,1,.18.64c.06.63-.81,1.62-1.52,2a1.69,1.69,0,0,0-.64.92,13.37,13.37,0,0,0-.75,2.35,16.42,16.42,0,0,0-.12,2.43c0,.73,0,1.41-1.1.81a2.3,2.3,0,0,0-1.06-.16c-.16,0-.32.16-.47.26.13.15.23.41.38.43.55.1,1.05.25.77.92s-.73.81-1.29.2c0,0-.26,0-.39.07.36.86-1.28,1.61-.12,2.58.24.2.1.85.14,1.29-.48-.1-1.11-.05-1.4-.33-.63-.64-1.16-1.3-2.17-.93-.15.05-.34.41-.29.51.63,1.16-.19.92-.77.75-.39-.12-.69-.48-1.07-.64a1.88,1.88,0,0,0-2,0,8,8,0,0,1-3.11,1c-1.08.15-1.93.7-2,1.59a2.43,2.43,0,0,1-2,2.29c-.26.08-.42.47-.62.72.34,0,.73.17,1,0a10.26,10.26,0,0,0,1.84-1.14,4,4,0,0,1,3.36-.27c1.19.78,1.21,1.2.08,2.2a3.08,3.08,0,0,0-.42.52,10.19,10.19,0,0,1,1.92.25c1.44.46,2.72,1.06,2.67,3,0,.68.5,1.37.66,2.07.28,1.22,1.71.25,2.07,1.11.3.68-.29,1.7.82,2.13a5.15,5.15,0,0,1,1.46.79,8,8,0,0,1,1.45,1.57.81.81,0,0,1-.4,1.34c-.48.22-.79.75-1.24,1.05-.95.63-.81,1,.23,1.21s.72.8.3,1.36a4.28,4.28,0,0,1-.6.67,6.49,6.49,0,0,0-.95.93,1,1,0,0,0,.5.37c.7.16.95,1.5,2,.76a5.51,5.51,0,0,0,.68.81,5.47,5.47,0,0,0,1.11.55,8,8,0,0,0,.42-.89c.35-1.12.54-1.18,1.43-.4l.76.65c.06-.33.13-.65.19-1L67,77.48c.12-.24.2-.63.38-.68a1.06,1.06,0,0,1,.8.22c.87.63.84,1.83-.14,2.84-.4.41-.69.49-.33,1.23s-.63,1.12-1.27,1.09a3.48,3.48,0,0,1-2.19-.67,10.74,10.74,0,0,0-2.8-1.92,4.56,4.56,0,0,1-1.36-1.85,2.29,2.29,0,0,1-.2-.69.25.25,0,0,0,0,.07c-.45.82-.19,1.6.8,2.74a13.93,13.93,0,0,0,2.29,1.79,7.79,7.79,0,0,1,1.09.86,2.21,2.21,0,0,1,.29.82,3.91,3.91,0,0,1-.84-.06c-1.36-.37-4.13.74-4.71,2-.09.2,0,.69.14.76,1.24.62.94,1.09-.07,1.58-.22.11-.35.4-.51.6a2.56,2.56,0,0,0,.91.19c1.31-.21,2.66-.27,3.66-1.37a1.24,1.24,0,0,1,1.17-.12c.6.66.92.31,1.32-.16a.63.63,0,0,1,.47-.18,1.47,1.47,0,0,0,1.77-.7A2,2,0,0,1,70,84.39c.38,0,.87-.46,1.23-.8s.41-.69.68-1A1.07,1.07,0,0,0,72,81c-.71-1-.16-2.57.94-3.32.73-.5,2.07-.48,1.85-1.91,1.59-.11,1.27-1.58,1.79-2.45.1-.19.34-.29.52-.43a5.28,5.28,0,0,1,.16.66c0,.24-.06.49,0,.72.52,2.7,2.07,3.6,4.7,2.69.25-.09.3-.73.44-1.11.06-.15.1-.31.15-.47.14.1.39.17.41.29.26,1.86,1.91,2.53,3.14,3.52a3.29,3.29,0,0,1,.69,4.64c-.13.19-.33.46-.28.64.62,2.08-.41,3.84-1,5.69,0,.09.42.47.49.43a11.19,11.19,0,0,0,1-.72c.33-.22.69-.39,1-.58a4.13,4.13,0,0,1-.18,1.24,1.53,1.53,0,0,1-.79.69,1,1,0,0,0-.48,1.66,5.16,5.16,0,0,1,.18,5.1c0,.12.14.34.21.51,1-.55,2.19.67,3.25-.51.61-.68,1.11-1.17,1-2.13a6.46,6.46,0,0,1,.27-1.6c.07-.36.16-.72.24-1.09.62.18,1.5.15,1.82.56A17,17,0,0,1,95.37,97c.12.25-.15.68-.24,1-.21.72-.82,1.42.05,2.16.09.08-.28.64-.34,1A2.33,2.33,0,0,0,95,102c.18-.13.39-.23.56-.38,1.37-1.21,1.88-1.1,2.67.57a4.38,4.38,0,0,0,.53.95c.82,1,1.3,1.74.07,2.88-.88.81.31,2,.07,3,.26,0,.71.07.75,0a2.48,2.48,0,0,0,.15-1c0-.68.27-.82.93-.69,1.54.29,1.55.26,1.43-1.36a9.31,9.31,0,0,0-.18-1.16c-.25-1.2.12-1.92,1.38-2.14,1.1-.2,1.17-.89,1.24-1.73,0-.29.09-.75.29-.85,1.13-.6,2.32-1.09,3.44-1.69.15-.08.15-.74,0-1-.41-.63-1.64-1.2.07-1.74a.31.31,0,0,0,.12-.3C107.85,93,110,92.34,111,91c.44-.56.89-.56,1.57-.1a11.87,11.87,0,0,0,2.83,1.2c.19.07.73-.22.73-.33-.06-1.17.81-1.16,1.6-1.35.33-.08.84-.3.9-.54a11.35,11.35,0,0,0,.6-3.51c-.11-1.28-1.39-1.82-2.44-2.4a3,3,0,0,1-.77-.49c-.24-.25-.53-.61-.51-.9s.5-.41.8-.54c.45-.2,1.09-.2,1.37-.52,1.24-1.42,3-1.46,4.62-1.87.66-.15,1.48-.5,2-.26,1.69.78,3.73.43,5.26,1.79a4.31,4.31,0,0,0,4.4,1.14c.12,0,.29,0,.36,0,1.24-1.19,2.46-2.41,3.71-3.59a17.76,17.76,0,0,1,1.46-1.13c.23.45.47.9.69,1.36,0,.1,0,.29,0,.36a12.69,12.69,0,0,0,1.41,1.52c.11.1.88-.31.86-.4a8.11,8.11,0,0,0-.54-1.8c-.12-.27-.42-.45-.6-.7s-.49-.76-.73-1.15c.56-.3,1.12-.64,1.7-.9a2.5,2.5,0,0,1,.83-.07c-.13-.18-.21-.44-.39-.56-.83-.59-1.08-1,.18-1.38.19,0,.27-.57.36-.89.37-1.25,1-1.47,1.94-.66.65.54,1.2,1.25,2.23.74.59-.29,1.6.66,1.93-.6,0-.09.41-.2.47-.14,1.13,1.05,2.82.45,4,1.37a7.28,7.28,0,0,1,.93,1.06l-1.13.74c-.44.27-.87.56-1.3.85a5.38,5.38,0,0,0,.84,1.17c.76.62,1.57,1.33,2.62.36.12-.11.7.07.85.28a1,1,0,0,1,0,.92c-1,1.59-.9,1.49.18,3a13.09,13.09,0,0,1,1.56,3.64A2.93,2.93,0,0,0,161,87.87a1.7,1.7,0,0,0,.63-.29c-.15-.15-.27-.4-.44-.44a2.9,2.9,0,0,1-2.28-2.58,3.38,3.38,0,0,1,1.66-4c.2-.12.54-.24.69-.15a9.94,9.94,0,0,1,2.92,2,2.5,2.5,0,0,1-.34,3.21c-.8.87-.8,2.31-2.07,2.9-.17.07-.17.5-.26.76a5.61,5.61,0,0,1,.67-.19,4.34,4.34,0,0,1,1,0,16.92,16.92,0,0,1,.16,1.76,7.1,7.1,0,0,0-1,0,7.58,7.58,0,0,0-.93.17c.21.2.38.52.63.6.53.18,1.12.19,1.65.37s1,.34,1.16.67a6.87,6.87,0,0,1,.58,2.62c0,.49-.67,1-1,1.44-.54.66-1.09,1.32-1.59,2-.09.12,0,.4.08.61.13-.1.26-.2.38-.31.94-.87,1.86-1.78,2.84-2.6a3.21,3.21,0,0,1,1.12-.37,3.26,3.26,0,0,1,.05,1.31c-.44,1-1.05,1.94-1.53,2.93-.26.56-.38,1.19-.59,1.78-.07.22-.2.6-.3.6-.85,0-.58.89-.73,1-1.18.69-.85,2.07-1.49,2.89-.53.65-1.72,1.45-2.29,1.25-.87-.29-.62,0-.84.49-.59,1.36-1.32,2.67-2,4a4.94,4.94,0,0,0-.43.59,9,9,0,0,0-.28,1l1-.06c.49,0,1-.11,1.48-.15.74-.06,1.94.54,1-1.21-.64-1.23.79-3.58,2.06-4.28a4.87,4.87,0,0,0,1.64-1.41,3.66,3.66,0,0,1,3.1-2,2.44,2.44,0,0,0,1.07-.25c.86-.47.92-.5.9.4,0,1.1-.21,2.19-.3,3.28a6.31,6.31,0,0,0,0,1.44,2.16,2.16,0,0,0,.39.75c.07-.24.16-.5.21-.76.15-.77,1-1.44,1.68-1.22.82.28.64.94.44,1.54s-.66,1.47.77,1.08c.15,0,.41.64.71.75a3.82,3.82,0,0,0,1.89.3c.3-.07.62-.85.64-1.31.06-1.69,0-3.38,0-5.07-1-.21-.9-.8-.55-1.5a1,1,0,0,0-.52-.33c-1.63.07-.89-1.29-1.25-2a4.19,4.19,0,0,1,1-.33c.71-.07,2,.06,2-.1.26-1.22.77-.93,1.32-.31.36.42,1.65-.28,1.25,1a1.12,1.12,0,0,0,.67.36,1.46,1.46,0,0,1,1.68,1.34,3.37,3.37,0,0,1-1,2.21c-.58.53-1.06-.16-1.4-.72s-.62-.91-.94-1.37a9,9,0,0,0-.08,1.79c.16,1,.81,2.15.61,3.09-.28,1.35.88,1,1.26,1.45a.64.64,0,0,0,.33.08c.76.09.08-2,1.34-1,.86.7,1.13,0,1.7-.28.17-.09,1.07.6,1,.83-.13.76.31,1,.76,1.43.86.8.72,1.63-.08,2.5a5.57,5.57,0,0,0-.76,1.43c-.64,1.28-1,2.82-2.94,2.81-.24,0-.47.49-.73.72s-.53.41-.79.6a7.15,7.15,0,0,1,.08-1,10.27,10.27,0,0,0,.29-1c.06-.81-.44-1.27-1.14-.89a7.44,7.44,0,0,1-4.31.55c-1.59-.12-2.2-.49-2.61-1.92-.15-.53-.23-1.08-.39-1.61-.51-1.67-1.88-2-3-.65a6.71,6.71,0,0,0-.79,2c-.25.66-.27,1.68-1.4.74a.76.76,0,0,0-.72.18c-.4.63-.06,1.84-1.41,1.74.09.26.15.51.26.75.22.49.77,1.11.63,1.42-.4.85-.68,1.32.47,1.89.58.28-.08.74-.59.86-.17,0-.33.09-.5.13a1.4,1.4,0,0,0,.4.3A1.66,1.66,0,0,0,167,121c0-.23-.23-.57-.14-.68,1-1.07,1.95-2.13,3-3.14.17-.17.56-.13.84-.19a3.14,3.14,0,0,1-.07.87,9.16,9.16,0,0,0-.7,1.66c-.11.67-.08,1.49,1.07.88a2.49,2.49,0,0,1,1-.06c-.21.28-.42.56-.64.83s-.46.56-.71.82c-.1.11-.24.25-.36.25-1.11,0-1.11,0-1.16.51-.08.85.2,1.15,1.15,1.17s1.18.62.5,1.45c-.12.14-.37.22-.41.35-.12.44-.17.9-.25,1.36a3.43,3.43,0,0,0,1.2,0c.78-.31,1.65-.54,1.68-1.69,0-.26.67-.78.92-.72.88.21,1-.2.93-.86,0-.24,0-.49,0-.74.18.22.38.43.55.65.63.84,1,1.79,2.38,2,1.14.15,1.36,1.13.93,2.51,0,.14,0,.39.05.47,1,.86.66,1.71.06,2.6-.09.12-.05.33-.07.5a1.6,1.6,0,0,0,.64-.09c.87-.56,1.71-1.18,2.59-1.75.53-.35,1-.5.68.47-.16.51,1.07,1.66-.69,1.41.1.19.15.47.3.54,1.6.75,1.55,1.21.28,2.51a20.49,20.49,0,0,0-2.47,3.58c-.33.51-.43,1.16-.79,1.64s-1,.92-.22,1.48c.54.4.87,1.56,1.91.69a.8.8,0,0,1,.4.25,20.06,20.06,0,0,1-1.25,3.59,20.92,20.92,0,0,1-2.6,3.43c-.21.25-.85.26-1.24.16a3.69,3.69,0,0,1-1.11-.7c-.25.48-.8,1.06-.68,1.42.33,1-.33,1.3-.86,1.77a13.93,13.93,0,0,0-2.38,2.28c-.49.69-.62.95-1.3.21a5.29,5.29,0,0,0-1.71-1.05,1.16,1.16,0,0,0-1,0c-1.76,1.43-3.64.54-5.45.26-.33-.06-.74-.9-.78-1.39-.12-1.26.35-2.62-1.11-3.5-.21-.13-1-.89.11-1.17-.07-.27-.06-.69-.24-.79-.84-.49-1.72-.92-2.61-1.34-.14-.07-.44-.07-.51,0-.77,1-2.36,1-2.94,2.36-.37.88-.81,2.21-2.39,1.61-.15-.06-.43.19-.62.34-.67.52-1.33,1.24-1.52-.38,0-.25-.81-.68-1.1-.59s-1,.7-1,1.05c.06,1.18.24,2.32-.77,3.24a.73.73,0,0,0-.1.68c.37.85.13,1.06-.78.95-1.06-.13-1.45.64-1.83,1.48s-.09,2.2-1.58,2.49c-.23,0-.3.87-.44,1.33l1.12.09a5.53,5.53,0,0,1,.91,0,7.54,7.54,0,0,0,2,.19c.15-.18.33-.58.27-.64-1.48-1.28.48-1.18.74-1.43a1.32,1.32,0,0,1,2,.63c.14.82.46.87,1.09.81.22,0,.45.17.69.24,1.09.31.35,1.81,1.6,2.29.57.23.73,1.78.83,2.76.05.43-.47.93-.78,1.37s-.67.82.32.85a1.74,1.74,0,0,1,1.15.64c.58.82,1,1.76,1.55,2.58a8.47,8.47,0,0,0,.87,1c0-.75.07-1.49.12-2.24s.32-1.08,1.05-.56c.57.41.84.27,1-.4a1.57,1.57,0,0,1,.61-.81,2.16,2.16,0,0,1,.84-.18c0,.26,0,.57-.09.76-.35.58-.76,1,.43,1.11.29,0,.69,1.23.62,1.84a1.38,1.38,0,0,1-1.44,1.36,2.68,2.68,0,0,0-1.44.76c-.46.39-.81.91-1.23,1.34a3.06,3.06,0,0,1-.61.36c0-.15-.11-.29-.16-.44l-.53.35c-.25-.43-.5-.85-.73-1.27a1.41,1.41,0,0,1-.07-.47c-.12.14-.3.27-.33.43-.18.79-.48,1.32-1.48,1.1-.23,0-.62.37-.83.65s-.32.6-.22.8a.89.89,0,0,0,.74.36c.48,0,.94-.32,1.41-.36a2.75,2.75,0,0,1,1,.28c-.18.35-.29.8-.57,1a1.25,1.25,0,0,1-1.06.1c-1-.69-1.62.25-2.41.42s-1.28.62-2,.82c-.83.24-.63.62-.22,1a5.21,5.21,0,0,0,6.78,0,1.17,1.17,0,0,1,2,.51c.22.7,1.12,1.44-.12,2.17-.24.14.24,1.21,0,1.64-.53.94-1.55,1.63-1.93,2.61-.7,1.77-2.84,1.69-3.69,3.15l-.13.17h32.64A135.92,135.92,0,0,0,188.35,0ZM158.78,164.84a10.32,10.32,0,0,0,0,1.57,12.26,12.26,0,0,1-1.67-.92,10.22,10.22,0,0,1-1.21-1.33c.56-.32,1.11-.66,1.69-.94a7.48,7.48,0,0,1,1.23-.3,2.73,2.73,0,0,1,.31.91C159.14,164.17,158.81,164.49,158.78,164.84Zm34-37.31c-.12.32-.43.66-.38.95.13.78-.11,1.16-.9,1.24a1.25,1.25,0,0,1-1.43-1.1c-.2-.76-.33-1.53-.52-2.28-.23-.91.49-1,1-1.16.81-.26,1.81-.21,1.69-1.56,0-.27.67-.6,1-.9.28.37.56.74.84,1.09C193.7,125.13,193.26,126.33,192.81,127.53Zm13.71,7.1c-.16-.4-.26-1.11,0-1.3.42-.37.72-.5.25-1.07s-.16-1,.36-1.35.43-1.41,1.24-.9a13.28,13.28,0,0,1,2,2.1c-1.09,1.06-2,2-3,2.85C207.28,135.07,206.59,134.84,206.52,134.63Z"/>
            <path class="cls-1" d="M59.77,76.28c0,.25.07.51.1.76l.09-.15a1.57,1.57,0,0,1,.17-.21C60,76.54,59.89,76.4,59.77,76.28ZM6.31,0s0,0,0,0a.55.55,0,0,0,.42.18A1.54,1.54,0,0,1,7,0Z"/>
            <path class="cls-1" d="M60.13,76.68a1.57,1.57,0,0,0-.17.21l-.09.15c0-.25,0-.51-.1-.76C59.89,76.4,60,76.54,60.13,76.68Z"/>
        </g>
        <g id="Layer_2-2" data-name="Layer 2">
            <path class="cls-1" d="M207.18,127.19a7.39,7.39,0,0,0-1.57,1.33,6.37,6.37,0,0,0-1.52,2,4.72,4.72,0,0,0-.26,1.87,3.41,3.41,0,0,0,3.14,3.65,3.27,3.27,0,0,0,2.33-.11,3.66,3.66,0,0,0,1.46-2.64C211.19,131.25,211,125,207.18,127.19Z"/>
            <path class="cls-1" d="M194.94,121.52a4,4,0,0,0-2.14-.93,5.12,5.12,0,0,0-5.52,3,6.58,6.58,0,0,0,.19,4.24c.45,1.4,1.24,2.87,2.64,3.31a3.71,3.71,0,0,0,3.89-1.57,10.89,10.89,0,0,0,1.58-4.16C195.89,124,196.08,122.58,194.94,121.52Z"/>
            <path class="cls-1" d="M186.06,107.43a6.41,6.41,0,0,0-2.14-.24,4,4,0,0,0-1.47.18,1.43,1.43,0,0,0-.95,1.06c-.1.79.7,1.47.63,2.26,0,.5-.42.91-.59,1.38a3.59,3.59,0,0,0,0,1.84l.58,3a2.06,2.06,0,0,0,.55,1.23,1.82,1.82,0,0,0,1.43.23,5,5,0,0,0,2.86-1.24,5.44,5.44,0,0,0,1.37-3.64C188.47,111.49,188.39,108.24,186.06,107.43Z"/>
            <path class="cls-1" d="M184.64,128.25a3.09,3.09,0,0,0-1.69-.49,2.13,2.13,0,0,0-1.48.22,1.91,1.91,0,0,0-.62,1,7.2,7.2,0,0,0,.52,5.33,2.27,2.27,0,0,0,.57.76,2.67,2.67,0,0,0,1.47.44,5.7,5.7,0,0,0,1.65,0C187.91,135,186.18,129.46,184.64,128.25Z"/>
        </g>
    </g>
</svg>