<svg id="Layer_1" data-name="Layer 1" xmlns="http://www.w3.org/2000/svg" viewBox="0 0 300 190"><defs><style>.cls-1{fill:#fff;}.cls-2{opacity:0.8;}.cls-3{fill:none;}.cls-4{fill:#e6e6e6;}.cls-5{opacity:0.5;font-size:5.24px;fill:#f2f2f2;font-family:MyriadHebrew-Regular, Myriad Hebrew;}</style></defs><title>Artboard 1</title><rect class="cls-1" x="10.96" y="62.77" width="242.93" height="26.93"/><g class="cls-2"><path d="M300,20.66V56.51H0V20.75c0-.3,0-.61,0-.91H300c0,.1,0,.21,0,.31S300,20.49,300,20.66Z"/></g><line class="cls-3" x1="16.8" y1="62.77" x2="10.96" y2="68.65"/><polygon class="cls-4" points="12.96 62.77 10.96 64.77 10.96 62.77 12.96 62.77"/><polygon class="cls-4" points="16.96 62.77 10.96 68.81 10.96 66.03 14.2 62.77 16.96 62.77"/><polygon class="cls-4" points="21.11 62.77 10.96 72.99 10.96 70.2 18.34 62.77 21.11 62.77"/><polygon class="cls-4" points="25.11 62.77 10.96 77.02 10.96 74.24 22.35 62.77 25.11 62.77"/><polygon class="cls-4" points="29.11 62.77 10.96 81.05 10.96 78.28 26.36 62.77 29.11 62.77"/><polygon class="cls-4" points="33.12 62.77 10.96 85.09 10.96 82.31 30.36 62.77 33.12 62.77"/><polygon class="cls-4" points="37.13 62.77 10.96 89.13 10.96 86.35 34.37 62.77 37.13 62.77"/><polygon class="cls-4" points="41.13 62.77 14.4 89.7 11.65 89.7 38.38 62.77 41.13 62.77"/><polygon class="cls-4" points="45.15 62.77 18.41 89.7 15.65 89.7 42.38 62.77 45.15 62.77"/><polygon class="cls-4" points="49.16 62.77 22.42 89.7 19.65 89.7 46.38 62.77 49.16 62.77"/><polygon class="cls-4" points="53.16 62.77 26.42 89.7 23.66 89.7 50.4 62.77 53.16 62.77"/><polygon class="cls-4" points="57.16 62.77 30.42 89.7 27.67 89.7 54.41 62.77 57.16 62.77"/><polygon class="cls-4" points="61.18 62.77 34.44 89.7 31.67 89.7 58.41 62.77 61.18 62.77"/><polygon class="cls-4" points="65.18 62.77 38.44 89.7 35.68 89.7 62.42 62.77 65.18 62.77"/><polygon class="cls-4" points="69.18 62.77 42.44 89.7 39.69 89.7 66.43 62.77 69.18 62.77"/><polygon class="cls-4" points="73.19 62.77 46.45 89.7 43.69 89.7 70.43 62.77 73.19 62.77"/><polygon class="cls-4" points="77.2 62.77 50.46 89.7 47.69 89.7 74.43 62.77 77.2 62.77"/><polygon class="cls-4" points="81.2 62.77 54.47 89.7 51.71 89.7 78.45 62.77 81.2 62.77"/><polygon class="cls-4" points="85.2 62.77 58.47 89.7 55.71 89.7 82.45 62.77 85.2 62.77"/><polygon class="cls-4" points="89.22 62.77 62.48 89.7 59.71 89.7 86.45 62.77 89.22 62.77"/><polygon class="cls-4" points="93.22 62.77 66.49 89.7 63.73 89.7 90.46 62.77 93.22 62.77"/><polygon class="cls-4" points="97.23 62.77 70.49 89.7 67.73 89.7 94.46 62.77 97.23 62.77"/><polygon class="cls-4" points="101.23 62.77 74.5 89.7 71.74 89.7 98.47 62.77 101.23 62.77"/><polygon class="cls-4" points="105.23 62.77 78.51 89.7 75.74 89.7 102.48 62.77 105.23 62.77"/><polygon class="cls-4" points="105.28 63.98 105.28 66.76 82.51 89.7 79.76 89.7 105.28 63.98"/><polygon class="cls-4" points="105.28 68.02 105.28 70.8 86.51 89.7 83.76 89.7 105.28 68.02"/><polygon class="cls-4" points="105.28 72.06 105.28 74.83 90.53 89.7 87.76 89.7 105.28 72.06"/><polygon class="cls-4" points="105.28 76.09 105.28 78.87 94.53 89.7 91.77 89.7 105.28 76.09"/><polygon class="cls-4" points="105.28 80.13 105.28 82.9 98.53 89.7 95.78 89.7 105.28 80.13"/><polygon class="cls-4" points="105.28 84.15 105.28 86.94 102.54 89.7 99.78 89.7 105.28 84.15"/><polygon class="cls-4" points="105.28 88.19 105.28 89.7 103.79 89.7 105.28 88.19"/><line class="cls-3" x1="92.91" y1="62.77" x2="87.08" y2="68.65"/><polygon class="cls-4" points="89.07 62.77 87.08 64.77 87.08 62.77 89.07 62.77"/><polygon class="cls-4" points="93.08 62.77 87.08 68.81 87.08 66.03 90.31 62.77 93.08 62.77"/><polygon class="cls-4" points="97.22 62.77 87.08 72.99 87.08 70.2 94.45 62.77 97.22 62.77"/><polygon class="cls-4" points="101.22 62.77 87.08 77.02 87.08 74.24 98.46 62.77 101.22 62.77"/><polygon class="cls-4" points="105.22 62.77 87.08 81.05 87.08 78.28 102.47 62.77 105.22 62.77"/><polygon class="cls-4" points="109.23 62.77 87.08 85.09 87.08 82.31 106.47 62.77 109.23 62.77"/><polygon class="cls-4" points="113.25 62.77 87.08 89.13 87.08 86.35 110.48 62.77 113.25 62.77"/><polygon class="cls-4" points="117.25 62.77 90.51 89.7 87.76 89.7 114.5 62.77 117.25 62.77"/><polygon class="cls-4" points="121.26 62.77 94.52 89.7 91.76 89.7 118.5 62.77 121.26 62.77"/><polygon class="cls-4" points="125.27 62.77 98.53 89.7 95.76 89.7 122.5 62.77 125.27 62.77"/><polygon class="cls-4" points="129.27 62.77 102.53 89.7 99.77 89.7 126.51 62.77 129.27 62.77"/><polygon class="cls-4" points="133.27 62.77 106.53 89.7 103.78 89.7 130.52 62.77 133.27 62.77"/><polygon class="cls-4" points="137.29 62.77 110.55 89.7 107.78 89.7 134.52 62.77 137.29 62.77"/><polygon class="cls-4" points="141.29 62.77 114.55 89.7 111.79 89.7 138.53 62.77 141.29 62.77"/><polygon class="cls-4" points="145.29 62.77 118.55 89.7 115.8 89.7 142.54 62.77 145.29 62.77"/><polygon class="cls-4" points="149.3 62.77 122.56 89.7 119.8 89.7 146.54 62.77 149.3 62.77"/><polygon class="cls-4" points="153.31 62.77 126.58 89.7 123.8 89.7 150.54 62.77 153.31 62.77"/><polygon class="cls-4" points="157.31 62.77 130.57 89.7 127.82 89.7 154.56 62.77 157.31 62.77"/><polygon class="cls-4" points="161.31 62.77 134.58 89.7 131.82 89.7 158.56 62.77 161.31 62.77"/><polygon class="cls-4" points="165.33 62.77 138.6 89.7 135.82 89.7 162.56 62.77 165.33 62.77"/><polygon class="cls-4" points="169.33 62.77 142.6 89.7 139.84 89.7 166.57 62.77 169.33 62.77"/><polygon class="cls-4" points="173.34 62.77 146.6 89.7 143.85 89.7 170.57 62.77 173.34 62.77"/><polygon class="cls-4" points="177.34 62.77 150.61 89.7 147.85 89.7 174.58 62.77 177.34 62.77"/><polygon class="cls-4" points="181.34 62.77 154.62 89.7 151.85 89.7 178.59 62.77 181.34 62.77"/><polygon class="cls-4" points="181.39 63.98 181.39 66.76 158.62 89.7 155.87 89.7 181.39 63.98"/><polygon class="cls-4" points="181.39 68.02 181.39 70.8 162.62 89.7 159.87 89.7 181.39 68.02"/><polygon class="cls-4" points="181.39 72.06 181.39 74.83 166.64 89.7 163.87 89.7 181.39 72.06"/><polygon class="cls-4" points="181.39 76.09 181.39 78.87 170.64 89.7 167.88 89.7 181.39 76.09"/><polygon class="cls-4" points="181.39 80.13 181.39 82.9 174.64 89.7 171.89 89.7 181.39 80.13"/><polygon class="cls-4" points="181.39 84.15 181.39 86.94 178.65 89.7 175.89 89.7 181.39 84.15"/><polygon class="cls-4" points="181.39 88.19 181.39 89.7 179.9 89.7 181.39 88.19"/><line class="cls-3" x1="165.12" y1="62.77" x2="159.28" y2="68.65"/><polygon class="cls-4" points="161.27 62.77 159.28 64.77 159.28 62.77 161.27 62.77"/><polygon class="cls-4" points="165.28 62.77 159.28 68.81 159.28 66.03 162.52 62.77 165.28 62.77"/><polygon class="cls-4" points="169.43 62.77 159.28 72.99 159.28 70.2 166.66 62.77 169.43 62.77"/><polygon class="cls-4" points="173.43 62.77 159.28 77.02 159.28 74.24 170.67 62.77 173.43 62.77"/><polygon class="cls-4" points="177.43 62.77 159.28 81.05 159.28 78.28 174.68 62.77 177.43 62.77"/><polygon class="cls-4" points="181.44 62.77 159.28 85.09 159.28 82.31 178.68 62.77 181.44 62.77"/><polygon class="cls-4" points="185.45 62.77 159.28 89.13 159.28 86.35 182.69 62.77 185.45 62.77"/><polygon class="cls-4" points="189.45 62.77 162.72 89.7 159.97 89.7 186.7 62.77 189.45 62.77"/><polygon class="cls-4" points="193.46 62.77 166.73 89.7 163.97 89.7 190.7 62.77 193.46 62.77"/><polygon class="cls-4" points="197.47 62.77 170.74 89.7 167.97 89.7 194.7 62.77 197.47 62.77"/><polygon class="cls-4" points="201.48 62.77 174.74 89.7 171.98 89.7 198.71 62.77 201.48 62.77"/><polygon class="cls-4" points="205.48 62.77 178.74 89.7 175.99 89.7 202.72 62.77 205.48 62.77"/><polygon class="cls-4" points="209.5 62.77 182.76 89.7 179.99 89.7 206.72 62.77 209.5 62.77"/><polygon class="cls-4" points="213.5 62.77 186.76 89.7 184 89.7 210.74 62.77 213.5 62.77"/><polygon class="cls-4" points="217.5 62.77 190.76 89.7 188.01 89.7 214.75 62.77 217.5 62.77"/><polygon class="cls-4" points="221.51 62.77 194.77 89.7 192.01 89.7 218.75 62.77 221.51 62.77"/><polygon class="cls-4" points="225.52 62.77 198.78 89.7 196.01 89.7 222.75 62.77 225.52 62.77"/><polygon class="cls-4" points="229.52 62.77 202.78 89.7 200.03 89.7 226.77 62.77 229.52 62.77"/><polygon class="cls-4" points="233.52 62.77 206.78 89.7 204.03 89.7 230.77 62.77 233.52 62.77"/><polygon class="cls-4" points="237.54 62.77 210.8 89.7 208.03 89.7 234.77 62.77 237.54 62.77"/><polygon class="cls-4" points="241.54 62.77 214.81 89.7 212.04 89.7 238.78 62.77 241.54 62.77"/><polygon class="cls-4" points="245.55 62.77 218.81 89.7 216.05 89.7 242.78 62.77 245.55 62.77"/><polygon class="cls-4" points="249.55 62.77 222.82 89.7 220.05 89.7 246.79 62.77 249.55 62.77"/><polygon class="cls-4" points="253.55 62.77 226.83 89.7 224.06 89.7 250.8 62.77 253.55 62.77"/><polygon class="cls-4" points="253.6 63.98 253.6 66.76 230.83 89.7 228.07 89.7 253.6 63.98"/><polygon class="cls-4" points="253.6 68.02 253.6 70.8 234.83 89.7 232.08 89.7 253.6 68.02"/><polygon class="cls-4" points="253.6 72.06 253.6 74.83 238.85 89.7 236.08 89.7 253.6 72.06"/><polygon class="cls-4" points="253.6 76.09 253.6 78.87 242.85 89.7 240.09 89.7 253.6 76.09"/><polygon class="cls-4" points="253.6 80.13 253.6 82.9 246.85 89.7 244.1 89.7 253.6 80.13"/><polygon class="cls-4" points="253.6 84.15 253.6 86.94 250.86 89.7 248.1 89.7 253.6 84.15"/><polygon class="cls-4" points="253.6 88.19 253.6 89.7 252.11 89.7 253.6 88.19"/><path d="M26.47,76a5,5,0,0,1-1.27,3.69,5,5,0,0,1-3.68,1.28H19V71.18h2.84a4.6,4.6,0,0,1,3.45,1.26A4.81,4.81,0,0,1,26.47,76Zm-2,.06c0-2.09-.86-3.14-2.58-3.14h-1v6.34h.83C23.55,79.21,24.47,78.14,24.47,76Z"/><path d="M33.58,80.92H28.35V71.18h5.23v1.69h-3.3V75h3.07V76.7H30.28v2.51h3.3Z"/><path d="M40.82,78.21a2.6,2.6,0,0,1-.88,2.08,3.64,3.64,0,0,1-2.46.76,5.44,5.44,0,0,1-2.57-.59V78.55a11.79,11.79,0,0,0,1.55.62,4.79,4.79,0,0,0,1.17.17,1.53,1.53,0,0,0,1-.26.92.92,0,0,0,.34-.77.9.9,0,0,0-.15-.51,1.81,1.81,0,0,0-.44-.43,13.3,13.3,0,0,0-1.18-.66,5.66,5.66,0,0,1-1.24-.8,3.11,3.11,0,0,1-.67-.9,2.79,2.79,0,0,1-.24-1.2,2.61,2.61,0,0,1,.81-2A3.22,3.22,0,0,1,38.09,71a5,5,0,0,1,1.35.18,10.2,10.2,0,0,1,1.34.5l-.62,1.61a11,11,0,0,0-1.2-.45,3.85,3.85,0,0,0-.94-.12,1.17,1.17,0,0,0-.83.27.91.91,0,0,0-.29.71,1,1,0,0,0,.11.48,1.53,1.53,0,0,0,.38.39,9.6,9.6,0,0,0,1.22.68,4.94,4.94,0,0,1,1.74,1.31A2.66,2.66,0,0,1,40.82,78.21Z"/><path d="M46.32,72.76a1.91,1.91,0,0,0-1.68.87,4.29,4.29,0,0,0-.6,2.44c0,2.18.76,3.26,2.28,3.26a6.74,6.74,0,0,0,2.31-.51v1.73a6.05,6.05,0,0,1-2.49.5,3.68,3.68,0,0,1-3-1.29,5.72,5.72,0,0,1-1-3.7,6.31,6.31,0,0,1,.52-2.66,3.82,3.82,0,0,1,1.48-1.75A4.09,4.09,0,0,1,46.32,71a5.83,5.83,0,0,1,2.65.68l-.62,1.68q-.51-.25-1-.45A2.82,2.82,0,0,0,46.32,72.76Z"/><path d="M54.06,80.92H52.14v-8H49.68V71.18h6.84V72.9H54.06Z"/><path d="M57.92,80.92V71.18h1.92v9.74Z"/><path d="M68.39,74.21a3.1,3.1,0,0,1-.91,2.41,3.71,3.71,0,0,1-2.6.83h-.83v3.47H62.13V71.18H65a3.64,3.64,0,0,1,2.51.76A2.86,2.86,0,0,1,68.39,74.21Zm-4.34,1.55h.63A2,2,0,0,0,66,75.38a1.36,1.36,0,0,0,.44-1.09,1.38,1.38,0,0,0-.37-1.07,1.58,1.58,0,0,0-1.15-.35h-.88Z"/><path d="M73.6,80.92H71.68v-8H69.22V71.18h6.85V72.9H73.6Z"/><path d="M77.46,80.92V71.18h1.93v9.74Z"/><path d="M89.9,76a5.55,5.55,0,0,1-1.11,3.72,4.6,4.6,0,0,1-6.41,0A5.57,5.57,0,0,1,81.27,76a5.45,5.45,0,0,1,1.12-3.71,4.61,4.61,0,0,1,6.41,0A5.59,5.59,0,0,1,89.9,76Zm-6.62,0a4.34,4.34,0,0,0,.58,2.46,2,2,0,0,0,1.72.83c1.54,0,2.31-1.1,2.31-3.29s-.77-3.29-2.29-3.29a2,2,0,0,0-1.73.83A4.29,4.29,0,0,0,83.28,76Z"/><path d="M99.83,80.92H97.38l-3.94-7.37h-.06c.08,1.3.12,2.23.12,2.78v4.59H91.78V71.18h2.43l3.94,7.29h0c-.06-1.26-.09-2.16-.09-2.68V71.18h1.73Z"/><text class="cls-5" transform="translate(56.2 13.19) scale(0.93 1)">Lorem ipsum dolor sit amet, consectetuer adipiscing elit, sed diam nonummy nibh euismod </text></svg>