<svg id="Layer_1" data-name="Layer 1" xmlns="http://www.w3.org/2000/svg" viewBox="0 0 283.55 89.41">
  <defs>
    <style>
      .cls-1 {
        fill: #0066cc;
      }

      .cls-2 {
        fill: #fff;
      }
    </style>
  </defs>
  <title>Logo</title>
  <g>
    <path class="cls-1" d="M121,28.19q-8.62,0-13.62,5.75t-5,15.74q0,10.27,4.81,15.87t13.73,5.61a47.05,47.05,0,0,0,12.5-2v5.33a38.53,38.53,0,0,1-13.43,2q-11.57,0-17.85-7T95.82,49.6a31.39,31.39,0,0,1,3-14.17,21.6,21.6,0,0,1,8.73-9.38A26.41,26.41,0,0,1,121,22.75a32.55,32.55,0,0,1,14.4,3L132.84,31A27.79,27.79,0,0,0,121,28.19Z" transform="translate(-2.46 -3.44)"/>
    <path class="cls-1" d="M145.38,54.08V75.85H139.3V23.5h14.35q9.63,0,14.23,3.69t4.61,11.1q0,10.38-10.53,14l14.21,23.53H169L156.3,54.08Zm0-5.23h8.35q6.44,0,9.45-2.56t3-7.68q0-5.19-3.06-7.48t-9.82-2.29h-7.92Z" transform="translate(-2.46 -3.44)"/>
    <path class="cls-1" d="M192.44,49.68l14-26.18H213L195.52,55.55v20.3h-6.16v-20L171.93,23.5h6.66Z" transform="translate(-2.46 -3.44)"/>
    <path class="cls-1" d="M247.88,38.76q0,7.93-5.43,12.22t-15.52,4.28h-6.16V75.85h-6.08V23.5h13.57Q247.87,23.5,247.88,38.76ZM220.77,50h5.48q8.08,0,11.71-2.61T241.57,39q0-5.19-3.4-7.73c-2.26-1.7-5.8-2.54-10.59-2.54h-6.81Z" transform="translate(-2.46 -3.44)"/>
    <path class="cls-1" d="M269.44,75.85h-6.08V28.91H246.78V23.5H286v5.41H269.44Z" transform="translate(-2.46 -3.44)"/>
  </g>
  <g>
    <path class="cls-1" d="M90.75,38.23a44.73,44.73,0,0,1-16.14,45.2c-.7.54-1.43,1.08-2.16,1.58-.16.1-.31.22-.48.32l-.16.09-.28.16v0a44.2,44.2,0,0,1-12.14,5.51c-.44.13-.88.25-1.3.35l-1,.24c-.78.17-1.57.34-2.34.46a43.68,43.68,0,0,1-7,.66l.82-.26a97.4,97.4,0,0,0,15.06-6.78l.11-.08c.2-.12.39-.25.58-.35A37.38,37.38,0,0,0,72,77.2l0-.38L72.17,75l1.07-16.36q.17-4,1.72-31.16a34.38,34.38,0,0,1,5.84-1,36.4,36.4,0,0,1,5.42-.09A45.06,45.06,0,0,1,90.75,38.23Z" transform="translate(-2.46 -3.44)"/>
    <path class="cls-1" d="M72,85.33l-.15.1-.3.2v0l.28-.16Z" transform="translate(-2.46 -3.44)"/>
    <path class="cls-1" d="M86.22,26.38a36.4,36.4,0,0,0-5.42.09,34.38,34.38,0,0,0-5.84,1q-1.58,27.13-1.72,31.16h-.13l-.92,15.86-.14,2.28,0,.38c-.64.51-1.4,1.12-2.27,1.77l0,0c-3.51,2.7-8.56,6.37-13.13,9.26C55,89.3,53.43,90.21,52,91l-1.17.63c-.83.41-1.57.75-2.24,1l-.82.26c-.31,0-.61,0-.92,0h-.43c-.71,0-1.41,0-2.12-.1-.22,0-.45,0-.67-.06a40.4,40.4,0,0,1-6.88-1.07A44.7,44.7,0,1,1,70.89,10.27h0l.89.57c1.2.79,2.38,1.66,3.51,2.56.9.75,1.77,1.51,2.63,2.32a39.31,39.31,0,0,1,2.89,3A44,44,0,0,1,86.22,26.38Z" transform="translate(-2.46 -3.44)"/>
    <g>
      <path class="cls-2" d="M43.56,63.15a.11.11,0,0,0,0,.08C43.63,63.2,43.64,63.17,43.56,63.15Zm0,0a.11.11,0,0,0,0,.08C43.63,63.2,43.64,63.17,43.56,63.15Zm0,0a.11.11,0,0,0,0,.08C43.63,63.2,43.64,63.17,43.56,63.15Zm0,0a.11.11,0,0,0,0,.08C43.63,63.2,43.64,63.17,43.56,63.15Zm0,0a.11.11,0,0,0,0,.08C43.63,63.2,43.64,63.17,43.56,63.15Zm0,0a.11.11,0,0,0,0,.08C43.63,63.2,43.64,63.17,43.56,63.15Zm0,0a.11.11,0,0,0,0,.08C43.63,63.2,43.64,63.17,43.56,63.15Zm0,0a.11.11,0,0,0,0,.08C43.63,63.2,43.64,63.17,43.56,63.15Zm0,0a.11.11,0,0,0,0,.08C43.63,63.2,43.64,63.17,43.56,63.15Zm0,0a.11.11,0,0,0,0,.08C43.63,63.2,43.64,63.17,43.56,63.15ZM80.83,18.73a39.13,39.13,0,0,0-19.54,7.56c-7.3,5.06-12.71,8.07-16.24,9.08a36.67,36.67,0,0,1-8.5,1.8,31.48,31.48,0,0,1-20.3-4.62c0-.69.06-1.78.09-3.25a31.53,31.53,0,0,0,19.9,4.41,37.7,37.7,0,0,0,9.14-2,35.63,35.63,0,0,0,11-5.62,103.29,103.29,0,0,1,9.85-6.58,36.6,36.6,0,0,1,11.72-3.79c-.86-.81-1.73-1.57-2.63-2.32q-7.16,1.8-17.68,8.77-13,8.58-20.81,9.29a24.72,24.72,0,0,1-4.92-.07A31.65,31.65,0,0,1,16.52,27l.23-3.13a29.86,29.86,0,0,0,15.48,4,25.74,25.74,0,0,0,4.39,0q7.82-.72,20.8-9.3A73.22,73.22,0,0,1,71.8,10.84l-.89-.57h0a83,83,0,0,0-13.73,7q-13.63,8.34-22.35,9.12A29.79,29.79,0,0,1,15.57,22L15,32.92a34.06,34.06,0,0,0,6.66,3.53,32.93,32.93,0,0,1-.24,6.09A34,34,0,0,0,40.2,44.59q-.59,8.05-1.57,24s-1.19,13.51-1.86,23a40.4,40.4,0,0,0,6.88,1.07c.22,0,.45,0,.67.06.71,0,1.41.08,2.12.1h.43c.31,0,.61,0,.92,0l.82-.26c.67-.25,1.41-.59,2.24-1L52,91c1.41-.75,2.95-1.66,4.55-2.69,4.57-2.89,9.62-6.56,13.13-9.26l0,0c.87-.65,1.63-1.26,2.27-1.77l0-.38.14-2.28.92-15.86h.13q.17-4,1.72-31.16a34.38,34.38,0,0,1,5.84-1,36.4,36.4,0,0,1,5.42-.09A44,44,0,0,0,80.83,18.73Zm-40.59,45,1.54-.14a14.67,14.67,0,0,0,1.76-.33l0-.09A32.84,32.84,0,0,0,55,58.36a116.65,116.65,0,0,0,10.33-7.13,8.69,8.69,0,0,1-.14,2.09A8,8,0,0,0,65,55Q51.86,65.11,43.24,66.8A7.94,7.94,0,0,1,42,67l-1.9.17S40.11,66,40.24,63.71Zm-.47,6.11a41.38,41.38,0,0,0,9.35-2.14q6.27-2.24,15.65-9.81a37.43,37.43,0,0,1,0,3.76q-9,7.27-15.79,9.69a55.52,55.52,0,0,1-9.39,2S39.64,72.15,39.77,69.82Zm-.37,6.1,1.17-.1a34.76,34.76,0,0,0,11.49-3.07c0-.3.07-.31.1,0a65.51,65.51,0,0,0,12.42-8.34c0,.23-.08,1.48-.16,3.75a46.5,46.5,0,0,1-12.49,8.07c0,.28-.06.3-.09,0a37.3,37.3,0,0,1-12.77,3.21C39.19,78.65,39.29,77.47,39.4,75.92Zm-.49,6,1.8-.15c5.48-.31,11.08-2.22,16.8-5.64.73-.5,3-2.22,6.77-5.14A20.5,20.5,0,0,0,64,74.88c-1.13.94-3.39,2.62-6.79,5a35.88,35.88,0,0,1-16.56,5.38l-2,.18C38.68,84.72,38.81,83.57,38.91,81.9Zm24.79-.28A39.79,39.79,0,0,1,44,91.06h0c-.8.12-1.58.22-2.38.29-1.12.11-2.23.17-3.36.18,0,0,.09-1.16.22-3.51,1,0,2-.06,3.08-.15a34.44,34.44,0,0,0,6.24-1.16c.45-.14.9-.27,1.33-.42l1.5-.51,0,0c.52-.2,1-.41,1.53-.63,1-.42,2-.9,3-1.41.49-.26,1-.53,1.47-.82s.89-.52,1.34-.8c1-.64,2-1.33,3-2.07.39-.29.77-.58,1.15-.89.58-.44,1.15-.91,1.73-1.39C63.82,77.94,63.77,79.24,63.7,81.62Zm1.78-33.23a130.13,130.13,0,0,1-11.33,7.74,37.36,37.36,0,0,1-12.73,4.76l-1,.09c.1-.78.21-1.91.34-3.39l.88-.22a33.05,33.05,0,0,0,12.74-4.88q.26-.16,11.32-7.73Zm.31-6.49q-9.35,6.66-11.81,8A35.29,35.29,0,0,1,40.88,55a32,32,0,0,0,.31-3.64q5.76-.81,13.1-5.19c3.9-2.69,7.83-5.35,11.81-8A25,25,0,0,0,65.79,41.9Zm.45-6.51c-.15.12-3.45,2.38-9.85,6.85a34.44,34.44,0,0,1-10.5,5.33l-4.54,1.18a8.19,8.19,0,0,1,.14-2.08A8.75,8.75,0,0,0,41.65,45a13,13,0,0,0,2.41-.55c1-.29,1.71-.52,2.14-.63a41.46,41.46,0,0,0,10.34-5.59c5.17-3.63,8.45-5.83,9.86-6.55C66.38,31.91,66.32,33.16,66.24,35.39Zm.32-6.49a73.84,73.84,0,0,0-9.39,6.16,36,36,0,0,1-9.84,5.52,39.89,39.89,0,0,1-5.53,1.81s.09-1.18.22-3.51a27.57,27.57,0,0,0,5.63-1.81,40.6,40.6,0,0,0,9.7-5.65,83,83,0,0,1,9.4-6.15Zm-23,34.25a.11.11,0,0,0,0,.08C43.63,63.2,43.64,63.17,43.56,63.15Zm0,0a.11.11,0,0,0,0,.08C43.63,63.2,43.64,63.17,43.56,63.15Zm0,0a.11.11,0,0,0,0,.08C43.63,63.2,43.64,63.17,43.56,63.15Zm0,0a.11.11,0,0,0,0,.08C43.63,63.2,43.64,63.17,43.56,63.15Zm0,0a.11.11,0,0,0,0,.08C43.63,63.2,43.64,63.17,43.56,63.15Zm0,0a.11.11,0,0,0,0,.08C43.63,63.2,43.64,63.17,43.56,63.15Zm0,0a.11.11,0,0,0,0,.08C43.63,63.2,43.64,63.17,43.56,63.15Zm0,0a.11.11,0,0,0,0,.08C43.63,63.2,43.64,63.17,43.56,63.15Zm0,0a.11.11,0,0,0,0,.08C43.63,63.2,43.64,63.17,43.56,63.15Zm0,0a.11.11,0,0,0,0,.08C43.63,63.2,43.64,63.17,43.56,63.15Zm0,0a.11.11,0,0,0,0,.08C43.63,63.2,43.64,63.17,43.56,63.15Zm0,0a.11.11,0,0,0,0,.08C43.63,63.2,43.64,63.17,43.56,63.15Zm0,0a.11.11,0,0,0,0,.08C43.63,63.2,43.64,63.17,43.56,63.15Zm0,0a.11.11,0,0,0,0,.08C43.63,63.2,43.64,63.17,43.56,63.15Zm0,0a.11.11,0,0,0,0,.08C43.63,63.2,43.64,63.17,43.56,63.15Zm0,0a.11.11,0,0,0,0,.08C43.63,63.2,43.64,63.17,43.56,63.15Zm0,0a.11.11,0,0,0,0,.08C43.63,63.2,43.64,63.17,43.56,63.15Zm0,0a.11.11,0,0,0,0,.08C43.63,63.2,43.64,63.17,43.56,63.15Zm0,0a.11.11,0,0,0,0,.08C43.63,63.2,43.64,63.17,43.56,63.15Z" transform="translate(-2.46 -3.44)"/>
      <path class="cls-2" d="M101.85,25H102l-.4,5.6a39.7,39.7,0,0,0-15.36-4.16,44.29,44.29,0,0,0-5.39-7.66.52.52,0,0,1,.18,0,30.45,30.45,0,0,1,12,1.24,19.44,19.44,0,0,0,.23-3.12,30.4,30.4,0,0,0-12.41-1.47c-1,.09-2,.21-2.9.36-.85-.8-1.72-1.57-2.62-2.3a20.1,20.1,0,0,1,3.1-.55,27.31,27.31,0,0,1,3.75-.08,36.11,36.11,0,0,1,11.11,1.45A24.28,24.28,0,0,1,93.62,11a45.62,45.62,0,0,0-11.26-1.7,22,22,0,0,0-4.14,0,25.14,25.14,0,0,0-6.43,1.57l-.88-.57a32.56,32.56,0,0,1,8.63-2.16A35.44,35.44,0,0,1,95.1,10.19l-.52,5.73c.09.09.1.21,0,.39a42.64,42.64,0,0,1,7.77,3.18Z" transform="translate(-2.46 -3.44)"/>
    </g>
    <path class="cls-1" d="M75.74,73c0,.45,0,3.48.21,9-.44.49-.9,1-1.34,1.42-.7.54-1.43,1.08-2.16,1.58-.16.1-.31.22-.48.32l-.16.09-.28.16v0a44.2,44.2,0,0,1-12.14,5.51c-.44.13-.88.25-1.3.35l-1,.24c-.78.17-1.57.34-2.34.46a43.68,43.68,0,0,1-7,.66c-.31,0-.61,0-.92,0h-.43c-.71,0-1.41,0-2.12-.1a47.41,47.41,0,0,0,12.25-4.48,52.39,52.39,0,0,0,5-2.91l.1-.07c.72-.45,1.42-1,2.13-1.46a69.44,69.44,0,0,0,6-4.82l0,0c.76-.69,1.53-1.4,2.3-2.15l.06-.06C73.32,75.58,74.55,74.32,75.74,73Z" transform="translate(-2.46 -3.44)"/>
    <path class="cls-2" d="M72.2,74.09v.45l0,.49-.06,1.73-.3,8.66h0l-.3.2a44.2,44.2,0,0,1-12.14,5.51c-.44.13-.88.25-1.3.35l-1,.24c-.78.17-1.57.34-2.34.46a43.68,43.68,0,0,1-7,.66c-.31,0-.61,0-.92,0h-.43c-.71,0-1.41,0-2.12-.1-.22,0-.45,0-.67-.06a1.68,1.68,0,0,1-.07-.24A1.46,1.46,0,0,1,44,91.06h0a4.64,4.64,0,0,1,2.15-1.16l6-4.76v0l15.15-11.9Z" transform="translate(-2.46 -3.44)"/>
    <path class="cls-1" d="M63.86,77.74c0,.2-.09,1.5-.16,3.88q-10.22,8.67-22.12,9.73c-1.12.11-2.23.17-3.36.18,0,0,.09-1.16.22-3.5,1,0,2-.07,3.08-.16Q53.18,86.82,63.86,77.74Z" transform="translate(-2.46 -3.44)"/>
    <path class="cls-1" d="M63.9,84.06s0,.14,0,.27c0,.28,0,.75-.08,1.4,0,.13,0,.28,0,.43,0,.42,0,.92-.08,1.49a48,48,0,0,1-5.59,3.84l-1,.24c-.78.17-1.57.34-2.34.46a43.68,43.68,0,0,1-7,.66c-.31,0-.61,0-.92,0a38.11,38.11,0,0,0,4-1.26c.4-.14.81-.3,1.21-.47a47,47,0,0,0,9.56-5.33l.1-.07C62.45,85.2,63.18,84.65,63.9,84.06Z" transform="translate(-2.46 -3.44)"/>
  </g>
</svg>
